<svg width="36" height="40" viewBox="0 0 36 40" fill="none" xmlns="http://www.w3.org/2000/svg">
<path d="M15.4958 0.667875C17.0382 -0.222625 18.9385 -0.222625 20.4809 0.667875L33.4842 8.17533C35.0266 9.06583 35.9768 10.7115 35.9768 12.4925V27.5075C35.9768 29.2885 35.0266 30.9342 33.4842 31.8247L20.4809 39.3321C18.9385 40.2226 17.0382 40.2226 15.4958 39.3321L2.49254 31.8247C0.950152 30.9342 0 29.2885 0 27.5075V12.4925C0 10.7115 0.950152 9.06583 2.49254 8.17533L15.4958 0.667875Z" fill="url(#paint0_linear)"/>
<path d="M14.4987 31.6315L14.3619 31.5522L15.2923 28.1194L8.14968 21.201L8.12231 21.1218L10.7495 11.642L10.8042 11.5892L20.6288 9.0542L20.7109 9.08061L27.9082 16.0254L27.9356 16.1046L25.3084 25.5845L25.2811 25.6373L14.4987 31.6315ZM8.31388 21.1218L15.4565 28.0138L15.4839 28.093L14.5808 31.3938L25.1442 25.4788L27.744 16.0782L20.6288 9.21264L10.9137 11.7212L8.31388 21.1218Z" fill="white"/>
<path d="M21.5595 22.1252L13.0759 20.0127L13.0486 19.8807L19.2881 13.8337L19.4249 13.8601L21.669 22.0196L21.5595 22.1252ZM13.2675 19.9071L21.4501 21.9404L19.2881 14.0714L13.2675 19.9071Z" fill="white"/>
<path d="M15.4567 28.1457L15.3199 28.1193L10.777 11.7211L10.8865 11.6155L27.8263 16.0253L27.8537 16.1573L15.4567 28.1457ZM10.9686 11.8267L15.4293 27.9345L27.6347 16.1837L10.9686 11.8267Z" fill="white"/>
<path d="M13.0844 19.8572L8.18063 21.0721L8.22147 21.2256L13.1253 20.0107L13.0844 19.8572Z" fill="white"/>
<path d="M20.5583 9.12164L19.246 13.8672L19.4047 13.908L20.7169 9.16249L20.5583 9.12164Z" fill="white"/>
<path d="M21.6515 22.06L21.5361 22.1727L25.1373 25.6064L25.2527 25.4937L21.6515 22.06Z" fill="white"/>
<path d="M14.4987 31.6315L14.3619 31.5522L15.2923 28.1194L8.14968 21.201L8.12231 21.1218L10.7495 11.642L10.8042 11.5892L20.6288 9.0542L20.7109 9.08061L27.9082 16.0254L27.9356 16.1046L25.3084 25.5845L25.2811 25.6373L14.4987 31.6315ZM8.31388 21.1218L15.4565 28.0138L15.4839 28.093L14.5808 31.3938L25.1442 25.4788L27.744 16.0782L20.6288 9.21264L10.9137 11.7212L8.31388 21.1218Z" stroke="white" strokeWidth="0.578574"/>
<path d="M21.5595 22.1252L13.0759 20.0127L13.0486 19.8807L19.2881 13.8337L19.4249 13.8601L21.669 22.0196L21.5595 22.1252ZM13.2675 19.9071L21.4501 21.9404L19.2881 14.0714L13.2675 19.9071Z" stroke="white" strokeWidth="0.578574"/>
<path d="M15.4567 28.1457L15.3199 28.1193L10.777 11.7211L10.8865 11.6155L27.8263 16.0253L27.8537 16.1573L15.4567 28.1457ZM10.9686 11.8267L15.4293 27.9345L27.6347 16.1837L10.9686 11.8267Z" stroke="white" strokeWidth="0.578574"/>
<path d="M13.0844 19.8572L8.18063 21.0721L8.22147 21.2256L13.1253 20.0107L13.0844 19.8572Z" stroke="white" strokeWidth="0.578574"/>
<path d="M20.5583 9.12164L19.246 13.8672L19.4047 13.908L20.7169 9.16249L20.5583 9.12164Z" stroke="white" strokeWidth="0.578574"/>
<path d="M21.6515 22.06L21.5361 22.1727L25.1373 25.6064L25.2527 25.4937L21.6515 22.06Z" stroke="white" strokeWidth="0.578574"/>
<path d="M8.23197 21.7557C8.57959 21.7557 8.86139 21.4838 8.86139 21.1484C8.86139 20.813 8.57959 20.5411 8.23197 20.5411C7.88434 20.5411 7.60254 20.813 7.60254 21.1484C7.60254 21.4838 7.88434 21.7557 8.23197 21.7557Z" fill="white"/>
<path d="M10.859 12.3288C11.2067 12.3288 11.4885 12.0569 11.4885 11.7214C11.4885 11.386 11.2067 11.1141 10.859 11.1141C10.5114 11.1141 10.2296 11.386 10.2296 11.7214C10.2296 12.0569 10.5114 12.3288 10.859 12.3288Z" fill="white"/>
<path d="M20.6564 9.7673C21.004 9.7673 21.2858 9.49538 21.2858 9.15995C21.2858 8.82453 21.004 8.55261 20.6564 8.55261C20.3088 8.55261 20.027 8.82453 20.027 9.15995C20.027 9.49538 20.3088 9.7673 20.6564 9.7673Z" fill="white"/>
<path d="M27.7443 16.7122C28.0919 16.7122 28.3737 16.4402 28.3737 16.1048C28.3737 15.7694 28.0919 15.4975 27.7443 15.4975C27.3966 15.4975 27.1148 15.7694 27.1148 16.1048C27.1148 16.4402 27.3966 16.7122 27.7443 16.7122Z" fill="white"/>
<path d="M25.1992 26.1656C25.5468 26.1656 25.8286 25.8936 25.8286 25.5582C25.8286 25.2228 25.5468 24.9509 25.1992 24.9509C24.8516 24.9509 24.5698 25.2228 24.5698 25.5582C24.5698 25.8936 24.8516 26.1656 25.1992 26.1656Z" fill="white"/>
<path d="M21.532 22.6006C21.8796 22.6006 22.1614 22.3287 22.1614 21.9932C22.1614 21.6578 21.8796 21.3859 21.532 21.3859C21.1844 21.3859 20.9026 21.6578 20.9026 21.9932C20.9026 22.3287 21.1844 22.6006 21.532 22.6006Z" fill="white"/>
<path d="M15.4019 28.6477C15.7495 28.6477 16.0313 28.3758 16.0313 28.0404C16.0313 27.705 15.7495 27.4331 15.4019 27.4331C15.0542 27.4331 14.7724 27.705 14.7724 28.0404C14.7724 28.3758 15.0542 28.6477 15.4019 28.6477Z" fill="white"/>
<path d="M13.1853 20.541C13.5329 20.541 13.8147 20.269 13.8147 19.9336C13.8147 19.5982 13.5329 19.3263 13.1853 19.3263C12.8377 19.3263 12.5559 19.5982 12.5559 19.9336C12.5559 20.269 12.8377 20.541 13.1853 20.541Z" fill="white"/>
<path d="M19.3427 14.5468C19.6903 14.5468 19.9721 14.2749 19.9721 13.9395C19.9721 13.604 19.6903 13.3321 19.3427 13.3321C18.995 13.3321 18.7132 13.604 18.7132 13.9395C18.7132 14.2749 18.995 14.5468 19.3427 14.5468Z" fill="white"/>
<path d="M8.23197 21.7557C8.57959 21.7557 8.86139 21.4838 8.86139 21.1484C8.86139 20.813 8.57959 20.5411 8.23197 20.5411C7.88434 20.5411 7.60254 20.813 7.60254 21.1484C7.60254 21.4838 7.88434 21.7557 8.23197 21.7557Z" stroke="white" strokeWidth="1.15715"/>
<path d="M10.859 12.3288C11.2067 12.3288 11.4885 12.0569 11.4885 11.7214C11.4885 11.386 11.2067 11.1141 10.859 11.1141C10.5114 11.1141 10.2296 11.386 10.2296 11.7214C10.2296 12.0569 10.5114 12.3288 10.859 12.3288Z" stroke="white" strokeWidth="1.15715"/>
<path d="M20.6564 9.7673C21.004 9.7673 21.2858 9.49538 21.2858 9.15995C21.2858 8.82453 21.004 8.55261 20.6564 8.55261C20.3088 8.55261 20.027 8.82453 20.027 9.15995C20.027 9.49538 20.3088 9.7673 20.6564 9.7673Z" stroke="white" strokeWidth="1.15715"/>
<path d="M27.7443 16.7122C28.0919 16.7122 28.3737 16.4402 28.3737 16.1048C28.3737 15.7694 28.0919 15.4975 27.7443 15.4975C27.3966 15.4975 27.1148 15.7694 27.1148 16.1048C27.1148 16.4402 27.3966 16.7122 27.7443 16.7122Z" stroke="white" strokeWidth="1.15715"/>
<path d="M25.1992 26.1656C25.5468 26.1656 25.8286 25.8936 25.8286 25.5582C25.8286 25.2228 25.5468 24.9509 25.1992 24.9509C24.8516 24.9509 24.5698 25.2228 24.5698 25.5582C24.5698 25.8936 24.8516 26.1656 25.1992 26.1656Z" stroke="white" strokeWidth="1.15715"/>
<path d="M21.532 22.6006C21.8796 22.6006 22.1614 22.3287 22.1614 21.9932C22.1614 21.6578 21.8796 21.3859 21.532 21.3859C21.1844 21.3859 20.9026 21.6578 20.9026 21.9932C20.9026 22.3287 21.1844 22.6006 21.532 22.6006Z" stroke="white" strokeWidth="1.15715"/>
<path d="M15.4019 28.6477C15.7495 28.6477 16.0313 28.3758 16.0313 28.0404C16.0313 27.705 15.7495 27.4331 15.4019 27.4331C15.0542 27.4331 14.7724 27.705 14.7724 28.0404C14.7724 28.3758 15.0542 28.6477 15.4019 28.6477Z" stroke="white" strokeWidth="1.15715"/>
<path d="M13.1853 20.541C13.5329 20.541 13.8147 20.269 13.8147 19.9336C13.8147 19.5982 13.5329 19.3263 13.1853 19.3263C12.8377 19.3263 12.5559 19.5982 12.5559 19.9336C12.5559 20.269 12.8377 20.541 13.1853 20.541Z" stroke="white" strokeWidth="1.15715"/>
<path d="M19.3427 14.5468C19.6903 14.5468 19.9721 14.2749 19.9721 13.9395C19.9721 13.604 19.6903 13.3321 19.3427 13.3321C18.995 13.3321 18.7132 13.604 18.7132 13.9395C18.7132 14.2749 18.995 14.5468 19.3427 14.5468Z" stroke="white" strokeWidth="1.15715"/>
<defs>
<linearGradient id="paint0_linear" x1="17.9884" y1="40" x2="17.9884" y2="-4.64286" gradientUnits="userSpaceOnUse">
<stop stopColor="#5558FF"/>
<stop offset="0.991398" stopColor="#00C0FF"/>
</linearGradient>
</defs>
</svg>
