    <svg width="16" height="16" viewBox="0 0 16 16" fill="none" xmlns="http://www.w3.org/2000/svg">
        <g opacity="0.6">
          <path fillRule="evenodd" clipRule="evenodd" d="M1.83332 1.35352C1.18899 1.35352 0.666656 1.87585 0.666656 2.52018V4.85352C0.666656 5.49785 1.18899 6.02018 1.83332 6.02018H14.1667C14.811 6.02018 15.3333 5.49785 15.3333 4.85352V2.52018C15.3333 1.87585 14.811 1.35352 14.1667 1.35352H1.83332ZM14.1667 2.35352H1.83332C1.74128 2.35352 1.66666 2.42813 1.66666 2.52018V4.85352C1.66666 4.94556 1.74128 5.02018 1.83332 5.02018H14.1667C14.2587 5.02018 14.3333 4.94556 14.3333 4.85352V2.52018C14.3333 2.42813 14.2587 2.35352 14.1667 2.35352Z" fill="black" />
          <path d="M1.83332 6.68685C2.10947 6.68685 2.33332 6.91071 2.33332 7.18685V13.5202C2.33332 13.6122 2.40794 13.6868 2.49999 13.6868H13.5C13.592 13.6868 13.6667 13.6122 13.6667 13.5202V7.18685C13.6667 6.91071 13.8905 6.68685 14.1667 6.68685C14.4428 6.68685 14.6667 6.91071 14.6667 7.18685V13.5202C14.6667 14.1645 14.1443 14.6868 13.5 14.6868H2.49999C1.85566 14.6868 1.33332 14.1645 1.33332 13.5202V7.18685C1.33332 6.91071 1.55718 6.68685 1.83332 6.68685Z" fill="black" />
          <path d="M6.49999 7.68685C6.22385 7.68685 5.99999 7.91071 5.99999 8.18685C5.99999 8.46299 6.22385 8.68685 6.49999 8.68685H9.49999C9.77613 8.68685 9.99999 8.46299 9.99999 8.18685C9.99999 7.91071 9.77613 7.68685 9.49999 7.68685H6.49999Z" fill="black" />
        </g>
      </svg>
