   <svg width="20" height="20" viewBox="0 0 20 20" fill="none" xmlns="http://www.w3.org/2000/svg">
        <g opacity="0.6" clipPath="url(#clip0)">
          <path d="M9.99995 9.72461C7.39136 9.72461 5.26877 11.8472 5.26877 14.4558C5.26877 17.0644 7.39136 19.187 9.99995 19.187C12.6085 19.187 14.7311 17.0644 14.7311 14.4558C14.7311 11.8472 12.6085 9.72461 9.99995 9.72461ZM9.99995 18.5956C7.81715 18.5956 6.0278 16.8962 5.87518 14.7515H6.74726V14.1601H5.87518C5.94059 13.2411 6.30545 12.4054 6.87504 11.749L7.49099 12.365L7.90912 11.9468L7.29318 11.3309C7.94955 10.7613 8.78553 10.3964 9.70425 10.331V11.2031H10.2956V10.331C11.2147 10.3964 12.0503 10.7613 12.7067 11.3309L12.0908 11.9468L12.5089 12.365L13.1249 11.749C13.6945 12.4054 14.0593 13.2414 14.1247 14.1601H13.2526V14.7515H14.1247C13.9721 16.8962 12.1827 18.5956 9.99995 18.5956Z" fill="black" stroke="black" strokeWidth="0.2" />
          <path d="M10.8871 13.4462L10 12.5591L9.11293 13.4462V16.0436C8.92364 16.2592 8.81723 16.5357 8.81723 16.8213C8.81723 17.4736 9.3477 18.0041 10 18.0041C10.6524 18.0041 11.1828 17.4736 11.1828 16.8213C11.1828 16.5357 11.0764 16.2592 10.8871 16.0436V13.4462ZM10 17.4127C9.67386 17.4127 9.40863 17.1475 9.40863 16.8213C9.40863 16.6545 9.47894 16.499 9.60672 16.384L9.70433 16.2959V13.6911L10 13.3954L10.2957 13.6911V16.2959L10.3933 16.384C10.5211 16.499 10.5914 16.6545 10.5914 16.8213C10.5914 17.1475 10.3262 17.4127 10 17.4127Z" fill="black" stroke="black" strokeWidth="0.2" />
          <path d="M4.08596 10.9072H3.49456V15.9341H3.87891L2.90316 17.6905L1.92741 15.9341H2.31176V10.9072H1.72037V15.3427H0.921921L2.90316 18.9089L4.8844 15.3427H4.08596V10.9072Z" fill="black" stroke="black" strokeWidth="0.2" />
          <path d="M15.1156 13.5686H15.914V18.0041H16.5054V12.9772H16.1211L17.0968 11.2208L18.0726 12.9772H17.6882V18.0041H18.2796V13.5686H19.0781L17.0968 10.0024L15.1156 13.5686Z" fill="black" stroke="black" strokeWidth="0.2" />
          <path d="M16.2098 4.40186H16.8012V4.99325H16.2098V4.40186Z" fill="black" stroke="black" strokeWidth="0.2" />
          <path d="M15.0268 4.40186H15.6182V4.99325H15.0268V4.40186Z" fill="black" stroke="black" strokeWidth="0.2" />
          <path d="M13.8441 4.40186H14.4355V4.99325H13.8441V4.40186Z" fill="black" stroke="black" strokeWidth="0.2" />
          <path d="M3.19885 4.40186H3.79025V4.99325H3.19885V4.40186Z" fill="black" stroke="black" strokeWidth="0.2" />
          <path d="M4.38179 4.40186H4.97319V4.99325H4.38179V4.40186Z" fill="black" stroke="black" strokeWidth="0.2" />
          <path d="M5.56456 4.40186H6.15596V4.99325H5.56456V4.40186Z" fill="black" stroke="black" strokeWidth="0.2" />
          <path d="M4.6712 8.54168C5.43168 8.54168 6.16803 8.31875 6.8 7.89701L9.99999 5.76359L13.2 7.89701C13.8322 8.31875 14.5686 8.54168 15.3288 8.54168C17.4452 8.54168 19.1667 6.81427 19.1667 4.69139C19.1667 2.57501 17.4452 0.853516 15.3288 0.853516C14.5683 0.853516 13.8319 1.07644 13.2 1.49819L9.99999 3.63161L6.8 1.49819C6.16775 1.07644 5.43139 0.853516 4.6712 0.853516C2.55482 0.853516 0.833328 2.58093 0.833328 4.70381C0.833328 6.82019 2.55482 8.54168 4.6712 8.54168ZM4.6712 1.44491C5.31458 1.44491 5.93702 1.63362 6.47196 1.99025L9.46678 3.98709L8.934 4.34213L6.14407 2.48217C5.70644 2.19037 5.1972 2.03631 4.6712 2.03631C3.20715 2.03631 2.01612 3.23297 2.01612 4.70381C2.01612 6.16815 3.20715 7.35889 4.6712 7.35889C5.19748 7.35889 5.70673 7.20483 6.14378 6.91303L13.5283 1.99025C14.063 1.63362 14.6857 1.44491 15.3288 1.44491C17.119 1.44491 18.5753 2.90117 18.5753 4.69139C18.5753 6.4884 17.119 7.95029 15.3288 7.95029C14.6854 7.95029 14.063 7.76158 13.528 7.40495L10.5332 5.40811L11.066 5.05307L13.8559 6.91303C14.2935 7.20483 14.8028 7.35889 15.3288 7.35889C16.7928 7.35889 17.9839 6.16223 17.9839 4.69139C17.9839 3.22705 16.7928 2.03631 15.3288 2.03631C14.8025 2.03631 14.2933 2.19037 13.8562 2.48217L6.47167 7.40495C5.93702 7.76158 5.31429 7.95029 4.6712 7.95029C2.88098 7.95029 1.42473 6.49403 1.42473 4.70381C1.42473 2.9068 2.88098 1.44491 4.6712 1.44491ZM8.40079 4.6976L5.81559 6.42097C5.47586 6.6478 5.0801 6.76749 4.6712 6.76749C3.53302 6.76749 2.60752 5.8417 2.60752 4.70381C2.60752 3.55884 3.53302 2.62771 4.6712 2.62771C5.0801 2.62771 5.47615 2.7474 5.81588 2.97423L8.40079 4.6976ZM11.5992 4.6976L14.1844 2.97423C14.5241 2.7474 14.9199 2.62771 15.3288 2.62771C16.467 2.62771 17.3925 3.5535 17.3925 4.69139C17.3925 5.83636 16.467 6.76749 15.3288 6.76749C14.9199 6.76749 14.5238 6.6478 14.1841 6.42097L11.5992 4.6976Z" fill="black" stroke="black" strokeWidth="0.2" />
        </g>
        <defs>
          <clipPath id="clip0">
            <rect width="20" height="20" fill="white" transform="translate(0 0.0200195)" />
          </clipPath>
        </defs>
      </svg>