<svg width="24" height="24" viewBox="0 0 24 24" fill="none" xmlns="http://www.w3.org/2000/svg">
<path d="M15.7162 16.2234H8.49622" stroke="white" stroke-width="1.5" stroke-linecap="round" stroke-linejoin="round"/>
<path d="M10.9962 12.0369H8.49622" stroke="white" stroke-width="1.5" stroke-linecap="round" stroke-linejoin="round"/>
<path d="M11.2513 7.86011H8.49634" stroke="white" stroke-width="1.5" stroke-linecap="round" stroke-linejoin="round"/>
<path fillRule="evenodd" clipRule="evenodd" d="M15.9086 2.74976C15.9086 2.74976 8.23161 2.75376 8.21961 2.75376C5.45961 2.77076 3.75061 4.58676 3.75061 7.35676V16.5528C3.75061 19.3368 5.47261 21.1598 8.25661 21.1598C8.25661 21.1598 15.9326 21.1568 15.9456 21.1568C18.7056 21.1398 20.4156 19.3228 20.4156 16.5528V7.35676C20.4156 4.57276 18.6926 2.74976 15.9086 2.74976Z" stroke="white" stroke-width="1.5" stroke-linecap="round" stroke-linejoin="round"/>
<path fillRule="evenodd" clipRule="evenodd" d="M14.8182 7.4V7H15.1818V7.4H15.7273C16.4302 7.4 17 8.0268 17 8.8H16.6364C16.6364 8.24772 16.2293 7.8 15.7273 7.8H14.2727C13.7707 7.8 13.3636 8.24772 13.3636 8.8C13.3636 9.35228 13.7707 9.8 14.2727 9.8H15.7273C16.4302 9.8 17 10.4268 17 11.2C17 11.9732 16.4302 12.6 15.7273 12.6H15.1818V13H14.8182V12.6H14.2727C13.5698 12.6 13 11.9732 13 11.2H13.3636C13.3636 11.7523 13.7707 12.2 14.2727 12.2H15.7273C16.2293 12.2 16.6364 11.7523 16.6364 11.2C16.6364 10.6477 16.2293 10.2 15.7273 10.2H14.2727C13.5698 10.2 13 9.5732 13 8.8C13 8.0268 13.5698 7.4 14.2727 7.4H14.8182Z" fill="black" stroke="white" stroke-width="0.5"/>
</svg>
