<svg width="24" height="24" viewBox="0 0 24 24" fill="none" xmlns="http://www.w3.org/2000/svg">
                                            <path d="M15.7161 16.2236H8.49609" stroke="#1D53DA" stroke-width="1.5" stroke-linecap="round" stroke-linejoin="round"></path>
                                            <path d="M10.9961 12.0371H8.49609" stroke="#1D53DA" stroke-width="1.5" stroke-linecap="round" stroke-linejoin="round"></path>
                                            <path d="M11.2511 7.86035H8.49609" stroke="#1D53DA" stroke-width="1.5" stroke-linecap="round" stroke-linejoin="round"></path>
                                            <path fillRule="evenodd" clipRule="evenodd" d="M15.9085 2.75C15.9085 2.75 8.23149 2.754 8.21949 2.754C5.45949 2.771 3.75049 4.587 3.75049 7.357V16.553C3.75049 19.337 5.47249 21.16 8.25649 21.16C8.25649 21.16 15.9325 21.157 15.9455 21.157C18.7055 21.14 20.4155 19.323 20.4155 16.553V7.357C20.4155 4.573 18.6925 2.75 15.9085 2.75Z" stroke="#1D53DA" stroke-width="1.5" stroke-linecap="round" stroke-linejoin="round"></path>
                                            <path fillRule="evenodd" clipRule="evenodd" d="M14.8182 7.4V7H15.1818V7.4H15.7273C16.4302 7.4 17 8.0268 17 8.8H16.6364C16.6364 8.24772 16.2293 7.8 15.7273 7.8H14.2727C13.7707 7.8 13.3636 8.24772 13.3636 8.8C13.3636 9.35228 13.7707 9.8 14.2727 9.8H15.7273C16.4302 9.8 17 10.4268 17 11.2C17 11.9732 16.4302 12.6 15.7273 12.6H15.1818V13H14.8182V12.6H14.2727C13.5698 12.6 13 11.9732 13 11.2H13.3636C13.3636 11.7523 13.7707 12.2 14.2727 12.2H15.7273C16.2293 12.2 16.6364 11.7523 16.6364 11.2C16.6364 10.6477 16.2293 10.2 15.7273 10.2H14.2727C13.5698 10.2 13 9.5732 13 8.8C13 8.0268 13.5698 7.4 14.2727 7.4H14.8182Z" fill="#1D53DA" stroke="#1D53DA" stroke-width="0.5"></path>
                                        </svg>