<svg width="20" height="21" viewBox="0 0 20 21" fill="none" xmlns="http://www.w3.org/2000/svg">
    <path d="M14.4003 7.75379C14.6444 7.50971 14.6444 7.11398 14.4003 6.86991C14.1562 6.62583 13.7605 6.62583 13.5164 6.86991L8.54168 11.8446L6.48362 9.78657C6.23954 9.5425 5.84381 9.5425 5.59973 9.78657C5.35566 10.0307 5.35566 10.4264 5.59973 10.6705L8.09973 13.1705C8.34381 13.4145 8.73954 13.4145 8.98362 13.1705L14.4003 7.75379Z" fill="white" />
    <path fillRule="evenodd" clipRule="evenodd" d="M10 0.853516C4.9374 0.853516 0.833344 4.95757 0.833344 10.0202C0.833344 15.0828 4.9374 19.1868 10 19.1868C15.0626 19.1868 19.1667 15.0828 19.1667 10.0202C19.1667 4.95757 15.0626 0.853516 10 0.853516ZM2.08334 10.0202C2.08334 5.64793 5.62776 2.10352 10 2.10352C14.3723 2.10352 17.9167 5.64793 17.9167 10.0202C17.9167 14.3924 14.3723 17.9368 10 17.9368C5.62776 17.9368 2.08334 14.3924 2.08334 10.0202Z" fill="white" />
  </svg>