<svg width="16" height="16" viewBox="0 0 16 16" fill="none" xmlns="http://www.w3.org/2000/svg">
<path fillRule="evenodd" clipRule="evenodd" d="M0.270363 0.270363C0.630847 -0.090121 1.21531 -0.090121 1.57579 0.270363L8 6.69457L14.4242 0.270363C14.7847 -0.090121 15.3692 -0.090121 15.7296 0.270363C16.0901 0.630847 16.0901 1.21531 15.7296 1.57579L9.30543 8L15.7296 14.4242C16.0901 14.7847 16.0901 15.3692 15.7296 15.7296C15.3692 16.0901 14.7847 16.0901 14.4242 15.7296L8 9.30543L1.57579 15.7296C1.21531 16.0901 0.630847 16.0901 0.270363 15.7296C-0.090121 15.3692 -0.090121 14.7847 0.270363 14.4242L6.69457 8L0.270363 1.57579C-0.090121 1.21531 -0.090121 0.630847 0.270363 0.270363Z" fill="black" fillOpacity="0.38"/>
</svg>
