<svg width="73" height="68" viewBox="0 0 73 68" fill="none" xmlns="http://www.w3.org/2000/svg">
<g clip-path="url(#clip0)" filter="url(#filter0_d)">
<path d="M56.7529 14.1563C56.7544 14.104 56.7544 14.0522 56.7544 14C56.7561 10.6976 55.5896 7.50108 53.4615 4.97581C51.3334 2.45055 48.3808 0.759314 45.1259 0.201266C41.871 -0.356782 38.5236 0.254322 35.6758 1.92648C32.8281 3.59864 30.6635 6.22409 29.5649 9.33842C28.6449 9.11397 27.7014 9.00037 26.7544 9.00002C24.4327 9.01099 22.1634 9.69128 20.2186 10.9593C18.2737 12.2274 16.7358 14.0294 15.7891 16.1494C12.5496 16.6448 9.61664 18.3455 7.57746 20.9111C5.53828 23.4766 4.54333 26.7177 4.79176 29.9855C5.0402 33.2533 6.51369 36.3067 8.91729 38.5345C11.3209 40.7623 14.4772 42 17.7544 42H54.7544C58.2934 42.0017 61.7015 40.6624 64.2925 38.2518C66.8835 35.8413 68.4649 32.5385 68.7182 29.0087C68.9716 25.4789 67.8781 21.9841 65.6579 19.2282C63.4377 16.4724 60.2558 14.6601 56.7529 14.1563Z" fill="url(#paint0_linear)"/>
<path d="M52.5403 46.5C52.2334 46.4998 51.9379 46.6128 51.7132 46.8163C51.4885 47.0197 51.3514 47.2985 51.3295 47.5964C50.7189 48.4931 45.4367 50.0455 36.7546 50.0455C28.0724 50.0455 22.7903 48.4931 22.1796 47.5964C22.1558 47.292 22.0118 47.0084 21.778 46.805C21.5441 46.6016 21.2384 46.4941 20.9249 46.5052C20.6115 46.5162 20.3146 46.6449 20.0964 46.8642C19.8782 47.0835 19.7557 47.3765 19.7546 47.6818V54.7727C19.7546 59.3673 35.015 59.5 36.7546 59.5C38.4942 59.5 53.7546 59.3673 53.7546 54.7727V47.6818C53.7546 47.3684 53.6266 47.0678 53.3989 46.8461C53.1712 46.6245 52.8623 46.5 52.5403 46.5Z" fill="url(#paint1_linear)"/>
<path d="M52.5403 39C52.2334 38.9998 51.9379 39.1172 51.7132 39.3284C51.4885 39.5397 51.3514 39.8292 51.3295 40.1385C50.7189 41.0698 45.4367 42.6818 36.7546 42.6818C28.0724 42.6818 22.7903 41.0698 22.1796 40.1385C22.1558 39.8224 22.0118 39.5279 21.778 39.3167C21.5441 39.1055 21.2384 38.9939 20.9249 39.0054C20.6115 39.0168 20.3146 39.1504 20.0964 39.3782C19.8782 39.606 19.7557 39.9103 19.7546 40.2273V47.5909C19.7546 52.3622 35.015 52.5 36.7546 52.5C38.4942 52.5 53.7546 52.3622 53.7546 47.5909V40.2273C53.7546 39.9018 53.6266 39.5896 53.3989 39.3595C53.1712 39.1293 52.8623 39 52.5403 39Z" fill="url(#paint2_linear)"/>
<path d="M52.5403 32C52.2334 31.9998 51.9379 32.1172 51.7132 32.3284C51.4885 32.5397 51.3514 32.8292 51.3295 33.1385C50.7189 34.0698 45.4367 35.6818 36.7546 35.6818C28.0724 35.6818 22.7903 34.0698 22.1796 33.1385C22.1558 32.8224 22.0118 32.5279 21.778 32.3167C21.5441 32.1055 21.2384 31.9939 20.9249 32.0054C20.6115 32.0168 20.3146 32.1504 20.0964 32.3782C19.8782 32.606 19.7557 32.9103 19.7546 33.2273V40.5909C19.7546 45.3622 35.015 45.5 36.7546 45.5C38.4942 45.5 53.7546 45.3622 53.7546 40.5909V33.2273C53.7546 32.9018 53.6266 32.5896 53.3989 32.3595C53.1712 32.1293 52.8623 32 52.5403 32Z" fill="url(#paint3_linear)"/>
<path d="M52.5403 24.5C52.2334 24.4998 51.9379 24.6172 51.7132 24.8284C51.4885 25.0397 51.3514 25.3292 51.3295 25.6385C50.7189 26.5698 45.4367 28.1818 36.7546 28.1818C28.0724 28.1818 22.7903 26.5698 22.1796 25.6385C22.1558 25.3224 22.0118 25.0279 21.778 24.8167C21.5441 24.6055 21.2384 24.4939 20.9249 24.5054C20.6115 24.5168 20.3146 24.6504 20.0964 24.8782C19.8782 25.106 19.7557 25.4103 19.7546 25.7273V33.0909C19.7546 37.8622 35.015 38 36.7546 38C38.4942 38 53.7546 37.8622 53.7546 33.0909V25.7273C53.7546 25.4018 53.6266 25.0896 53.3989 24.8595C53.1712 24.6293 52.8623 24.5 52.5403 24.5Z" fill="url(#paint4_linear)"/>
<path d="M36.7546 35.5C34.8974 35.5 33.1137 35.4404 31.452 35.3223C31.1082 35.2979 30.7894 35.1524 30.5656 34.9177C30.3418 34.6831 30.2314 34.3785 30.2587 34.071C30.2859 33.7635 30.4486 33.4783 30.711 33.2782C30.9734 33.078 31.3139 32.9793 31.6576 33.0036C35.0509 33.2307 38.4583 33.2307 41.8515 33.0036C42.1953 32.9793 42.5358 33.078 42.7982 33.2782C43.0605 33.4783 43.2232 33.7635 43.2505 34.071C43.2778 34.3785 43.1674 34.6831 42.9436 34.9177C42.7198 35.1524 42.4009 35.2979 42.0572 35.3223C40.3954 35.4404 38.6118 35.5 36.7546 35.5Z" fill="url(#paint5_linear)"/>
<path d="M36.7546 42.5C34.8973 42.5 33.1137 42.4523 31.452 42.3579C31.1082 42.3384 30.7894 42.2219 30.5656 42.0342C30.3418 41.8465 30.2314 41.6028 30.2587 41.3568C30.2859 41.1108 30.4486 40.8827 30.711 40.7225C30.9734 40.5624 31.3139 40.4834 31.6576 40.5029C35.0509 40.6846 38.4583 40.6846 41.8515 40.5029C42.1944 40.486 42.533 40.5659 42.7946 40.7255C43.0561 40.8852 43.2198 41.1118 43.2505 41.3568C43.264 41.4786 43.2439 41.6011 43.1913 41.7174C43.1386 41.8336 43.0545 41.9413 42.9437 42.0342C42.8328 42.1272 42.6975 42.2036 42.5454 42.2592C42.3933 42.3147 42.2274 42.3482 42.0571 42.3579C40.3954 42.4523 38.6118 42.5 36.7546 42.5Z" fill="url(#paint6_linear)"/>
<path d="M36.7546 50C34.8974 50 33.1137 49.9404 31.452 49.8223C31.2818 49.8103 31.1159 49.7683 30.9638 49.6989C30.8117 49.6295 30.6764 49.5339 30.5656 49.4177C30.4548 49.3015 30.3706 49.167 30.318 49.0217C30.2653 48.8764 30.2451 48.7233 30.2586 48.571C30.2722 48.4188 30.3191 48.2704 30.3967 48.1344C30.4743 47.9983 30.5811 47.8773 30.711 47.7782C30.8409 47.6791 30.9914 47.6038 31.1538 47.5567C31.3162 47.5096 31.4874 47.4916 31.6576 47.5036C35.0509 47.7307 38.4583 47.7307 41.8515 47.5036C42.1953 47.4793 42.5358 47.578 42.7982 47.7782C43.0605 47.9783 43.2232 48.2635 43.2505 48.571C43.2778 48.8785 43.1674 49.1831 42.9436 49.4177C42.7198 49.6524 42.4009 49.7979 42.0572 49.8223C40.3954 49.9404 38.6118 50 36.7546 50Z" fill="url(#paint7_linear)"/>
<path d="M36.7546 57C34.8974 57 33.1137 56.9523 31.452 56.8579C31.2818 56.8482 31.1159 56.8147 30.9638 56.7591C30.8117 56.7036 30.6764 56.6271 30.5656 56.5342C30.4548 56.4412 30.3706 56.3336 30.318 56.2173C30.2653 56.1011 30.2451 55.9786 30.2586 55.8568C30.2722 55.735 30.3191 55.6163 30.3967 55.5075C30.4743 55.3987 30.5811 55.3018 30.711 55.2225C30.8409 55.1432 30.9914 55.083 31.1538 55.0454C31.3162 55.0077 31.4874 54.9933 31.6576 55.0029C35.0509 55.1846 38.4583 55.1846 41.8515 55.0029C42.1953 54.9834 42.5358 55.0624 42.7982 55.2225C43.0605 55.3827 43.2232 55.6108 43.2505 55.8568C43.2778 56.1028 43.1674 56.3465 42.9436 56.5342C42.7198 56.7219 42.4009 56.8384 42.0572 56.8579C40.3954 56.9523 38.6118 57 36.7546 57Z" fill="url(#paint8_linear)"/>
<path d="M36.7546 30.5C46.1434 30.5 53.7546 28.3734 53.7546 25.75C53.7546 23.1266 46.1434 21 36.7546 21C27.3657 21 19.7546 23.1266 19.7546 25.75C19.7546 28.3734 27.3657 30.5 36.7546 30.5Z" fill="url(#paint9_linear)"/>
</g>
<defs>
<filter id="filter0_d" x="0.754639" y="0" width="72" height="72" filterUnits="userSpaceOnUse" color-interpolation-filters="sRGB">
<feFlood flood-opacity="0" result="BackgroundImageFix"/>
<feColorMatrix in="SourceAlpha" type="matrix" values="0 0 0 0 0 0 0 0 0 0 0 0 0 0 0 0 0 0 127 0"/>
<feOffset dy="4"/>
<feGaussianBlur stdDeviation="2"/>
<feColorMatrix type="matrix" values="0 0 0 0 0 0 0 0 0 0 0 0 0 0 0 0 0 0 0.25 0"/>
<feBlend mode="normal" in2="BackgroundImageFix" result="effect1_dropShadow"/>
<feBlend mode="normal" in="SourceGraphic" in2="effect1_dropShadow" result="shape"/>
</filter>
<linearGradient id="paint0_linear" x1="36.7542" y1="42" x2="36.7542" y2="-4.875" gradientUnits="userSpaceOnUse">
<stop stop-color="#5558FF"/>
<stop offset="0.991398" stop-color="#00C0FF"/>
</linearGradient>
<linearGradient id="paint1_linear" x1="19.7546" y1="52.9958" x2="53.7546" y2="52.9958" gradientUnits="userSpaceOnUse">
<stop offset="0.00513965" stop-color="#3F4B75"/>
<stop offset="1" stop-color="#636F99"/>
</linearGradient>
<linearGradient id="paint2_linear" x1="19.7546" y1="45.75" x2="53.7001" y2="45.75" gradientUnits="userSpaceOnUse">
<stop stop-color="#0397F6"/>
<stop offset="1" stop-color="#00BAFF"/>
</linearGradient>
<linearGradient id="paint3_linear" x1="19.7546" y1="38.7456" x2="53.7546" y2="38.7456" gradientUnits="userSpaceOnUse">
<stop offset="0.00513965" stop-color="#3F4B75"/>
<stop offset="1" stop-color="#636F99"/>
</linearGradient>
<linearGradient id="paint4_linear" x1="19.7546" y1="31.25" x2="53.7001" y2="31.25" gradientUnits="userSpaceOnUse">
<stop stop-color="#0397F6"/>
<stop offset="1" stop-color="#00BAFF"/>
</linearGradient>
<linearGradient id="paint5_linear" x1="36.7546" y1="35.5" x2="36.7546" y2="33" gradientUnits="userSpaceOnUse">
<stop stop-color="#ADDCFF"/>
<stop offset="0.5028" stop-color="#EAF6FF"/>
<stop offset="1" stop-color="#EAF6FF"/>
</linearGradient>
<linearGradient id="paint6_linear" x1="36.7546" y1="42.5" x2="36.7546" y2="40.5" gradientUnits="userSpaceOnUse">
<stop stop-color="#ADDCFF"/>
<stop offset="0.5028" stop-color="#EAF6FF"/>
<stop offset="1" stop-color="#EAF6FF"/>
</linearGradient>
<linearGradient id="paint7_linear" x1="36.7546" y1="50" x2="36.7546" y2="47.5" gradientUnits="userSpaceOnUse">
<stop stop-color="#ADDCFF"/>
<stop offset="0.5028" stop-color="#EAF6FF"/>
<stop offset="1" stop-color="#EAF6FF"/>
</linearGradient>
<linearGradient id="paint8_linear" x1="36.7546" y1="57" x2="36.7546" y2="55" gradientUnits="userSpaceOnUse">
<stop stop-color="#ADDCFF"/>
<stop offset="0.5028" stop-color="#EAF6FF"/>
<stop offset="1" stop-color="#EAF6FF"/>
</linearGradient>
<linearGradient id="paint9_linear" x1="19.7546" y1="25.7469" x2="53.7546" y2="25.7469" gradientUnits="userSpaceOnUse">
<stop offset="0.00513965" stop-color="#3F4B75"/>
<stop offset="1" stop-color="#636F99"/>
</linearGradient>
<clipPath id="clip0">
<rect width="64" height="64" fill="white" transform="translate(4.75464)"/>
</clipPath>
</defs>
</svg>
