  <svg width="20" height="20" viewBox="0 0 20 20" fill="none" xmlns="http://www.w3.org/2000/svg">
        <g opacity="0.6" clipPath="url(#clip0)">
          <path d="M13.9468 5.56396H6.05328C5.77319 5.56396 5.54404 5.79312 5.54404 6.07321V13.9668C5.54404 14.2468 5.77319 14.476 6.05328 14.476H13.9468C14.2269 14.476 14.4561 14.2468 14.4561 13.9668V6.07325C14.4561 5.79316 14.2269 5.56396 13.9468 5.56396ZM13.4375 13.4575H6.56253V11.5478H7.58105C7.86114 11.5478 8.0903 11.3186 8.0903 11.0385C8.0903 10.7584 7.86114 10.5293 7.58105 10.5293H6.56253V9.51075H8.59958C8.87967 9.51075 9.10883 9.2816 9.10883 9.00151C9.10883 8.72142 8.87967 8.49226 8.59958 8.49226H6.56253V6.58253H13.4375V13.4575Z" fill="black" />
          <path d="M19.1667 8.69612C19.1667 8.41603 18.9375 8.18687 18.6574 8.18687H17.0278V6.58271H18.6574C18.9375 6.58271 19.1667 6.35356 19.1667 6.07347C19.1667 5.79338 18.9375 5.56422 18.6574 5.56422H17.0278V4.46928C17.0278 3.65445 16.3657 2.99244 15.5509 2.99244H14.456V1.36276C14.456 1.08267 14.2269 0.853516 13.9468 0.853516C13.6667 0.853516 13.4375 1.08267 13.4375 1.36276V2.9924H11.8079V1.36276C11.8079 1.08267 11.5787 0.853516 11.2986 0.853516C11.0185 0.853516 10.7894 1.08267 10.7894 1.36276V2.9924H9.15972V1.36276C9.15972 1.08267 8.93057 0.853516 8.65048 0.853516C8.37039 0.853516 8.14123 1.08267 8.14123 1.36276V2.9924H6.56253V1.36276C6.56249 1.08267 6.33334 0.853516 6.05325 0.853516C5.77315 0.853516 5.544 1.08267 5.544 1.36276V2.9924H4.44909C3.63427 2.9924 2.97225 3.65445 2.97225 4.46924V5.56415H1.34257C1.06248 5.56415 0.833328 5.79334 0.833328 6.07343C0.833328 6.35352 1.06248 6.58268 1.34257 6.58268H2.97222V8.21232H1.34257C1.06248 8.21232 0.833328 8.44147 0.833328 8.72157C0.833328 9.00166 1.06248 9.23081 1.34257 9.23081H2.97222V10.8605H1.34257C1.06248 10.8605 0.833328 11.0896 0.833328 11.3697C0.833328 11.6498 1.06248 11.879 1.34257 11.879H2.97222V13.4577H1.34257C1.06248 13.4577 0.833328 13.6868 0.833328 13.967C0.833328 14.2471 1.06248 14.4762 1.34257 14.4762H2.97222V15.5711C2.97222 16.3859 3.63427 17.048 4.44905 17.048H5.54396V18.6776C5.54396 18.9577 5.77312 19.1868 6.05321 19.1868C6.3333 19.1868 6.56245 18.9577 6.56245 18.6776V17.048H8.1921V18.6776C8.1921 18.9577 8.42125 19.1868 8.70134 19.1868C8.98143 19.1868 9.21059 18.9577 9.21059 18.6776V17.048H10.8402V18.6776C10.8402 18.9577 11.0694 19.1868 11.3495 19.1868C11.6296 19.1868 11.8587 18.9577 11.8587 18.6776V17.048H13.4374V18.6776C13.4374 18.9577 13.6666 19.1868 13.9467 19.1868C14.2268 19.1868 14.4559 18.9577 14.4559 18.6776V17.048H15.5508C16.3656 17.048 17.0277 16.3859 17.0277 15.5711V14.4762H18.6573C18.9374 14.4762 19.1666 14.2471 19.1666 13.967C19.1666 13.6869 18.9374 13.4577 18.6573 13.4577H17.0277V11.828H18.6573C18.9374 11.828 19.1666 11.5989 19.1666 11.3188C19.1666 11.0387 18.9374 10.8096 18.6573 10.8096H17.0277V9.17991H18.6573V9.20536C18.9375 9.20536 19.1667 8.97621 19.1667 8.69612ZM16.0347 15.5711H16.0093C16.0093 15.8258 15.8056 16.0295 15.5509 16.0295H4.44909C4.19445 16.0295 3.99074 15.8258 3.99074 15.5711V4.46928C3.99074 4.21463 4.19445 4.01093 4.44909 4.01093H15.5764C15.8311 4.01093 16.0348 4.21463 16.0348 4.46928V15.5711H16.0347Z" fill="black" />
        </g>
        <defs>
          <clipPath id="clip0">
            <rect width="20" height="20" fill="white" transform="translate(0 0.0200195)" />
          </clipPath>
        </defs>
      </svg>
