 <svg width="49" height="49" viewBox="0 0 49 49" fill="none" xmlns="http://www.w3.org/2000/svg">
        <path d="M34.25 13.5298C27.9125 13.5298 21.5 15.0748 21.5 18.0298V24.0298C21.5 26.9848 27.9125 28.5298 34.25 28.5298C38.7275 28.5298 43.235 27.7498 45.5 26.2573V30.0298C45.5 31.2523 41.12 33.0298 34.25 33.0298C32.5308 33.0339 30.8136 32.911 29.1125 32.6623L28.8875 34.1473C30.663 34.4085 32.4555 34.5363 34.25 34.5298C38.7275 34.5298 43.235 33.7498 45.5 32.2573V36.0298C45.5 37.2523 41.12 39.0298 34.25 39.0298C32.2846 39.0363 30.3224 38.8732 28.385 38.5423L28.115 40.0123C30.1409 40.3645 32.1938 40.5376 34.25 40.5298C40.5875 40.5298 47 38.9848 47 36.0298V18.0298C47 15.0748 40.5875 13.5298 34.25 13.5298ZM45.5 24.0298C45.5 25.2523 41.12 27.0298 34.25 27.0298C27.38 27.0298 23 25.2523 23 24.0298V20.2573C25.265 21.7498 29.7725 22.5298 34.25 22.5298C38.7275 22.5298 43.235 21.7498 45.5 20.2573V24.0298ZM34.25 21.0298C27.38 21.0298 23 19.2523 23 18.0298C23 16.8073 27.38 15.0298 34.25 15.0298C41.12 15.0298 45.5 16.8073 45.5 18.0298C45.5 19.2523 41.12 21.0298 34.25 21.0298Z" fill="#255BE2" />
        <path d="M42.5 22.5298H44V24.0298H42.5V22.5298Z" fill="#255BE2" />
        <path d="M39.5 23.2798H41V24.7798H39.5V23.2798Z" fill="#255BE2" />
        <path d="M36.5 24.0293H38V25.5293H36.5V24.0293Z" fill="#255BE2" />
        <path d="M42.5 28.5298H44V30.0298H42.5V28.5298Z" fill="#255BE2" />
        <path d="M39.5 29.2798H41V30.7798H39.5V29.2798Z" fill="#255BE2" />
        <path d="M36.5 30.0298H38V31.5298H36.5V30.0298Z" fill="#255BE2" />
        <path d="M42.5 34.5298H44V36.0298H42.5V34.5298Z" fill="#255BE2" />
        <path d="M39.5 35.2798H41V36.7798H39.5V35.2798Z" fill="#255BE2" />
        <path d="M36.5 36.0293H38V37.5293H36.5V36.0293Z" fill="#255BE2" />
        <path d="M29.75 17.2798H38.75V18.7798H29.75V17.2798Z" fill="#255BE2" />
        <path d="M25.25 9.77979H26.75V11.2798H25.25V9.77979Z" fill="#255BE2" />
        <path d="M22.25 9.77979H23.75V11.2798H22.25V9.77979Z" fill="#255BE2" />
        <path d="M8.75 23.2796H20V21.7796H8.75C8.06056 21.7772 7.37836 21.6389 6.74234 21.3728C6.10633 21.1067 5.52895 20.7179 5.04319 20.2287C4.55742 19.7394 4.17277 19.1593 3.91121 18.5214C3.64965 17.8835 3.51629 17.2003 3.51875 16.5109C3.52122 15.8214 3.65945 15.1392 3.92556 14.5032C4.19167 13.8672 4.58045 13.2898 5.0697 12.8041C5.55895 12.3183 6.13909 11.9336 6.77699 11.6721C7.41489 11.4105 8.09806 11.2772 8.7875 11.2796C8.89232 11.2796 8.99598 11.2577 9.09178 11.2151C9.18758 11.1726 9.27341 11.1105 9.34373 11.0327C9.41404 10.955 9.46728 10.8634 9.50001 10.7638C9.53274 10.6642 9.54424 10.5589 9.53375 10.4546C9.512 10.2296 9.5 10.0046 9.5 9.77962C9.49888 8.32117 9.97048 6.90164 10.8441 5.7338C11.7177 4.56596 12.9464 3.71272 14.3458 3.30198C15.7452 2.89123 17.24 2.94511 18.6063 3.45553C19.9725 3.96595 21.1365 4.90542 21.9238 6.13312C22.0227 6.28686 22.1745 6.39915 22.3504 6.44888C22.5264 6.4986 22.7145 6.48233 22.8793 6.40312C23.3842 6.15742 23.9384 6.02971 24.5 6.02962C25.4942 6.03081 26.4473 6.42628 27.1503 7.12928C27.8533 7.83229 28.2488 8.78542 28.25 9.77962C28.2489 10.0008 28.2281 10.2214 28.1878 10.4389C28.1698 10.5398 28.1727 10.6434 28.1964 10.7432C28.22 10.843 28.2639 10.9369 28.3252 11.0191C28.3866 11.1012 28.4642 11.1699 28.5531 11.221C28.6421 11.272 28.7406 11.3042 28.8425 11.3156C29.9103 11.4338 30.9154 11.8791 31.7203 12.5906L32.7118 11.4656C31.8676 10.7193 30.849 10.1977 29.75 9.94912C29.75 9.89212 29.75 9.83587 29.75 9.77962C29.7484 8.38772 29.1948 7.05328 28.2106 6.06906C27.2263 5.08484 25.8919 4.53121 24.5 4.52962C23.9306 4.52914 23.365 4.62265 22.826 4.80637C21.7843 3.42671 20.3354 2.40935 18.684 1.89811C17.0325 1.38687 15.2622 1.4076 13.6232 1.95739C11.9842 2.50717 10.5595 3.55819 9.55043 4.96187C8.54136 6.36555 7.99899 8.05088 8 9.77962V9.82087C6.28451 10.0114 4.70717 10.8519 3.59224 12.1695C2.47731 13.4871 1.90951 15.1818 2.00554 16.9052C2.10158 18.6286 2.85416 20.2497 4.10859 21.4353C5.36301 22.6209 7.02396 23.2809 8.75 23.2796Z" fill="#255BE2" />
        <path d="M26.8565 33.7873L24.845 33.5C24.709 33.0772 24.5389 32.6661 24.3365 32.2708L25.5545 30.6463C25.6628 30.5019 25.7153 30.3232 25.7025 30.1431C25.6897 29.9631 25.6124 29.7937 25.4847 29.666L23.3637 27.545C23.2361 27.4174 23.0667 27.3401 22.8866 27.3272C22.7066 27.3144 22.5279 27.367 22.3835 27.4753L20.759 28.6933C20.3637 28.4909 19.9526 28.3208 19.5297 28.1848L19.2425 26.1733C19.2169 25.9946 19.1277 25.8312 18.9913 25.713C18.8549 25.5948 18.6805 25.5298 18.5 25.5298H15.5C15.3195 25.5298 15.1451 25.5948 15.0087 25.713C14.8723 25.8312 14.7831 25.9946 14.7575 26.1733L14.4702 28.1848C14.0474 28.3208 13.6363 28.4909 13.241 28.6933L11.6165 27.4753C11.4721 27.367 11.2934 27.3144 11.1134 27.3272C10.9333 27.3401 10.7639 27.4174 10.6362 27.545L8.51524 29.666C8.38759 29.7937 8.31026 29.9631 8.29745 30.1431C8.28464 30.3232 8.3372 30.5019 8.44549 30.6463L9.66349 32.2708C9.46106 32.6661 9.291 33.0772 9.15499 33.5L7.14349 33.7873C6.96484 33.8129 6.80143 33.9021 6.68323 34.0385C6.56503 34.1749 6.49997 34.3493 6.49999 34.5298V37.5298C6.49997 37.7103 6.56503 37.8847 6.68323 38.0211C6.80143 38.1575 6.96484 38.2467 7.14349 38.2723L9.15499 38.5595C9.291 38.9824 9.46106 39.3934 9.66349 39.7888L8.44549 41.4133C8.3372 41.5577 8.28464 41.7364 8.29745 41.9164C8.31026 42.0965 8.38759 42.2659 8.51524 42.3935L10.6362 44.5145C10.7639 44.6422 10.9333 44.7195 11.1134 44.7323C11.2934 44.7451 11.4721 44.6926 11.6165 44.5843L13.241 43.3663C13.6363 43.5687 14.0474 43.7388 14.4702 43.8748L14.7575 45.8863C14.7831 46.0649 14.8723 46.2284 15.0087 46.3466C15.1451 46.4648 15.3195 46.5298 15.5 46.5298H18.5C18.6805 46.5298 18.8549 46.4648 18.9913 46.3466C19.1277 46.2284 19.2169 46.0649 19.2425 45.8863L19.5297 43.8748C19.9526 43.7388 20.3637 43.5687 20.759 43.3663L22.3835 44.5843C22.5279 44.6926 22.7066 44.7451 22.8866 44.7323C23.0667 44.7195 23.2361 44.6422 23.3637 44.5145L25.4847 42.3935C25.6124 42.2659 25.6897 42.0965 25.7025 41.9164C25.7153 41.7364 25.6628 41.5577 25.5545 41.4133L24.3365 39.7888C24.5389 39.3934 24.709 38.9824 24.845 38.5595L26.8565 38.2723C27.0351 38.2467 27.1986 38.1575 27.3168 38.0211C27.435 37.8847 27.5 37.7103 27.5 37.5298V34.5298C27.5 34.3493 27.435 34.1749 27.3168 34.0385C27.1986 33.9021 27.0351 33.8129 26.8565 33.7873ZM26 36.8795L24.1527 37.1435C24.0057 37.1645 23.8682 37.2286 23.7576 37.3278C23.647 37.427 23.5684 37.5568 23.5317 37.7008C23.3741 38.3219 23.1279 38.917 22.8005 39.4678C22.7246 39.5955 22.6884 39.7429 22.6964 39.8912C22.7044 40.0396 22.7563 40.1822 22.8455 40.301L23.9645 41.7935L22.7645 42.9935L21.275 41.8753C21.1562 41.7861 21.0136 41.7342 20.8652 41.7262C20.7169 41.7182 20.5695 41.7544 20.4417 41.8303C19.8909 42.1577 19.2958 42.4039 18.6747 42.5615C18.5308 42.5982 18.401 42.6768 18.3018 42.7874C18.2026 42.898 18.1384 43.0355 18.1175 43.1825L17.8497 45.0298H16.1502L15.8862 43.1825C15.8653 43.0355 15.8012 42.898 15.7019 42.7874C15.6027 42.6768 15.4729 42.5982 15.329 42.5615C14.7079 42.4039 14.1128 42.1577 13.562 41.8303C13.4343 41.7544 13.2869 41.7182 13.1385 41.7262C12.9902 41.7342 12.8476 41.7861 12.7287 41.8753L11.2362 42.9943L10.0362 41.7943L11.1552 40.3018C11.2444 40.183 11.2963 40.0403 11.3043 39.892C11.3123 39.7437 11.2761 39.5963 11.2002 39.4685C10.8729 38.9177 10.6266 38.3226 10.469 37.7015C10.4323 37.5576 10.3537 37.4278 10.2431 37.3286C10.1326 37.2294 9.99505 37.1652 9.84799 37.1443L7.99999 36.8795V35.18L9.84724 34.916C9.9943 34.8951 10.1318 34.8309 10.2424 34.7317C10.3529 34.6325 10.4316 34.5027 10.4682 34.3588C10.6258 33.7377 10.8721 33.1426 11.1995 32.5918C11.2754 32.4641 11.3116 32.3167 11.3036 32.1683C11.2956 32.02 11.2437 31.8774 11.1545 31.7585L10.0355 30.266L11.2355 29.066L12.728 30.185C12.8468 30.2742 12.9894 30.3261 13.1378 30.3341C13.2861 30.3421 13.4335 30.3059 13.5612 30.23C14.1121 29.9027 14.7072 29.6564 15.3282 29.4988C15.4722 29.4621 15.602 29.3835 15.7012 29.2729C15.8004 29.1624 15.8645 29.0248 15.8855 28.8778L16.1502 27.0298H17.8497L18.1137 28.877C18.1347 29.0241 18.1988 29.1616 18.298 29.2722C18.3973 29.3827 18.5271 29.4613 18.671 29.498C19.2921 29.6556 19.8872 29.9019 20.438 30.2293C20.5657 30.3052 20.7131 30.3414 20.8615 30.3334C21.0098 30.3254 21.1524 30.2735 21.2712 30.1843L22.7637 29.0653L23.9637 30.2653L22.8447 31.7578C22.7556 31.8766 22.7037 32.0192 22.6957 32.1676C22.6876 32.3159 22.7239 32.4633 22.7997 32.591C23.1271 33.1418 23.3734 33.737 23.531 34.358C23.5677 34.502 23.6463 34.6318 23.7568 34.731C23.8674 34.8302 24.0049 34.8943 24.152 34.9153L26 35.18V36.8795Z" fill="#255BE2" />
        <path d="M17 31.5298C16.11 31.5298 15.2399 31.7937 14.4999 32.2882C13.7599 32.7826 13.1831 33.4854 12.8425 34.3077C12.5019 35.13 12.4128 36.0348 12.5864 36.9077C12.7601 37.7806 13.1887 38.5824 13.818 39.2118C14.4473 39.8411 15.2492 40.2697 16.1221 40.4433C16.995 40.6169 17.8998 40.5278 18.7221 40.1872C19.5443 39.8466 20.2471 39.2699 20.7416 38.5298C21.2361 37.7898 21.5 36.9198 21.5 36.0298C21.4988 34.8367 21.0243 33.6928 20.1806 32.8491C19.337 32.0055 18.1931 31.531 17 31.5298ZM17 39.0298C16.4066 39.0298 15.8266 38.8538 15.3333 38.5242C14.8399 38.1945 14.4554 37.726 14.2283 37.1778C14.0013 36.6297 13.9419 36.0265 14.0576 35.4445C14.1734 34.8626 14.4591 34.328 14.8787 33.9085C15.2982 33.4889 15.8328 33.2032 16.4147 33.0874C16.9966 32.9717 17.5998 33.0311 18.148 33.2581C18.6962 33.4852 19.1647 33.8697 19.4944 34.3631C19.824 34.8564 20 35.4364 20 36.0298C20 36.8254 19.6839 37.5885 19.1213 38.1511C18.5587 38.7137 17.7956 39.0298 17 39.0298Z" fill="#255BE2" />
        <path d="M3.5 35.2798H5V36.7798H3.5V35.2798Z" fill="#255BE2" />
        <path d="M3.5 32.2798H5V33.7798H3.5V32.2798Z" fill="#255BE2" />
        <path d="M3.5 38.2793H5V39.7793H3.5V38.2793Z" fill="#255BE2" />
        <path d="M29 42.0298H30.5V43.5298H29V42.0298Z" fill="#255BE2" />
        <path d="M32 42.0298H33.5V43.5298H32V42.0298Z" fill="#255BE2" />
        <path d="M35 42.0298H36.5V43.5298H35V42.0298Z" fill="#255BE2" />
        <path d="M38 42.0298H39.5V43.5298H38V42.0298Z" fill="#255BE2" />
      </svg>