<svg width="24" height="24" viewBox="0 0 24 24" fill="none" xmlns="http://www.w3.org/2000/svg">
<path d="M16.5303 9.77984C16.8232 9.48695 16.8232 9.01207 16.5303 8.71918C16.2374 8.42629 15.7626 8.42629 15.4697 8.71918L11 13.1889L9.03033 11.2192C8.73744 10.9263 8.26256 10.9263 7.96967 11.2192C7.67678 11.5121 7.67678 11.9869 7.96967 12.2798L10.4697 14.7798C10.7626 15.0727 11.2374 15.0727 11.5303 14.7798L16.5303 9.77984Z" fill="#1D53DA"/>
<path fill-rule="evenodd" clip-rule="evenodd" d="M12.5399 0.636141C12.189 0.522328 11.811 0.522328 11.4601 0.636141L3.21012 3.31182C2.48947 3.54554 2 4.21606 2 4.97544V9.9995C2.00001 16.1888 5.7708 20.7044 11.401 22.8288C11.7866 22.9743 12.2134 22.9743 12.599 22.8288C18.2292 20.7044 22 16.1888 22 9.9995V4.97573C22 4.21659 21.5108 3.54562 20.7899 3.31182L12.5399 0.636141ZM11.9229 2.06298C11.973 2.04672 12.027 2.04672 12.0771 2.06298L20.3271 4.73865C20.4308 4.77228 20.5 4.86801 20.5 4.97573V9.9995C20.5 15.4609 17.2193 19.4822 12.0695 21.4254C12.0251 21.4422 11.9749 21.4422 11.9305 21.4254C6.78075 19.4822 3.5 15.4609 3.5 9.9995L3.5 4.97544C3.5 4.86798 3.56895 4.77236 3.67287 4.73865L11.9229 2.06298Z" fill="#1D53DA"/>
</svg>
