<svg width="170" height="160" fill="none" xmlns="http://www.w3.org/2000/svg"><path d="M29.307 28.725C4.12 31.895 11.18 51.01 13.565 63.888c2.386 12.877-5.82 13.67-11.925 26.744-7.632 16.343 11.925 46.554 47.224 64.383 35.3 17.83 82.047-17.334 90.156-24.762 8.109-7.429 15.742-28.725 27.667-52.498 11.925-23.772-11.925-35.658-15.264-49.03C148.083 15.353 105.629 0 77.008 0 48.388 0 60.79 24.763 29.307 28.725z" fill="url(#prefix__paint0_linear)"></path><path fill-rule="evenodd" clip-rule="evenodd" d="M111.881 148.405c-6.252-9.571-16.635-16.745-32.488-20.133-3.388-.725-8.76.416-13.97 1.523-7.741 1.644-15.128 3.213-15.128-1.523 0-6.34 6.679-16.509 10.018-20.801l30.529-23.277c-1.59-5.118-5.057-16.047-6.201-18.821-1.145-2.773-23.374 22.617-34.346 35.659-3.657 2.641-12.974 8.32-20.988 9.905-6.557 1.296-7.187.471-9.65-2.754-1.299-1.702-3.108-4.072-6.569-7.151C9.061 97.448 4.303 97.299 0 98.562c.03 16.939 18.7 41.217 48.864 56.453 20.405 10.307 44.636 2.906 63.017-6.61z" fill="#fff"></path><g clip-path="url(#prefix__clip0)"><path d="M64.756 74.828s-13.193.36-13.709.539c-.472.18-9.712 6.601-17.447 16.84l21.444-1.662 9.712-15.717z" fill="url(#prefix__paint1_linear)"></path><path d="M64.756 74.828s-13.193.36-13.709.539c-.472.18-9.712 6.601-17.447 16.84l21.444-1.662 9.712-15.717z" fill="url(#prefix__paint2_linear)"></path><path d="M82.805 93.734s-.343 13.787-.515 14.325c-.172.494-6.318 10.149-16.073 18.232l1.59-22.408 14.998-10.149z" fill="url(#prefix__paint3_linear)"></path><path d="M51.176 95.98c1.505-3.728 11.776-23.127 22.648-34.444 12.634-13.247 39.579-23.486 41.9-21.06 2.321 2.424-7.478 30.535-20.155 43.783-10.873 11.361-29.395 22.094-32.961 23.665L51.177 95.979z" fill="url(#prefix__paint4_linear)"></path><path opacity=".4" d="M94.494 62.794a.202.202 0 01-.3 0 .224.224 0 010-.314.202.202 0 01.3 0c.086.09.043.224 0 .314zm.946-.988a.201.201 0 01-.301 0 .224.224 0 010-.314.202.202 0 01.3 0 .224.224 0 010 .314zm.945-.988a.202.202 0 01-.3 0 .224.224 0 010-.314.202.202 0 01.3 0 .224.224 0 010 .314zm.946-.988a.202.202 0 01-.301 0 .224.224 0 010-.314.202.202 0 01.3 0 .224.224 0 010 .314zm.945-1.033a.201.201 0 01-.3 0 .224.224 0 010-.314.202.202 0 01.3 0c.086.09.086.27 0 .314zm.946-.987a.202.202 0 01-.301 0 .224.224 0 010-.315.202.202 0 01.3 0 .224.224 0 010 .315zm.988-.988a.202.202 0 01-.3 0 .224.224 0 010-.315.202.202 0 01.3 0 .4.4 0 010 .315zm.945-.988a.2.2 0 01-.3 0 .224.224 0 010-.315.2.2 0 01.3 0 .224.224 0 010 .315zm.946-.988a.202.202 0 01-.301 0 .224.224 0 010-.315.202.202 0 01.301 0 .224.224 0 010 .315zm-8.595 8.622a.202.202 0 00-.3 0 .224.224 0 000 .314c.085.09.214.09.3 0a.224.224 0 000-.314zM92.56 64.5a.202.202 0 00-.301 0 .224.224 0 000 .315c.086.09.215.09.3 0 .086-.09.086-.27 0-.314zm-.946.988a.202.202 0 00-.3 0 .224.224 0 000 .315c.085.09.214.09.3 0a.224.224 0 000-.315zM74.425 83.72a.202.202 0 01-.3 0 .224.224 0 010-.314.202.202 0 01.3 0c.086.09.086.27 0 .314zm.946-.988a.202.202 0 01-.301 0 .224.224 0 010-.314.202.202 0 01.3 0 .224.224 0 010 .314zm.988-.988a.202.202 0 01-.3 0 .224.224 0 010-.314.202.202 0 01.3 0 .399.399 0 010 .314zm.946-.987a.202.202 0 01-.301 0 .224.224 0 010-.315.201.201 0 01.3 0 .224.224 0 010 .315zm-3.138 11.136a.202.202 0 01-.3 0 .224.224 0 010-.314.202.202 0 01.3 0 .224.224 0 010 .314zm.946-.988a.202.202 0 01-.3 0 .224.224 0 010-.314.202.202 0 01.3 0 .224.224 0 010 .314zm.988-.988a.202.202 0 01-.3 0 .224.224 0 010-.314.202.202 0 01.3 0 .399.399 0 010 .314zm.946-.988a.202.202 0 01-.301 0 .224.224 0 010-.314.202.202 0 01.3 0 .224.224 0 010 .314zm-23.593 5.973c-.043-.045-.086-.09-.043-.135.129-.224 12.634-22.363 20.37-30.446 4.254-4.446 8.337-7.948 12.978-11.002l-1.117-1.168c.043-.045.129-.09.172-.134l1.117 1.167a89.472 89.472 0 016.446-3.772l-1.117-1.167c.086-.045.129-.09.215-.09l1.117 1.167a85.614 85.614 0 015.973-2.874c.043-.045.13 0 .13.045.042.045 0 .135-.044.135-11.087 4.94-18.049 9.79-25.741 17.828-7.736 8.083-20.198 30.176-20.327 30.401 0 .045-.043.045-.086.045h-.043zm49.463-24.564s-.043-.045-.086-.045-.043 0-.086.045L94.58 78.87s-.043.045-.043.09 0 .045.043.09l2.922 3.054c.044-.045.087-.135.13-.18l-2.837-2.964 8.036-8.397 1.547 1.616c.043-.044.086-.134.129-.18l-1.59-1.66zM78.852 98.045c-.043.045-.13.09-.172.135l-6.017-6.287-1.418-1.482-11.26 11.766s-.042.045-.085.045c-.043 0-.043 0-.086-.045s-.043-.135 0-.18L80.27 80.622a.127.127 0 01.172 0c.043.045.043.135 0 .18l-3.911 4.086.774.808s.043.045.043.09v1.347c0 .045 0 .045-.043.09l-4.427 4.625 5.974 6.197zm-6.146-6.421l4.427-4.626v-1.257l-.73-.763-5.029 5.254 1.332 1.392zm13.795-39.338a.224.224 0 010-.314.202.202 0 01.3 0 .224.224 0 010 .314.202.202 0 01-.3 0zm.43.45a.224.224 0 010-.315.202.202 0 01.3 0 .224.224 0 010 .314.202.202 0 01-.3 0zm6.274-4.312a.224.224 0 010-.314.202.202 0 01.3 0 .224.224 0 010 .314.353.353 0 01-.3 0zm.43.404a.224.224 0 010-.314.202.202 0 01.3 0 .224.224 0 010 .314.202.202 0 01-.3 0z" fill="#8FE2EA"></path><path d="M84.224 82.552c4.841 0 8.766-4.101 8.766-9.16 0-5.06-3.925-9.161-8.766-9.161-4.842 0-8.767 4.1-8.767 9.16 0 5.06 3.925 9.161 8.767 9.161z" fill="url(#prefix__paint5_linear)"></path><path d="M84.224 80.712c3.868 0 7.004-3.278 7.004-7.32 0-4.043-3.136-7.32-7.004-7.32-3.87 0-7.005 3.277-7.005 7.32s3.136 7.32 7.005 7.32z" fill="url(#prefix__paint6_linear)"></path><path d="M97.33 45.73l13.323 13.92c4.125-9.565 6.231-17.917 5.028-19.175-1.203-1.257-9.197.944-18.35 5.255z" fill="url(#prefix__paint7_linear)"></path><path d="M52.38 95.845a42.678 42.678 0 00-1.204 2.514l9.111 9.521c.473-.225 1.332-.629 2.407-1.258L52.38 95.845z" fill="url(#prefix__paint8_linear)"></path><path d="M52.68 92.79c-.73 1.437-1.246 2.515-1.504 3.188l11.432 11.945c.601-.269 1.676-.808 3.05-1.571L52.682 92.79z" fill="url(#prefix__paint9_linear)"></path><path d="M65.487 94.677c-8.165 8.532-15.127 15.043-15.6 14.549-.473-.494 5.759-7.768 13.924-16.3 8.165-8.533 9.497-9.117 9.97-8.668.472.495-.13 1.887-8.294 10.419z" fill="url(#prefix__paint10_linear)"></path><g opacity=".4" fill="#E3D2B4"><path opacity=".4" d="M106.957 106.487c-.129 0-.258-.135-.258-.27v-.763c0-.135.129-.269.258-.269s.258.134.258.269v.763c0 .135-.129.27-.258.27zM108.676 106.487c-.129 0-.258-.135-.258-.27v-.763c0-.135.129-.269.258-.269s.258.134.258.269v.763c0 .135-.086.27-.258.27zM110.438 106.487c-.129 0-.258-.135-.258-.27v-.763c0-.135.129-.269.258-.269s.258.134.258.269v.763c0 .135-.129.27-.258.27zM112.2 106.487c-.129 0-.258-.135-.258-.27v-.763c0-.135.129-.269.258-.269s.258.134.258.269v.763c0 .135-.129.27-.258.27zM113.962 106.487c-.129 0-.258-.135-.258-.27v-.763c0-.135.129-.269.258-.269s.258.134.258.269v.763c-.043.135-.129.27-.258.27zM115.681 106.487c-.129 0-.258-.135-.258-.27v-.763c0-.135.129-.269.258-.269s.258.134.258.269v.763c0 .135-.129.27-.258.27zM117.443 106.487c-.129 0-.258-.135-.258-.27v-.763c0-.135.129-.269.258-.269s.258.134.258.269v.763c0 .135-.129.27-.258.27zM119.205 106.487c-.129 0-.258-.135-.258-.27v-.763c0-.135.129-.269.258-.269s.258.134.258.269v.763c0 .135-.129.27-.258.27z"></path></g><g opacity=".4" fill="#3E1E7D"><path opacity=".4" d="M99.608 46.897c-.086-.09-.086-.27 0-.36l.516-.538a.253.253 0 01.344 0c.086.09.086.27 0 .36l-.516.538c-.043.135-.215.135-.344 0zM100.855 48.199c-.086-.09-.086-.27 0-.36l.515-.538a.253.253 0 01.344 0c.086.09.086.27 0 .359l-.515.539c-.086.135-.215.135-.344 0zM102.101 49.502c-.086-.09-.086-.27 0-.36l.516-.539c.085-.09.257-.09.343 0 .086.09.086.27 0 .36l-.515.539a.253.253 0 01-.344 0zM103.347 50.803c-.086-.09-.086-.27 0-.359l.516-.539a.253.253 0 01.344 0c.086.09.086.27 0 .36l-.516.538a.253.253 0 01-.344 0zM104.593 52.106c-.086-.09-.086-.27 0-.36l.516-.538a.253.253 0 01.344 0c.086.09.086.27 0 .36l-.516.538a.253.253 0 01-.344 0zM105.797 53.364c-.086-.09-.086-.27 0-.36l.515-.538a.253.253 0 01.344 0c.086.09.086.27 0 .359l-.516.539c-.086.135-.214.135-.343 0zM107.043 54.666c-.086-.09-.086-.27 0-.36l.516-.538c.086-.09.258-.09.343 0 .086.09.086.269 0 .359l-.515.539a.253.253 0 01-.344 0zM108.289 55.968c-.086-.09-.086-.269 0-.359l.516-.539a.253.253 0 01.344 0c.086.09.086.27 0 .36l-.516.538a.253.253 0 01-.344 0zM109.535 57.27c-.086-.09-.086-.27 0-.36l.516-.538a.253.253 0 01.344 0c.086.09.086.27 0 .36l-.516.538a.253.253 0 01-.344 0z"></path></g><g opacity=".2" fill="#331D74"><path opacity=".2" d="M52.122 88.21l-10.056.898c-.043 0-.043 0-.086.045l-2.493 2.604.344-.044 2.278-2.38 9.712-.854-2.407 2.515.344-.045 2.407-2.514c.043-.045.043-.09 0-.135.043-.09 0-.09-.043-.09zM58.482 78.6l3.524-3.682h-.3l-3.31 3.458H46.965c-.086.09-.172.134-.258.224h2.192c-5.33 4.266-10.4 9.79-13.58 13.472l.3-.045c3.224-3.727 8.295-9.206 13.58-13.382h9.197c.043 0 .043 0 .086-.045z"></path></g><g opacity=".2" fill="#331D74"><path opacity=".2" d="M82.72 96.294l-3.653 3.817s-.043.045-.043.09v9.61c-3.954 5.433-9.11 10.687-12.678 14.055l-.043.315c3.524-3.323 8.681-8.533 12.678-14.011v2.604c.086-.089.129-.179.215-.269v-12.259l3.438-3.593c.085-.135.085-.27.085-.36zM66.69 119.42l-.043.36 2.364-2.47s.043-.045.043-.09l.859-10.508c0-.045 0-.09-.043-.09h-.129l-2.278 2.38-.042.359 2.234-2.335-.816 10.149-2.15 2.245z"></path></g></g><defs><linearGradient id="prefix__paint0_linear" x1="148.561" y1="28.23" x2="15.145" y2="128.857" gradientUnits="userSpaceOnUse"><stop stop-color="#187FFA"></stop><stop offset="1" stop-color="#01F4EA"></stop></linearGradient><linearGradient id="prefix__paint1_linear" x1="64.108" y1="77.573" x2="34.309" y2="90.86" gradientUnits="userSpaceOnUse"><stop stop-color="#271A6B"></stop><stop offset=".211" stop-color="#2E1B71"></stop><stop offset=".527" stop-color="#431E81"></stop><stop offset=".905" stop-color="#64249B"></stop><stop offset="1" stop-color="#6D25A2"></stop></linearGradient><linearGradient id="prefix__paint2_linear" x1="64.108" y1="77.573" x2="34.309" y2="90.86" gradientUnits="userSpaceOnUse"><stop stop-color="#271A6B"></stop><stop offset=".211" stop-color="#2E1B71"></stop><stop offset=".527" stop-color="#431E81"></stop><stop offset=".905" stop-color="#64249B"></stop><stop offset="1" stop-color="#6D25A2"></stop></linearGradient><linearGradient id="prefix__paint3_linear" x1="81.898" y1="92.865" x2="64.243" y2="123.754" gradientUnits="userSpaceOnUse"><stop stop-color="#271A6B"></stop><stop offset=".211" stop-color="#2E1B71"></stop><stop offset=".527" stop-color="#431E81"></stop><stop offset=".905" stop-color="#64249B"></stop><stop offset="1" stop-color="#6D25A2"></stop></linearGradient><linearGradient id="prefix__paint4_linear" x1="74.176" y1="56.566" x2="99.923" y2="86.234" gradientUnits="userSpaceOnUse"><stop offset=".001" stop-color="#fff"></stop><stop offset=".129" stop-color="#FAFEFE"></stop><stop offset=".276" stop-color="#EDFAFC"></stop><stop offset=".431" stop-color="#D6F4F8"></stop><stop offset=".592" stop-color="#B6EBF2"></stop><stop offset=".74" stop-color="#92E1EC"></stop><stop offset=".993" stop-color="#3CFECD"></stop></linearGradient><linearGradient id="prefix__paint5_linear" x1="79.34" y1="59.063" x2="89.544" y2="86.505" gradientUnits="userSpaceOnUse"><stop stop-color="#3CE1CD"></stop><stop offset=".107" stop-color="#3EDBCE"></stop><stop offset=".253" stop-color="#43C9D0"></stop><stop offset=".422" stop-color="#4CACD5"></stop><stop offset=".608" stop-color="#5884DB"></stop><stop offset=".805" stop-color="#6851E2"></stop><stop offset=".831" stop-color="#6A4AE3"></stop><stop offset="1" stop-color="#5394D8"></stop></linearGradient><linearGradient id="prefix__paint6_linear" x1="81.878" y1="58.063" x2="85.114" y2="77.486" gradientUnits="userSpaceOnUse"><stop offset=".001" stop-color="#fff"></stop><stop offset=".129" stop-color="#FAFEFE"></stop><stop offset=".276" stop-color="#EDFAFC"></stop><stop offset=".431" stop-color="#D6F4F8"></stop><stop offset=".592" stop-color="#B6EBF2"></stop><stop offset=".74" stop-color="#92E1EC"></stop><stop offset=".993" stop-color="#3CFECD"></stop></linearGradient><linearGradient id="prefix__paint7_linear" x1="104.386" y1="42.703" x2="116.948" y2="52.321" gradientUnits="userSpaceOnUse"><stop stop-color="#271A6B"></stop><stop offset=".211" stop-color="#2E1B71"></stop><stop offset=".527" stop-color="#431E81"></stop><stop offset=".905" stop-color="#64249B"></stop><stop offset="1" stop-color="#6D25A2"></stop></linearGradient><linearGradient id="prefix__paint8_linear" x1="50.435" y1="93.555" x2="63.674" y2="110.174" gradientUnits="userSpaceOnUse"><stop stop-color="#271A6B"></stop><stop offset=".211" stop-color="#2E1B71"></stop><stop offset=".527" stop-color="#431E81"></stop><stop offset=".905" stop-color="#64249B"></stop><stop offset="1" stop-color="#6D25A2"></stop></linearGradient><linearGradient id="prefix__paint9_linear" x1="48.041" y1="86.43" x2="60.184" y2="102.243" gradientUnits="userSpaceOnUse"><stop stop-color="#271A6B"></stop><stop offset=".211" stop-color="#2E1B71"></stop><stop offset=".527" stop-color="#431E81"></stop><stop offset=".905" stop-color="#64249B"></stop><stop offset="1" stop-color="#6D25A2"></stop></linearGradient><linearGradient id="prefix__paint10_linear" x1="59.538" y1="87.019" x2="62.255" y2="97.419" gradientUnits="userSpaceOnUse"><stop stop-color="#271A6B"></stop><stop offset=".211" stop-color="#2E1B71"></stop><stop offset=".527" stop-color="#431E81"></stop><stop offset=".905" stop-color="#64249B"></stop><stop offset="1" stop-color="#6D25A2"></stop></linearGradient><clipPath id="prefix__clip0"><path fill="#fff" transform="translate(33.6 40.116)" d="M0 0h85.863v86.175H0z"></path></clipPath></defs></svg>