  <svg width="20" height="20" viewBox="0 0 20 20" fill="none" xmlns="http://www.w3.org/2000/svg">
        <g opacity="0.6" clipPath="url(#clip0)">
          <path d="M16.2504 0.0200195H3.75042C2.8294 0.0200195 2.08354 0.766191 2.08354 1.68658V13.3538V18.3538C2.08354 19.2742 2.8294 20.02 3.75042 20.02H10.0004H16.2504C17.1708 20.02 17.9167 19.2742 17.9167 18.3538V1.68658C17.9167 0.766191 17.1708 0.0200195 16.2504 0.0200195ZM9.16667 19.1863H3.75042C3.29081 19.1863 2.91667 18.8127 2.91667 18.3537V14.1863H3.11444C3.68819 14.9108 4.37725 15.5437 5.14507 16.0552L5.09073 16.0979C4.78311 16.3256 4.58354 16.6912 4.58354 17.1038C4.58354 17.7935 5.14323 18.3538 5.83354 18.3538C6.24616 18.3538 6.61174 18.1536 6.8394 17.846L7.40397 17.1294C7.55596 17.1764 7.70917 17.2197 7.86358 17.2582C8.29085 17.365 8.72663 17.4395 9.16667 17.481V19.1863ZM10.8335 11.6863C10.731 11.6863 10.637 11.7241 10.5644 11.7858L8.00026 13.8054C7.96425 13.7908 7.92764 13.7767 7.89221 13.7615C7.24706 13.4887 6.66784 13.098 6.16979 12.6006C5.67237 12.1025 5.28175 11.5227 5.00889 10.8781C4.72632 10.211 4.58346 9.5015 4.58346 8.76998C4.58346 8.03846 4.72628 7.32893 5.00889 6.66182C5.28171 6.01697 5.67233 5.43744 6.16979 4.93971C6.66784 4.44197 7.24706 4.05135 7.89221 3.7785C8.55932 3.4965 9.26854 3.35338 10.0004 3.35338C10.7316 3.35338 11.4408 3.4965 12.1085 3.7785C12.7531 4.05131 13.3323 4.44193 13.8303 4.93971C14.3278 5.43744 14.7184 6.01697 14.9912 6.66182C15.2738 7.32893 15.4167 8.03846 15.4167 8.76998C15.4167 9.5015 15.2739 10.211 14.9912 10.8781C14.7184 11.5227 14.3278 12.1025 13.8303 12.6006C13.3323 13.098 12.7531 13.4886 12.1085 13.7615C11.4408 14.0435 10.7316 14.1863 10.0004 14.1863C9.90881 14.1863 9.81788 14.1844 9.72694 14.1802L11.1509 12.3723C11.2125 12.3003 11.2504 12.2063 11.2504 12.1038C11.2504 11.8731 11.0637 11.6863 10.8335 11.6863ZM8.15651 14.7436C8.17424 14.749 8.19194 14.7539 8.20964 14.7594L6.18448 17.3296L6.17655 17.34L6.16921 17.3504C6.08925 17.4578 5.96718 17.5201 5.8335 17.5201C5.60339 17.5201 5.41663 17.3333 5.41663 17.1038C5.41663 16.9695 5.47827 16.8474 5.58632 16.7681L5.59671 16.7602L5.60647 16.7522L8.15651 14.7436ZM17.0835 18.3538C17.0835 18.8128 16.7094 19.1863 16.2504 19.1863H10.0004V16.6863C9.29483 16.6863 8.61124 16.5947 7.96061 16.4226L9.11479 14.9578C9.40409 14.9981 9.69952 15.0201 10.0004 15.0201C13.4519 15.0201 16.2504 12.2222 16.2504 8.77006C16.2504 5.31822 13.4519 2.52006 10.0004 2.52006C6.54827 2.52006 3.75042 5.31822 3.75042 8.77006C3.75042 11.2389 5.18171 13.3733 7.25995 14.389L5.83721 15.5096C4.93143 14.9517 4.14655 14.2169 3.53007 13.3538H2.91667V1.68658C2.91667 1.22729 3.29081 0.853457 3.75042 0.853457H16.2504C16.7094 0.853457 17.0835 1.22729 17.0835 1.68658V18.3538Z" fill="black" />
          <path d="M16.2504 1.27002C16.0203 1.27002 15.8335 1.45646 15.8335 1.68658C15.8335 1.9167 16.0203 2.10346 16.2504 2.10346C16.4805 2.10346 16.6667 1.9167 16.6667 1.68658C16.6667 1.45646 16.4805 1.27002 16.2504 1.27002Z" fill="black" />
          <path d="M16.2504 17.936C16.0203 17.936 15.8335 18.1228 15.8335 18.3535C15.8335 18.583 16.0203 18.7698 16.2504 18.7698C16.4805 18.7698 16.6667 18.583 16.6667 18.3535C16.6667 18.1228 16.4805 17.936 16.2504 17.936Z" fill="black" />
          <path d="M3.75042 1.27002C3.5203 1.27002 3.33354 1.45646 3.33354 1.68658C3.33354 1.9167 3.5203 2.10346 3.75042 2.10346C3.98053 2.10346 4.16667 1.9167 4.16667 1.68658C4.16667 1.45646 3.9805 1.27002 3.75042 1.27002Z" fill="black" />
          <path d="M10.0004 8.35352C9.7703 8.35352 9.58354 8.53996 9.58354 8.77008C9.58354 9.0002 9.7703 9.18664 10.0004 9.18664C10.2305 9.18664 10.4167 9.0002 10.4167 8.77008C10.4167 8.53996 10.2305 8.35352 10.0004 8.35352Z" fill="black" />
          <path d="M10.0002 4.18652C7.46847 4.18652 5.41647 6.23852 5.41647 8.76996C5.41647 9.00008 5.60323 9.18652 5.83335 9.18652C6.06347 9.18652 6.25022 9.00008 6.25022 8.76996C6.25022 7.76836 6.64022 6.8266 7.34823 6.11828C8.05686 5.40996 8.99804 5.01996 10.0002 5.01996C10.2303 5.01996 10.4165 4.83352 10.4165 4.6034C10.4165 4.37328 10.2303 4.18652 10.0002 4.18652Z" fill="black" />
          <path d="M10.0002 6.68652C8.84909 6.68652 7.91647 7.61945 7.91647 8.76996C7.91647 9.92047 8.84909 10.8537 10.0002 10.8537C11.1507 10.8537 12.0833 9.92047 12.0833 8.76996C12.0833 7.61945 11.1507 6.68652 10.0002 6.68652ZM10.0002 10.02C9.31054 10.02 8.75022 9.45906 8.75022 8.76996C8.75022 8.08086 9.31054 7.51996 10.0002 7.51996C10.6893 7.51996 11.2502 8.08086 11.2502 8.76996C11.2502 9.45906 10.6893 10.02 10.0002 10.02Z" fill="black" />
          <path d="M3.75042 17.936C3.5203 17.936 3.33354 18.1228 3.33354 18.3535C3.33354 18.583 3.5203 18.7698 3.75042 18.7698C3.98053 18.7698 4.16667 18.583 4.16667 18.3535C4.16667 18.1228 3.9805 17.936 3.75042 17.936Z" fill="black" />
          <path d="M11.9615 16.8083C11.7985 16.6459 11.5348 16.6459 11.3719 16.8083C11.2907 16.8901 11.2498 16.9969 11.2504 17.1037V18.3531C11.2498 18.4599 11.2907 18.5661 11.3719 18.6479C11.5348 18.8102 11.7985 18.8102 11.9615 18.6479C12.0426 18.5667 12.0835 18.4599 12.0835 18.3537V17.1037C12.0835 16.9963 12.0426 16.8901 11.9615 16.8083Z" fill="black" />
          <path d="M13.2115 16.8083C13.0485 16.6459 12.7848 16.6459 12.6219 16.8083C12.5407 16.8901 12.4998 16.9969 12.5004 17.1037V18.3531C12.4998 18.4599 12.5407 18.5661 12.6219 18.6479C12.7848 18.8102 13.0485 18.8102 13.2115 18.6479C13.2926 18.5667 13.3335 18.4599 13.3335 18.3537V17.1037C13.3335 16.9963 13.2926 16.8901 13.2115 16.8083Z" fill="black" />
          <path d="M14.4615 16.8083C14.2985 16.6459 14.0348 16.6459 13.8719 16.8083C13.7907 16.8901 13.7498 16.9969 13.7504 17.1037V18.3531C13.7498 18.4599 13.7907 18.5661 13.8719 18.6479C14.0348 18.8102 14.2985 18.8102 14.4615 18.6479C14.5426 18.5661 14.5835 18.4599 14.5835 18.3531V17.1037C14.5835 16.9969 14.5426 16.8901 14.4615 16.8083Z" fill="black" />
        </g>
        <defs>
          <clipPath id="clip0">
            <rect width="20" height="20" fill="white" transform="translate(0 0.0200195)" />
          </clipPath>
        </defs>
      </svg>