<svg width="80" height="80" viewBox="0 0 80 80" fill="none" xmlns="http://www.w3.org/2000/svg">
<path d="M56.25 22.5C45.6875 22.5 35 25.075 35 30V40C35 44.925 45.6875 47.5 56.25 47.5C63.7125 47.5 71.225 46.2 75 43.7125V50C75 52.0375 67.7 55 56.25 55C53.3846 55.0068 50.5227 54.8021 47.6875 54.3875L47.3125 56.8625C50.2716 57.2978 53.2591 57.5109 56.25 57.5C63.7125 57.5 71.225 56.2 75 53.7125V60C75 62.0375 67.7 65 56.25 65C52.9744 65.0108 49.7039 64.739 46.475 64.1875L46.025 66.6375C49.4014 67.2244 52.823 67.5131 56.25 67.5C66.8125 67.5 77.5 64.925 77.5 60V30C77.5 25.075 66.8125 22.5 56.25 22.5ZM75 40C75 42.0375 67.7 45 56.25 45C44.8 45 37.5 42.0375 37.5 40V33.7125C41.275 36.2 48.7875 37.5 56.25 37.5C63.7125 37.5 71.225 36.2 75 33.7125V40ZM56.25 35C44.8 35 37.5 32.0375 37.5 30C37.5 27.9625 44.8 25 56.25 25C67.7 25 75 27.9625 75 30C75 32.0375 67.7 35 56.25 35Z" fill="#7CE0FF"></path>
<path d="M70 37.5H72.5V40H70V37.5Z" fill="#7CE0FF"></path>
<path d="M65 38.75H67.5V41.25H65V38.75Z" fill="#7CE0FF"></path>
<path d="M60 40H62.5V42.5H60V40Z" fill="#7CE0FF"></path>
<path d="M70 47.5H72.5V50H70V47.5Z" fill="#7CE0FF"></path>
<path d="M65 48.75H67.5V51.25H65V48.75Z" fill="#7CE0FF"></path>
<path d="M60 50H62.5V52.5H60V50Z" fill="#7CE0FF"></path>
<path d="M70 57.5H72.5V60H70V57.5Z" fill="#7CE0FF"></path>
<path d="M65 58.75H67.5V61.25H65V58.75Z" fill="#7CE0FF"></path>
<path d="M60 60H62.5V62.5H60V60Z" fill="#7CE0FF"></path>
<path d="M48.75 28.75H63.75V31.25H48.75V28.75Z" fill="#7CE0FF"></path>
<path d="M41.25 16.25H43.75V18.75H41.25V16.25Z" fill="#7CE0FF"></path>
<path d="M36.25 16.25H38.75V18.75H36.25V16.25Z" fill="#7CE0FF"></path>
<path d="M13.7499 38.7496H32.4999V36.2496H13.7499C12.6008 36.2455 11.4638 36.0151 10.4038 35.5715C9.34378 35.128 8.38149 34.4801 7.57187 33.6646C6.76226 32.8492 6.12119 31.8823 5.68525 30.8192C5.24931 29.756 5.02705 28.6174 5.03116 27.4683C5.03526 26.3192 5.26565 25.1822 5.70917 24.1222C6.15269 23.0622 6.80065 22.0999 7.61607 21.2903C8.43148 20.4807 9.39838 19.8396 10.4615 19.4037C11.5247 18.9677 12.6633 18.7455 13.8124 18.7496C13.9871 18.7496 14.1599 18.7129 14.3195 18.6421C14.4792 18.5712 14.6222 18.4676 14.7394 18.3381C14.8566 18.2085 14.9454 18.0559 14.9999 17.8899C15.0545 17.7239 15.0736 17.5484 15.0562 17.3746C15.0199 16.9996 14.9999 16.6246 14.9999 16.2496C14.998 13.8188 15.784 11.4529 17.2401 9.50653C18.6961 7.56013 20.7438 6.13807 23.0762 5.45349C25.4085 4.76892 27.9 4.85871 30.177 5.70941C32.454 6.56011 34.394 8.12589 35.7062 10.1721C35.8711 10.4283 36.124 10.6155 36.4173 10.6983C36.7105 10.7812 37.024 10.7541 37.2987 10.6221C38.1403 10.2126 39.0639 9.99971 39.9999 9.99956C41.6569 10.0015 43.2454 10.6607 44.4171 11.8323C45.5888 13.004 46.2479 14.5926 46.2499 16.2496C46.2481 16.6182 46.2134 16.9859 46.1461 17.3483C46.1162 17.5166 46.1211 17.6892 46.1605 17.8556C46.1999 18.0219 46.273 18.1783 46.3753 18.3153C46.4775 18.4523 46.6068 18.5668 46.7551 18.6518C46.9034 18.7368 47.0675 18.7905 47.2374 18.8096C49.017 19.0065 50.6922 19.7487 52.0336 20.9346L53.6861 19.0596C52.2793 17.8156 50.5816 16.9464 48.7499 16.5321C48.7499 16.4371 48.7499 16.3433 48.7499 16.2496C48.7472 13.9297 47.8245 11.7057 46.1842 10.0653C44.5438 8.42493 42.3197 7.50221 39.9999 7.49956C39.0509 7.49877 38.1082 7.65461 37.2099 7.96081C35.4738 5.66138 33.0588 3.96578 30.3065 3.11371C27.5541 2.26164 24.6036 2.2962 21.8719 3.21251C19.1403 4.12881 16.7657 5.88051 15.0839 8.21998C13.4022 10.5594 12.4982 13.3683 12.4999 16.2496V16.3183C9.64074 16.6359 7.01185 18.0366 5.15364 20.2327C3.29542 22.4287 2.34908 25.2532 2.50914 28.1255C2.6692 30.9978 3.9235 33.6996 6.01421 35.6756C8.10492 37.6516 10.8732 38.7517 13.7499 38.7496Z" fill="#7CE0FF"></path>
<path d="M43.9275 56.2625L40.575 55.7837C40.3483 55.0791 40.0649 54.3939 39.7275 53.735L41.7575 51.0275C41.938 50.7868 42.0256 50.489 42.0042 50.1889C41.9829 49.8888 41.854 49.6065 41.6413 49.3937L38.1063 45.8588C37.8935 45.646 37.6112 45.5171 37.3111 45.4958C37.011 45.4744 36.7132 45.562 36.4725 45.7425L33.765 47.7725C33.1061 47.4351 32.4209 47.1517 31.7162 46.925L31.2375 43.5725C31.1948 43.2748 31.0461 43.0024 30.8188 42.8054C30.5915 42.6084 30.3008 42.5 30 42.5H25C24.6992 42.5 24.4085 42.6084 24.1812 42.8054C23.9539 43.0024 23.8052 43.2748 23.7625 43.5725L23.2838 46.925C22.5791 47.1517 21.8939 47.4351 21.235 47.7725L18.5275 45.7425C18.2868 45.562 17.989 45.4744 17.6889 45.4958C17.3888 45.5171 17.1065 45.646 16.8938 45.8588L13.3588 49.3937C13.146 49.6065 13.0171 49.8888 12.9958 50.1889C12.9744 50.489 13.062 50.7868 13.2425 51.0275L15.2725 53.735C14.9351 54.3939 14.6517 55.0791 14.425 55.7837L11.0725 56.2625C10.7748 56.3052 10.5024 56.4539 10.3054 56.6812C10.1084 56.9085 9.99996 57.1992 10 57.5V62.5C9.99996 62.8008 10.1084 63.0915 10.3054 63.3188C10.5024 63.5461 10.7748 63.6948 11.0725 63.7375L14.425 64.2162C14.6517 64.9209 14.9351 65.6061 15.2725 66.265L13.2425 68.9725C13.062 69.2132 12.9744 69.511 12.9958 69.8111C13.0171 70.1112 13.146 70.3935 13.3588 70.6062L16.8938 74.1412C17.1065 74.354 17.3888 74.4829 17.6889 74.5042C17.989 74.5256 18.2868 74.438 18.5275 74.2575L21.235 72.2275C21.8939 72.5649 22.5791 72.8483 23.2838 73.075L23.7625 76.4275C23.8052 76.7252 23.9539 76.9976 24.1812 77.1946C24.4085 77.3916 24.6992 77.5 25 77.5H30C30.3008 77.5 30.5915 77.3916 30.8188 77.1946C31.0461 76.9976 31.1948 76.7252 31.2375 76.4275L31.7162 73.075C32.4209 72.8483 33.1061 72.5649 33.765 72.2275L36.4725 74.2575C36.7132 74.438 37.011 74.5256 37.3111 74.5042C37.6112 74.4829 37.8935 74.354 38.1063 74.1412L41.6413 70.6062C41.854 70.3935 41.9829 70.1112 42.0042 69.8111C42.0256 69.511 41.938 69.2132 41.7575 68.9725L39.7275 66.265C40.0649 65.6061 40.3483 64.9209 40.575 64.2162L43.9275 63.7375C44.2252 63.6948 44.4976 63.5461 44.6946 63.3188C44.8916 63.0915 45 62.8008 45 62.5V57.5C45 57.1992 44.8916 56.9085 44.6946 56.6812C44.4976 56.4539 44.2252 56.3052 43.9275 56.2625ZM42.5 61.4162L39.4213 61.8562C39.1762 61.8912 38.9469 61.9981 38.7627 62.1634C38.5784 62.3288 38.4474 62.5451 38.3862 62.785C38.1236 63.8201 37.7131 64.812 37.1675 65.73C37.041 65.9429 36.9807 66.1885 36.994 66.4358C37.0074 66.683 37.0939 66.9207 37.2425 67.1187L39.1075 69.6062L37.1075 71.6062L34.625 69.7425C34.427 69.5939 34.1893 69.5074 33.942 69.494C33.6948 69.4807 33.4491 69.541 33.2363 69.6675C32.3182 70.2131 31.3264 70.6236 30.2913 70.8862C30.0513 70.9474 29.835 71.0784 29.6697 71.2627C29.5043 71.4469 29.3974 71.6761 29.3625 71.9212L28.9162 75H26.0838L25.6437 71.9212C25.6088 71.6761 25.5019 71.4469 25.3366 71.2627C25.1712 71.0784 24.9549 70.9474 24.715 70.8862C23.6799 70.6236 22.688 70.2131 21.77 69.6675C21.5571 69.541 21.3115 69.4807 21.0642 69.494C20.817 69.5074 20.5793 69.5939 20.3813 69.7425L17.8937 71.6075L15.8938 69.6075L17.7587 67.12C17.9074 66.922 17.9939 66.6843 18.0072 66.437C18.0206 66.1898 17.9602 65.9441 17.8338 65.7312C17.2881 64.8132 16.8777 63.8214 16.615 62.7862C16.5538 62.5463 16.4228 62.33 16.2386 62.1647C16.0543 61.9993 15.8251 61.8924 15.58 61.8575L12.5 61.4162V58.5837L15.5788 58.1437C15.8238 58.1088 16.0531 58.0019 16.2373 57.8366C16.4216 57.6712 16.5526 57.4549 16.6138 57.215C16.8764 56.1799 17.2869 55.188 17.8325 54.27C17.9589 54.0571 18.0193 53.8115 18.006 53.5642C17.9926 53.317 17.9061 53.0793 17.7575 52.8812L15.8925 50.3937L17.8925 48.3937L20.38 50.2587C20.578 50.4074 20.8157 50.4939 21.063 50.5072C21.3102 50.5206 21.5559 50.4602 21.7688 50.3337C22.6868 49.7881 23.6786 49.3777 24.7137 49.115C24.9537 49.0538 25.17 48.9228 25.3353 48.7386C25.5007 48.5543 25.6076 48.3251 25.6425 48.08L26.0838 45H28.9162L29.3563 48.0788C29.3912 48.3238 29.4981 48.5531 29.6634 48.7373C29.8288 48.9216 30.0451 49.0526 30.285 49.1137C31.3201 49.3764 32.312 49.7869 33.23 50.3325C33.4429 50.4589 33.6885 50.5193 33.9358 50.506C34.183 50.4926 34.4207 50.4061 34.6187 50.2575L37.1062 48.3925L39.1063 50.3925L37.2412 52.88C37.0926 53.078 37.0061 53.3157 36.9928 53.563C36.9794 53.8102 37.0398 54.0559 37.1663 54.2688C37.7119 55.1868 38.1223 56.1786 38.385 57.2137C38.4462 57.4536 38.5772 57.67 38.7614 57.8353C38.9457 58.0007 39.1749 58.1076 39.42 58.1425L42.5 58.5837V61.4162Z" fill="#7CE0FF"></path>
<path d="M27.5 52.5C26.0166 52.5 24.5666 52.9399 23.3332 53.764C22.0999 54.5881 21.1386 55.7594 20.5709 57.1299C20.0032 58.5003 19.8547 60.0083 20.1441 61.4632C20.4335 62.918 21.1478 64.2544 22.1967 65.3033C23.2456 66.3522 24.582 67.0665 26.0368 67.3559C27.4917 67.6453 28.9997 67.4967 30.3701 66.9291C31.7406 66.3614 32.9119 65.4001 33.736 64.1668C34.5601 62.9334 35 61.4834 35 60C34.998 58.0115 34.2072 56.105 32.8011 54.6989C31.395 53.2928 29.4885 52.502 27.5 52.5ZM27.5 65C26.5111 65 25.5444 64.7067 24.7222 64.1573C23.8999 63.6079 23.259 62.827 22.8806 61.9134C22.5022 60.9998 22.4032 59.9945 22.5961 59.0245C22.789 58.0546 23.2652 57.1637 23.9645 56.4645C24.6637 55.7652 25.5546 55.289 26.5245 55.0961C27.4945 54.9031 28.4998 55.0022 29.4134 55.3806C30.327 55.759 31.1079 56.3999 31.6573 57.2221C32.2068 58.0444 32.5 59.0111 32.5 60C32.5 61.3261 31.9732 62.5978 31.0355 63.5355C30.0978 64.4732 28.8261 65 27.5 65Z" fill="#7CE0FF"></path>
<path d="M5 58.75H7.5V61.25H5V58.75Z" fill="#7CE0FF"></path>
<path d="M5 53.75H7.5V56.25H5V53.75Z" fill="#7CE0FF"></path>
<path d="M5 63.75H7.5V66.25H5V63.75Z" fill="#7CE0FF"></path>
<path d="M47.5 70H50V72.5H47.5V70Z" fill="#7CE0FF"></path>
<path d="M52.5 70H55V72.5H52.5V70Z" fill="#7CE0FF"></path>
<path d="M57.5 70H60V72.5H57.5V70Z" fill="#7CE0FF"></path>
<path d="M62.5 70H65V72.5H62.5V70Z" fill="#7CE0FF"></path>
</svg>