<svg width={108} height={108} viewBox="0 0 108 108" fill="none" xmlns="http://www.w3.org/2000/svg">
        <path fillrule="evenodd" cliprule="evenodd" d="M55.8943 9C32.0355 9 12.6942 29.1472 12.6942 54C12.6942 78.8526 32.0355 99 55.8943 99C79.7528 99 99.0943 78.8526 99.0943 54C99.0943 29.1472 79.7528 9 55.8943 9ZM18.6359 51.9547H37.272C37.6659 39.5311 41.5887 29.494 45.4917 22.4842C47.0232 19.7335 48.5568 17.4395 49.8839 15.638C32.7661 18.5259 19.5523 33.5458 18.6359 51.9547ZM37.3695 58.0909H18.7893C20.5435 75.5577 33.4046 89.582 49.8834 92.3621C48.5568 90.5607 47.0232 88.2666 45.4917 85.5157C41.8052 78.8949 38.101 69.5731 37.3695 58.0909ZM43.2751 58.0909H68.5134C67.7946 68.2335 64.5062 76.5005 61.201 82.4373C59.3322 85.7934 57.4672 88.3872 56.0805 90.1301L55.8943 90.3631L55.7077 90.1301C54.3214 88.3872 52.456 85.7934 50.5876 82.4373C47.2819 76.5005 43.9936 68.2335 43.2751 58.0909ZM68.6219 51.9547H43.1665C43.5572 40.875 47.0625 31.8937 50.5876 25.5629C52.456 22.2069 54.3214 19.6128 55.7077 17.8698L55.8943 17.6369L56.0805 17.8698C57.4672 19.6128 59.3322 22.2069 61.201 25.5629C64.7257 31.8937 68.2314 40.875 68.6219 51.9547ZM74.4189 58.0909C73.6875 69.5731 69.9831 78.8949 66.2969 85.5157C64.765 88.2666 63.2314 90.5607 61.9047 92.3621C78.3838 89.582 91.2449 75.5577 92.9992 58.0909H74.4189ZM93.1526 51.9547H74.5165C74.1225 39.5311 70.1995 29.494 66.2969 22.4842C64.765 19.7335 63.2314 17.4395 61.9047 15.638C79.0223 18.5259 92.2363 33.5458 93.1526 51.9547Z" fill="white" fillOpacity="0.5" />
      </svg>