<svg width="81" height="80" viewBox="0 0 81 80" fill="none" xmlns="http://www.w3.org/2000/svg">
<path d="M76.4987 37.3451C76.4333 33.8541 73.6328 31.0058 70.3607 31.0058H67.2141C66.6316 31.0058 66.1594 31.5116 66.1594 32.1357C66.1594 32.7599 66.6316 33.2656 67.2141 33.2656H70.3607C72.5029 33.2656 74.348 35.1546 74.3898 37.3904C74.4112 38.5328 74.0125 39.6105 73.2672 40.4254C72.5216 41.2403 71.5243 41.6892 70.4593 41.6892C68.1802 41.6892 61.38 41.6892 59.0383 41.6892C58.4558 41.6892 57.9836 42.195 57.9836 42.8191C57.9836 43.4433 58.4558 43.949 59.0383 43.949H67.9663C69.0313 43.949 70.0284 44.3978 70.774 45.2129C71.5195 46.0276 71.9182 47.1056 71.8968 48.248C71.855 50.4839 70.0099 52.3728 67.8677 52.3728C66.216 52.3728 62.0203 52.3728 60.3733 52.3728C59.7908 52.3728 59.3186 52.8785 59.3186 53.5027C59.3186 54.1269 59.7908 54.6326 60.3733 54.6326H65.5118C66.5768 54.6326 67.574 55.0814 68.3196 55.8965C69.0649 56.711 69.4637 57.789 69.4423 58.9314C69.4006 61.1674 67.5554 63.0563 65.4133 63.0563H63.0381H60.3731C59.7907 63.0563 59.3184 63.5621 59.3184 64.1862C59.3184 64.8104 59.7907 65.3162 60.3731 65.3162H63.0381C65.238 65.3162 67.013 67.2464 66.9686 69.6148C66.9268 71.8508 65.0817 73.7397 62.9395 73.7397H44.3287C40.9022 73.7397 37.4532 72.9746 34.302 71.5233C37.4463 68.6961 39.4491 64.4568 39.4491 59.7252C39.4491 51.2337 33.0008 44.3252 25.0744 44.3252C22.9082 44.3252 20.8529 44.8423 19.009 45.7655V43.6898C19.009 43.0656 18.5368 42.5599 17.9543 42.5599C17.3718 42.5599 16.8996 43.0656 16.8996 43.6898V47.0655C13.1563 49.8484 10.6999 54.4848 10.6999 59.7252C10.6999 64.6025 12.8277 68.9567 16.1404 71.7805C15.5766 72.4575 14.7587 72.8653 13.8914 72.8653H9.61762C7.95895 72.8653 6.60938 71.4195 6.60938 69.6425V35.3031C6.60938 33.5261 7.95881 32.0803 9.61762 32.0803H13.8914C15.55 32.0803 16.8996 33.5261 16.8996 35.3031V38.4105C16.8996 39.0347 17.3718 39.5404 17.9543 39.5404C18.5368 39.5404 19.009 39.0347 19.009 38.4105V35.3031C19.009 35.1476 19.0014 34.9941 18.9896 34.8418C26.7605 31.6719 28.2056 26.9191 32.4643 23.4788L37.6114 19.3208C37.9354 19.0586 41.7679 15.0255 44.8805 9.13626C46.3522 6.352 49.6808 5.41975 52.2388 7.09383C54.4528 8.54328 55.5512 11.4588 54.0496 14.7863C53.9797 14.9372 51.272 20.7421 46.3839 25.9724L43.9545 28.5723C42.3408 30.3007 43.4853 33.2655 45.7689 33.2655H62.2841C62.8665 33.2655 63.3388 32.7597 63.3388 32.1356C63.3388 31.5114 62.8665 31.0057 62.2841 31.0057H45.7688C45.3604 31.0057 45.1555 30.4811 45.4455 30.1706L47.8745 27.5713C51.4301 23.7667 54.8693 18.2943 55.9208 15.8273C57.8939 12.088 56.7607 7.40614 53.3386 5.16559C49.7739 2.83164 45.1114 4.11327 43.0449 8.02277C41.2 11.5131 38.925 14.723 36.2822 17.5641L31.1943 21.6742C26.6737 25.3263 25.5728 29.6734 18.3791 32.6704C17.5082 30.9733 15.8234 29.8203 13.8916 29.8203H9.61762C6.7957 29.8205 4.5 32.2801 4.5 35.3031V69.6421C4.5 72.6651 6.7957 75.1247 9.61762 75.1247H13.8914C15.4586 75.1247 16.9291 74.3409 17.889 73.0586C20.0042 74.372 22.4588 75.1247 25.0746 75.1247C27.7059 75.1247 30.174 74.3625 32.2979 73.0345C36.1713 74.8776 39.7027 75.9991 44.3288 75.9991H62.9398C64.5185 75.9991 66.0305 75.3427 67.1972 74.1506C68.3783 72.944 69.0462 71.349 69.0778 69.6595C69.1106 67.905 68.4979 66.2495 67.3526 64.9977C67.3474 64.992 67.3422 64.9862 67.337 64.9807C69.6604 64.1495 71.4985 61.8077 71.5515 58.9763C71.5843 57.2218 70.9716 55.5661 69.8262 54.3143C69.8195 54.3069 69.8127 54.2995 69.8058 54.2923C72.1176 53.4584 73.9529 51.1238 74.0059 48.2932C74.0385 46.546 73.4311 44.897 72.295 43.6468C73.2233 43.3314 74.0711 42.7751 74.7737 42.0071C75.9189 40.7552 76.5316 39.0995 76.4987 37.3451ZM25.0744 72.8647C18.3113 72.8647 12.8091 66.9701 12.8091 59.7246C12.8091 52.4791 18.3112 46.5845 25.0744 46.5845C31.8375 46.5845 37.3396 52.4791 37.3396 59.7246C37.3396 66.9701 31.8375 72.8647 25.0744 72.8647Z" fill="white"></path>
<path d="M34.0976 56.6818C33.8873 55.9888 33.3126 55.5201 32.6331 55.4877L28.1592 55.2739L26.5871 50.7815C26.3483 50.0995 25.7546 49.6587 25.0745 49.6587C24.3946 49.6587 23.8007 50.0995 23.5621 50.7817L21.9899 55.2739L17.516 55.4877C16.8367 55.5201 16.2619 55.9888 16.0517 56.6818C15.8416 57.3746 16.0495 58.1159 16.5813 58.5698L20.0836 61.5598L18.8908 66.1844C18.7097 66.8866 18.9482 67.6171 19.4983 68.0453C20.0484 68.4734 20.7707 68.4907 21.3381 68.0892L25.0748 65.4448L28.8113 68.0892C29.0846 68.2827 29.3938 68.379 29.7022 68.379C30.0343 68.379 30.3658 68.2673 30.6511 68.0453C31.2012 67.6169 31.4396 66.8866 31.2585 66.1842L30.0657 61.5598L33.5678 58.5698C34.0997 58.1159 34.3077 57.3748 34.0976 56.6818ZM24.8022 65.2521L24.8034 65.2529C24.803 65.2526 24.8027 65.2524 24.8022 65.2521ZM28.4956 60.0108C27.9889 60.4436 27.7731 61.1558 27.9456 61.8249L28.8743 65.4255L25.9649 63.3665C25.424 62.9834 24.7249 62.9837 24.1842 63.3665L21.2747 65.4255L22.2034 61.8251C22.3762 61.1561 22.1603 60.4438 21.6532 60.0105L18.9262 57.6824L22.4098 57.5161C23.0571 57.4852 23.6225 57.0452 23.8502 56.3949L25.0744 52.897L26.2985 56.3952C26.5262 57.0452 27.0916 57.4852 27.7391 57.5161L31.2225 57.6824L28.4956 60.0108Z" fill="white"></path>
</svg>