<svg width="56" height="56" viewBox="0 0 56 56" fill="none" xmlns="http://www.w3.org/2000/svg">
<circle cx="28" cy="28" r="28" fill="url(#paint0_linear)"/>
<path d="M17.0133 38.0002C16.6074 38.0002 16.2448 37.9584 15.904 37.8724C15.5564 37.7844 15.221 37.6909 14.9397 37.5119C14.4681 37.2113 14.1233 36.9119 13.8543 36.5702C13.3975 35.9896 13.1293 35.308 13.0342 34.4867L13 34.1842V34.0673L13.0082 33.9965C13.0173 33.9177 13.0267 33.8388 13.0349 33.76C13.1267 32.8952 13.4223 32.1842 13.9387 31.5853C14.5014 30.9328 15.1387 30.5402 15.8872 30.3856C15.9527 30.3721 16.0177 30.3562 16.0826 30.3401C16.1414 30.3255 16.2003 30.311 16.2597 30.2994C16.5417 30.2431 16.7259 30.0133 16.7299 29.7136C16.7306 29.6644 16.7304 29.6149 16.7302 29.5653C16.7301 29.4481 16.7297 29.3375 16.742 29.2433C16.7754 28.9834 16.8268 28.724 16.8761 28.4803C16.9595 28.0699 17.0588 27.7733 17.1979 27.5188C17.5434 26.8869 17.96 26.3934 18.4715 26.0097C18.9433 25.6559 19.4683 25.4228 20.0759 25.2969L20.1404 25.2838C20.2396 25.2634 20.339 25.2431 20.4368 25.2173C20.6243 25.1678 20.7878 25.0157 20.8538 24.8301C21.0818 24.188 21.4492 23.5543 22.01 22.8358C22.2949 22.4711 22.5798 22.1789 22.8816 21.9425C23.1894 21.7013 23.5221 21.4471 23.8706 21.222C24.4046 20.8769 25.0086 20.6331 25.7169 20.4767L25.8811 20.4402C26.1698 20.3756 26.4424 20.3146 26.7166 20.2753C26.914 20.2471 27.1203 20.2334 27.3469 20.2334C27.4943 20.2334 27.647 20.2391 27.8139 20.2511C28.4806 20.2985 29.1904 20.4604 29.9833 20.7456C30.2375 20.837 30.5056 20.9664 30.8032 21.1409C31.6026 21.6102 32.2352 22.138 32.7368 22.7544C33.2073 23.3328 33.5563 23.884 33.8034 24.4393C34.0436 24.9792 34.19 25.5622 34.2909 26.0099C34.428 26.6192 34.4799 27.2639 34.4453 27.9267C34.4173 28.4615 34.3102 29.0301 34.098 29.7702C34.0809 29.8306 34.0631 29.8895 34.0443 29.9517L33.9068 30.409L34.351 30.6627C34.4049 30.693 34.4584 30.7228 34.5106 30.7551C35.0261 31.0737 35.4315 31.4563 35.7496 31.9241C36.0469 32.3622 36.2381 32.8346 36.3334 33.3685C36.3586 33.5098 36.3757 33.6564 36.3939 33.8118C36.4028 33.8897 36.412 33.9676 36.4221 34.0454C36.4254 34.0708 36.4293 34.0966 36.4333 34.1222C36.4298 34.1434 36.4263 34.1645 36.4236 34.1856C36.4118 34.2703 36.4007 34.3576 36.3898 34.4447C36.367 34.6239 36.3457 34.7936 36.316 34.9595C36.2334 35.4234 36.0628 35.8495 35.7946 36.2629C35.4335 36.8189 34.9677 37.2525 34.4102 37.5513C33.863 37.8447 33.2785 37.9938 32.673 37.9943C29.8902 37.9972 27.1074 37.9974 24.3245 37.9974C21.8892 37.9976 19.4537 37.9977 17.0185 37.9998H17.0133V38.0002Z" fill="white"/>
<path d="M43.7487 32.2606C43.7181 32.0264 43.6975 31.7906 43.656 31.5587C43.5493 30.961 43.3312 30.4142 42.9896 29.9111C42.6171 29.3629 42.1485 28.9357 41.5977 28.5953C41.5123 28.5426 41.424 28.4952 41.3358 28.4448C41.3615 28.3589 41.3857 28.2801 41.4084 28.2008C41.5922 27.5591 41.7404 26.909 41.7755 26.2384C41.8117 25.544 41.7619 24.8567 41.6088 24.1767C41.4799 23.6046 41.3263 23.0415 41.0886 22.5075C40.7962 21.85 40.4005 21.259 39.9503 20.7058C39.3687 19.9909 38.6615 19.4334 37.8802 18.975C37.5923 18.8062 37.2897 18.6533 36.9778 18.5411C36.2328 18.2732 35.4702 18.0756 34.6779 18.019C34.276 17.9903 33.8743 17.9901 33.477 18.0469C33.1292 18.0967 32.7852 18.179 32.4415 18.2548C31.7296 18.4121 31.0517 18.6683 30.434 19.0675C30.319 19.1418 30.2064 19.2204 30.0942 19.2999C30.2339 19.3445 30.3746 19.3913 30.5183 19.4429C30.8501 19.5624 31.1904 19.7255 31.5588 19.9416C32.4989 20.4935 33.2502 21.1232 33.8559 21.8675C34.4044 22.5418 34.8157 23.1948 35.1133 23.864C35.4037 24.5165 35.5729 25.1866 35.6879 25.6978C35.8536 26.4335 35.9166 27.2084 35.8753 28.0008C35.8412 28.6497 35.7153 29.2569 35.5839 29.7638C36.1289 30.1454 36.5742 30.5956 36.9392 31.1326C37.3437 31.7283 37.6142 32.3965 37.7431 33.1187C37.7758 33.303 37.7963 33.478 37.8161 33.6474C37.8245 33.7189 37.8327 33.7906 37.8421 33.8621L37.8668 34.0232V34.236L37.8428 34.3754C37.8312 34.4599 37.8208 34.5418 37.8106 34.6237C37.7866 34.8128 37.7617 35.0084 37.7256 35.21C37.6267 35.7655 37.4305 36.2985 37.1426 36.7973C37.9294 36.797 38.7162 36.7966 39.5029 36.7958C40.1942 36.7951 40.8581 36.623 41.4708 36.2947C42.1124 35.9506 42.6346 35.4604 43.0405 34.8349C43.3393 34.3745 43.5421 33.8793 43.6384 33.3376C43.6856 33.0737 43.7129 32.8062 43.7497 32.5404C43.7541 32.5085 43.7605 32.4768 43.7658 32.445V32.3738C43.7601 32.3361 43.7536 32.2985 43.7487 32.2606Z" fill="white"/>
<defs>
<linearGradient id="paint0_linear" x1="28" y1="56" x2="28" y2="0" gradientUnits="userSpaceOnUse">
<stop stop-color="#5558FF"/>
<stop offset="1" stop-color="#00C0FF"/>
</linearGradient>
</defs>
</svg>
