<svg className="svg-illustration svg-illustration--map" xmlns="http://www.w3.org/2000/svg" viewBox="0 0 928 454"><polygon className="fill-gray-darker" points="26 96 16 106 16 112 44 84 73 84 105 116 105 131 115 141 115 180 151 216 163 216 163 228 177 242 205 242 232 269 226 275 226 302 254 330 254 371 244 381 244 436 261 453 266 453 266 449 259 442 259 429 267 421 267 400 336 331 336 313 345 304 345 294 336 285 316 285 296 265 287 265 274 252 248 252 239 261 208 230 183 230 183 210 195 198 214 198 224 208 230 208 221 199 239 181 239 171 267 143 267 130 291 130 291 112 271 92 257 92 257 81 248 72 235 72 235 126 226 126 220 120 220 111 191 82 224 49 224 29 187 29 177 39 138 39 124 25 68 25 60 17 22 17 5 34 19 48 1 48 1 71 26 96"></polygon><polygon className="fill-gray-darker" points="733 379 753 379 763 369 785 369 805 389 818 389 833 374 833 344 800 311 800 328 789 317 763 317 744 336 733 336 733 379"></polygon><polygon className="fill-gray-darker" points="810 159 807 162 807 176 796 187 786 187 772 201 772 190 781 181 790 181 801 170 801 154 804 151 804 131 772 163 772 179 768 183 750 165 743 172 743 184 752 193 752 204 733 223 718 223 710 231 719 240 719 248 709 258 698 247 698 261 710 273 702 273 691 262 691 239 674 222 664 222 645 241 645 262 626 243 626 230 605 209 577 209 565 197 559 203 573 217 588 217 588 228 577 239 553 239 539 225 539 213 528 202 522 208 530 216 530 232 548 250 569 250 569 260 540 289 540 318 528 330 528 352 503 377 481 377 481 355 471 345 471 296 463 288 463 277 453 267 412 267 392 247 392 215 422 185 434 185 440 179 456 179 472 195 529 195 529 180 507 180 524 163 544 163 544 157 531 144 510 144 510 155 497 168 476 147 470 153 485 168 477 168 464 155 450 155 429 176 413 176 413 156 433 156 433 136 455 114 479 114 496 97 496 64 496 53 483 66 483 88 468 103 454 89 454 74 470 58 470 45 490 25 525 25 547 47 554 47 566 35 592 35 626 1 817 1 831 15 840 15 850 25 904 25 927 48 920 55 898 55 898 65 882 81 868 81 858 91 858 112 846 124 841 124 841 98 865 74 850 74 835 89 806 89 788 107 810 129 810 159"></polygon><polygon className="fill-gray-darker" points="565 312 549 328 549 345 555 351 561 345 561 335 565 331 565 312"></polygon><polygon className="fill-gray-darker" points="429 107 429 95 413 111 413 123 420 123 420 107 427 114 427 125 437 125 437 115 429 107"></polygon><polygon className="fill-gray-darker" points="884 373 884 380 889 385 889 397 885 397 868 414 870 416 875 416 900 391 900 385 896 385 884 373"></polygon><polygon className="fill-gray-darker" points="712 287 706 281 702 281 689 268 682 268 696 282 696 286 713 303 735 303 732 300 721 300 716 295 712 295 712 287"></polygon><polygon className="fill-gray-darker" points="720 275 727 275 739 263 742 266 742 281 733 290 725 290 720 285 720 275"></polygon><polygon className="fill-gray-darker" points="777 286 783 292 788 292 801 305 807 305 811.5 300.5 819 308 826 308 816 298 816 295 808 286.5 791 286.5 789.25 288.25 785 288.25 785 283 777 283 777 286"></polygon><polygon className="fill-gray-darker" points="742 302 742 304 744 304 747 306 750 304 753 304 755 302 742 302"></polygon><polygon className="fill-gray-darker" points="758 279 757 280 751 280 751 286 753 288 753 292 748 292 746 290 746 285 752 279 758 279"></polygon><polygon className="fill-gray-darker" points="764 290 773 290 772 289 764 289 764 290"></polygon><polygon className="fill-gray-darker" points="813 398 820 398 820 401 816 405 813 405 813 398"></polygon><polygon className="fill-gray-darker" points="218 222 229 222 235 228 242 228 244 226 236 226 230 220 220 220 218 222"></polygon><polygon className="fill-gray-darker" points="249 229 246 232 257 232 257 231 255 229 249 229"></polygon><polygon className="fill-gray-darker" points="745 252 741 256 741 257 745 253 745 252"></polygon><polygon className="fill-gray-darker" points="749 233 749 250 754 245 760 251 763 251 753 241 753 233 749 233"></polygon><polygon className="fill-gray-darker" points="752 254 754 252 757 255 757 258 759 260 763 256 763 264 761 266 755 260 753 262 753 261 756 258 752 254"></polygon><polygon className="fill-gray-darker" points="753 213 749 217 749 222 753 222 753 217 755 215 753 213"></polygon>
</svg>