<svg width="106" height="114" viewBox="0 0 106 114" fill="none" xmlns="http://www.w3.org/2000/svg">
<path d="M0.555907 68.6447L65.7636 0.28418L105.59 0.601448L0.19751 113.625L0.555907 68.6447Z" fill="#FD5386"/>
<path d="M13.0955 71.9142L19.526 74.6464L16.4884 68.3567L17.8108 66.9702L23.9844 72.8582L22.9654 73.9267L20.9301 71.9856L18.309 69.2834L21.3276 75.644L20.5956 76.4114L14.1076 73.6972L16.9266 76.1834L18.9619 78.1244L17.9428 79.193L11.7691 73.305L13.0955 71.9142ZM26.971 63.8688C27.5759 64.4457 28.0076 65.0571 28.266 65.7031C28.5216 66.3463 28.5864 66.9802 28.4603 67.6049C28.334 68.224 28.0296 68.7865 27.547 69.2925C27.0698 69.7929 26.5223 70.1236 25.9045 70.2846C25.2865 70.4402 24.6489 70.4097 23.9918 70.1932C23.3373 69.9738 22.7133 69.5839 22.1198 69.0232L21.7721 68.6916C21.17 68.1174 20.7397 67.5045 20.4811 66.8531C20.2253 66.1988 20.1604 65.5621 20.2867 64.943C20.4128 64.3184 20.7158 63.7544 21.1957 63.2513C21.6756 62.7481 22.2217 62.4188 22.8342 62.2634C23.4465 62.1025 24.0813 62.133 24.7386 62.3551C25.3931 62.5744 26.0227 62.9698 26.6275 63.5412L26.971 63.8688ZM25.6256 64.6342C24.9415 63.9818 24.2932 63.6117 23.6805 63.524C23.0705 63.4334 22.539 63.6256 22.0861 64.1005C21.644 64.5641 21.4799 65.1012 21.5938 65.7119C21.7076 66.317 22.0939 66.9392 22.7528 67.5784L23.109 67.9181C23.7874 68.5651 24.4372 68.9338 25.0582 69.0241C25.6819 69.1115 26.2175 68.9206 26.6651 68.4514C27.118 67.9765 27.2849 67.4393 27.1657 66.8398C27.0492 66.2375 26.6432 65.6047 25.9479 64.9415L25.6256 64.6342ZM32.4031 60.8473C32.1318 60.5885 31.8309 60.4851 31.5006 60.5372C31.173 60.5864 30.697 60.7883 30.0727 61.1429C29.4484 61.4975 28.9042 61.7342 28.4401 61.853C27.5502 62.0785 26.8212 61.9203 26.253 61.3784C25.7555 60.9039 25.5384 60.3109 25.6017 59.5994C25.6676 58.885 26.0093 58.2041 26.6267 57.5568C27.0365 57.1271 27.4809 56.8196 27.96 56.6342C28.4392 56.4487 28.9174 56.4001 29.3947 56.4883C29.8692 56.5737 30.2845 56.7863 30.6407 57.126L29.6216 58.1945C29.2993 57.8872 28.9507 57.749 28.5757 57.78C28.2005 57.8055 27.8337 58.0062 27.4751 58.3821C27.1408 58.7326 26.9556 59.0769 26.9194 59.4148C26.8859 59.7499 27.0034 60.0455 27.2719 60.3016C27.4981 60.5173 27.7872 60.5934 28.1393 60.5298C28.4887 60.4635 28.9646 60.2588 29.567 59.9157C30.1667 59.57 30.6972 59.3391 31.1587 59.2232C31.6173 59.1046 32.03 59.0907 32.3968 59.1815C32.7609 59.2695 33.1012 59.4646 33.4178 59.7665C33.9322 60.2572 34.1534 60.846 34.0813 61.5329C34.009 62.2143 33.6507 62.8927 33.0063 63.5683C32.5804 64.015 32.1061 64.3481 31.5836 64.5677C31.061 64.7817 30.5543 64.8545 30.0637 64.786C29.5757 64.7147 29.1381 64.4944 28.7508 64.125L29.7739 63.0523C30.1245 63.3866 30.5064 63.5295 30.9197 63.481C31.3329 63.4325 31.7458 63.192 32.1583 62.7596C32.5142 62.3864 32.7062 62.0351 32.7343 61.7057C32.7623 61.3707 32.6519 61.0846 32.4031 60.8473ZM34.8596 50.8261L33.0237 52.7511L38.3323 57.8141L37.3173 58.8784L32.0086 53.8154L30.1889 55.7235L29.3239 54.8985L33.9946 50.0011L34.8596 50.8261ZM41.4937 49.9064L43.7876 52.0942L42.7645 53.1669L36.5908 47.279L38.8433 44.9172C39.5011 44.2275 40.2023 43.8517 40.9468 43.7899C41.694 43.7252 42.363 43.9746 42.9538 44.538C43.5588 45.115 43.8394 45.7631 43.7956 46.4825C43.7546 47.1991 43.393 47.915 42.7109 48.6301L41.4937 49.9064ZM40.6329 49.0855L41.8623 47.7965C42.2263 47.4149 42.4149 47.0388 42.4282 46.6683C42.4387 46.295 42.2744 45.9466 41.9352 45.6231C41.6016 45.305 41.2388 45.1533 40.8468 45.1682C40.452 45.1803 40.082 45.3617 39.7366 45.7125L38.4789 47.0312L40.6329 49.0855ZM49.8354 39.895C50.4403 40.4719 50.872 41.0834 51.1305 41.7293C51.3861 42.3725 51.4508 43.0064 51.3247 43.6311C51.1984 44.2502 50.894 44.8128 50.4115 45.3188C49.9343 45.8191 49.3868 46.1498 48.7689 46.3109C48.151 46.4664 47.5134 46.4359 46.8562 46.2194C46.2017 46.0001 45.5777 45.6101 44.9843 45.0494L44.6366 44.7178C44.0345 44.1436 43.6041 43.5308 43.3456 42.8793C43.0897 42.225 43.0249 41.5883 43.1511 40.9692C43.2772 40.3446 43.5802 39.7807 44.0601 39.2775C44.54 38.7743 45.0862 38.445 45.6986 38.2896C46.3109 38.1287 46.9457 38.1593 47.603 38.3813C48.2575 38.6006 48.8872 38.996 49.492 39.5674L49.8354 39.895ZM48.49 40.6604C47.806 40.008 47.1576 39.6379 46.5449 39.5502C45.9349 39.4597 45.4035 39.6518 44.9505 40.1267C44.5084 40.5903 44.3443 41.1274 44.4582 41.7381C44.572 42.3433 44.9584 42.9654 45.6173 43.6046L45.9734 43.9443C46.6519 44.5914 47.3016 44.96 47.9226 45.0503C48.5464 45.1378 49.082 44.9469 49.5295 44.4776C49.9824 44.0027 50.1493 43.4655 50.0301 42.866C49.9136 42.2637 49.5077 41.631 48.8123 40.9677L48.49 40.6604ZM52.5094 38.3563L54.8033 40.544L53.7802 41.6168L47.6065 35.7288L49.859 33.3671C50.5168 32.6773 51.218 32.3015 51.9625 32.2397C52.7097 32.175 53.3787 32.4244 53.9695 32.9879C54.5745 33.5648 54.855 34.213 54.8113 34.9324C54.7702 35.6489 54.4087 36.3648 53.7266 37.08L52.5094 38.3563ZM51.6486 37.5353L52.878 36.2463C53.2419 35.8647 53.4306 35.4886 53.4439 35.1181C53.4544 34.7449 53.2901 34.3965 52.9508 34.073C52.6173 33.7548 52.2545 33.6032 51.8625 33.618C51.4677 33.6301 51.0976 33.8116 50.7523 34.1623L49.4946 35.481L51.6486 37.5353ZM57.2109 25.6585L61.3365 29.5932C61.9924 30.2187 62.3116 30.9253 62.2944 31.7132C62.277 32.4955 61.9353 33.2358 61.2694 33.934C60.5954 34.6407 59.8723 35.0225 59.1001 35.0795C58.325 35.1337 57.6024 34.8414 56.9325 34.2025L52.8111 30.2717L53.8302 29.2032L57.9601 33.142C58.3728 33.5356 58.7877 33.7316 59.2049 33.7301C59.622 33.7285 60.0247 33.5241 60.4129 33.1171C61.2001 32.2917 61.1584 31.4638 60.2878 30.6334L56.1918 26.727L57.2109 25.6585ZM64.6471 28.5077L67.3201 25.705L68.1766 26.5219L64.4804 30.3974L58.3068 24.5094L59.3299 23.4366L64.6471 28.5077ZM70.9004 20.7879L68.6196 23.1793L69.5799 25.0505L68.5163 26.1657L64.5668 17.9456L65.4848 16.9831L73.8867 20.5348L72.8191 21.6542L70.9004 20.7879ZM68.0418 22.0533L69.7483 20.264L66.334 18.7161L68.0418 22.0533ZM74.3427 15.2938L73.2023 16.4895L75.5811 18.7582L74.5579 19.8309L68.3843 13.9429L70.4548 11.772C71.1342 11.0596 71.8182 10.6622 72.507 10.5795C73.1958 10.4969 73.8426 10.7441 74.4476 11.321C74.8603 11.7146 75.1108 12.1452 75.1993 12.6128C75.2876 13.0749 75.2368 13.5555 75.0469 14.0545L78.9431 15.1227L78.9982 15.1752L77.9023 16.3243L74.3427 15.2938ZM72.3416 15.6686L73.393 14.5662C73.7381 14.2043 73.9172 13.8354 73.9304 13.4593C73.9408 13.0806 73.7877 12.7402 73.4711 12.4383C73.1404 12.1228 72.7942 11.9735 72.4327 11.9904C72.0738 12.0044 71.7137 12.1953 71.3521 12.563L70.2724 13.6952L72.3416 15.6686Z" fill="white"/>
</svg>
