<svg width="81" height="80" viewBox="0 0 81 80" fill="none" xmlns="http://www.w3.org/2000/svg">
<path d="M40.9375 61.25C52.655 61.25 62.1875 51.7175 62.1875 40C62.1875 28.2825 52.655 18.75 40.9375 18.75C29.22 18.75 19.6875 28.2825 19.6875 40C19.6875 51.7175 29.22 61.25 40.9375 61.25ZM40.9375 21.25C51.2762 21.25 59.6875 29.6613 59.6875 40C59.6875 50.3387 51.2762 58.75 40.9375 58.75C30.5988 58.75 22.1875 50.3387 22.1875 40C22.1875 29.6613 30.5988 21.25 40.9375 21.25Z" fill="white"></path>
<path d="M48.4375 48.75H53.4375C54.1275 48.75 54.6875 48.19 54.6875 47.5V31.25C54.6875 30.56 54.1275 30 53.4375 30H48.4375C47.7475 30 47.1875 30.56 47.1875 31.25V47.5C47.1875 48.19 47.7475 48.75 48.4375 48.75ZM49.6875 32.5H52.1875V46.25H49.6875V32.5Z" fill="white"></path>
<path d="M38.4375 48.75H43.4375C44.1275 48.75 44.6875 48.19 44.6875 47.5V35C44.6875 34.31 44.1275 33.75 43.4375 33.75H38.4375C37.7475 33.75 37.1875 34.31 37.1875 35V47.5C37.1875 48.19 37.7475 48.75 38.4375 48.75ZM39.6875 36.25H42.1875V46.25H39.6875V36.25Z" fill="white"></path>
<path d="M33.4375 48.75C34.1275 48.75 34.6875 48.19 34.6875 47.5V40C34.6875 39.31 34.1275 38.75 33.4375 38.75H28.4375C27.7475 38.75 27.1875 39.31 27.1875 40V47.5C27.1875 48.19 27.7475 48.75 28.4375 48.75H33.4375ZM29.6875 41.25H32.1875V46.25H29.6875V41.25Z" fill="white"></path>
<path d="M15.7837 32.2247C15.5387 33.0747 14.9213 33.7347 14.1313 33.9909L10.7812 35.0797C10.3175 35.2309 9.985 35.6359 9.92625 36.1197C9.7675 37.4459 9.6875 38.7509 9.6875 39.9997C9.6875 41.2484 9.7675 42.5534 9.9275 43.8797C9.985 44.3634 10.3187 44.7684 10.7825 44.9197L14.1325 46.0084C14.9225 46.2647 15.54 46.9259 15.785 47.7759C15.9063 48.1959 16.0375 48.6122 16.1775 49.0247C16.4675 49.8797 16.3375 50.8159 15.8275 51.5284L13.83 54.3209C13.5488 54.7147 13.5187 55.2347 13.755 55.6584C15.0312 57.9397 16.5888 60.0609 18.3825 61.9634C18.7225 62.3247 19.2413 62.4484 19.7063 62.2847L22.7275 61.2234C23.4987 60.9534 24.3537 61.1059 25.0138 61.6309C25.3438 61.8934 25.68 62.1484 26.0212 62.3947C26.7237 62.8997 27.1362 63.7297 27.1263 64.6147L27.0913 67.6659C27.0863 68.1559 27.3662 68.6034 27.8088 68.8122C30.1962 69.9372 32.7275 70.7509 35.33 71.2309C35.4037 71.2434 35.4788 71.2497 35.5538 71.2497C35.9625 71.2497 36.3512 71.0484 36.5862 70.7034L38.2038 68.3309C38.6825 67.6284 39.4713 67.2547 40.2938 67.2409C40.7213 67.2522 41.1512 67.2522 41.5812 67.2409C42.4137 67.1947 43.1912 67.6284 43.67 68.3309L45.2863 70.7034C45.565 71.1134 46.0575 71.3197 46.5462 71.2284C49.1488 70.7484 51.6788 69.9347 54.0675 68.8097C54.51 68.6009 54.79 68.1534 54.785 67.6647L54.75 64.6134C54.74 63.7284 55.1525 62.8984 55.8537 62.3934C56.195 62.1472 56.5312 61.8934 56.8612 61.6309C57.5212 61.1059 58.375 60.9509 59.1488 61.2234L62.17 62.2847C62.635 62.4472 63.155 62.3234 63.4937 61.9634C65.2875 60.0622 66.8437 57.9409 68.12 55.6584C68.3562 55.2359 68.3275 54.7147 68.0462 54.3209L66.0488 51.5284C65.5387 50.8159 65.4075 49.8797 65.6987 49.0247C65.8387 48.6122 65.97 48.1959 66.0913 47.7759C66.3363 46.9259 66.9538 46.2659 67.7438 46.0097L71.0938 44.9209C71.5575 44.7697 71.89 44.3647 71.9487 43.8809C72.1075 42.5534 72.1875 41.2484 72.1875 39.9997C72.1875 38.7509 72.1075 37.4459 71.9475 36.1197C71.89 35.6359 71.5563 35.2309 71.0925 35.0797L67.7425 33.9909C66.9525 33.7347 66.335 33.0734 66.09 32.2234C65.9688 31.8034 65.8375 31.3872 65.6975 30.9747C65.4075 30.1197 65.5375 29.1834 66.0475 28.4709L68.045 25.6784C68.3263 25.2847 68.3562 24.7647 68.12 24.3409C66.8437 22.0597 65.2862 19.9384 63.4925 18.0359C63.1537 17.6759 62.6325 17.5497 62.1688 17.7147L59.1475 18.7759C58.3775 19.0484 57.5225 18.8947 56.8612 18.3684C56.5312 18.1059 56.195 17.8509 55.8537 17.6047C55.1512 17.0997 54.7388 16.2697 54.7487 15.3847L54.7837 12.3334C54.7887 11.8434 54.5087 11.3959 54.0662 11.1872C51.6787 10.0622 49.1475 9.24841 46.545 8.76841C46.06 8.68091 45.5638 8.88591 45.2863 9.29341L43.6688 11.6659C43.19 12.3684 42.4175 12.7584 41.5788 12.7559C41.1513 12.7447 40.7213 12.7447 40.2913 12.7559C39.4325 12.7759 38.6812 12.3684 38.2025 11.6659L36.5862 9.29341C36.3075 8.88466 35.8162 8.67841 35.3263 8.76841C32.7237 9.24841 30.1937 10.0622 27.805 11.1872C27.3625 11.3959 27.0825 11.8434 27.0875 12.3322L27.1225 15.3834C27.1325 16.2684 26.72 17.0984 26.0188 17.6034C25.6775 17.8497 25.3413 18.1034 25.0113 18.3659C24.3513 18.8909 23.4963 19.0434 22.7238 18.7734L19.7025 17.7122C19.2362 17.5484 18.7175 17.6747 18.3787 18.0334C16.585 19.9347 15.0287 22.0559 13.7525 24.3384C13.5162 24.7609 13.545 25.2822 13.8263 25.6759L15.8238 28.4684C16.3338 29.1809 16.4637 30.1172 16.1725 30.9722C16.0375 31.3884 15.9062 31.8047 15.7837 32.2247ZM17.8612 27.0184L16.3312 24.8797C17.2912 23.2659 18.4062 21.7472 19.655 20.3472L21.8975 21.1347C23.4862 21.6922 25.2325 21.3884 26.57 20.3247C26.8688 20.0872 27.1725 19.8572 27.4813 19.6347C28.8425 18.6534 29.6437 17.0547 29.6237 15.3572L29.5975 13.1209C31.3287 12.3647 33.135 11.7834 34.985 11.3872L36.135 13.0759C37.095 14.4847 38.68 15.2922 40.3525 15.2572C40.7412 15.2484 41.1325 15.2484 41.5175 15.2572C43.21 15.3109 44.7763 14.4847 45.735 13.0759L46.8875 11.3872C48.7387 11.7834 50.545 12.3647 52.2762 13.1209L52.25 15.3572C52.2313 17.0547 53.0325 18.6534 54.3937 19.6347C54.7025 19.8572 55.0062 20.0872 55.305 20.3247C56.6437 21.3897 58.39 21.6934 59.9788 21.1347L62.2213 20.3472C63.4713 21.7472 64.585 23.2672 65.545 24.8797L64.015 27.0172C63.0375 28.3834 62.7825 30.1634 63.3325 31.7797C63.46 32.1559 63.5788 32.5347 63.69 32.9184C64.165 34.5659 65.3925 35.8559 66.9712 36.3697L69.5512 37.2072C69.6412 38.1622 69.6875 39.0984 69.6875 39.9997C69.6875 40.9009 69.6413 41.8372 69.55 42.7922L66.9712 43.6297C65.3913 44.1422 64.165 45.4322 63.6888 47.0809C63.5788 47.4647 63.4588 47.8434 63.3313 48.2184C62.7812 49.8334 63.0375 51.6147 64.0137 52.9809L65.5425 55.1197C64.5825 56.7334 63.4675 58.2522 62.2188 59.6522L59.9762 58.8647C58.385 58.3059 56.6413 58.6097 55.3037 59.6747C55.005 59.9122 54.7012 60.1422 54.3925 60.3647C53.0312 61.3459 52.23 62.9447 52.25 64.6422L52.2762 66.8784C50.545 67.6347 48.7388 68.2159 46.8888 68.6122L45.7388 66.9234C44.8025 65.5497 43.28 64.7409 41.6475 64.7409C41.605 64.7409 41.5637 64.7409 41.5212 64.7422C41.1325 64.7509 40.7412 64.7509 40.3563 64.7422C38.6537 64.7034 37.0975 65.5147 36.1387 66.9234L34.9875 68.6122C33.1362 68.2159 31.33 67.6347 29.5988 66.8784L29.625 64.6422C29.6438 62.9447 28.8425 61.3459 27.4813 60.3647C27.1725 60.1422 26.8688 59.9122 26.57 59.6747C25.2313 58.6097 23.485 58.3047 21.8962 58.8647L19.6537 59.6522C18.4037 58.2522 17.29 56.7322 16.33 55.1197L17.86 52.9822C18.8375 51.6159 19.0925 49.8359 18.5425 48.2197C18.415 47.8434 18.2963 47.4647 18.185 47.0809C17.71 45.4334 16.4825 44.1434 14.9038 43.6297L12.3238 42.7922C12.2338 41.8372 12.1875 40.9009 12.1875 39.9997C12.1875 39.0984 12.2337 38.1622 12.325 37.2072L14.905 36.3697C16.485 35.8559 17.7112 34.5659 18.1862 32.9184C18.2962 32.5347 18.4163 32.1559 18.5437 31.7809C19.0938 30.1659 18.8387 28.3847 17.8612 27.0184Z" fill="white"></path>
<path d="M78.0423 25.0638L75.6485 25.8612C69.931 11.8437 56.1598 2.5 40.9373 2.5C25.276 2.5 11.126 12.3738 5.72852 27.0688L8.07477 27.93C13.1135 14.215 26.3198 5 40.9373 5C55.091 5 67.8998 13.6538 73.2735 26.6537L70.5423 27.5638C70.1085 27.7088 69.7873 28.08 69.7073 28.53C69.6273 28.9812 69.7998 29.44 70.1573 29.7262L76.4073 34.7262C76.6323 34.9062 76.9073 35 77.1873 35C77.3385 35 77.4898 34.9738 77.6335 34.9175C78.0473 34.7588 78.3473 34.3925 78.4198 33.955L79.6698 26.455C79.7423 26.0225 79.5823 25.5837 79.2485 25.2987C78.9148 25.0138 78.4573 24.9237 78.0423 25.0638ZM76.3048 31.4425L73.5123 29.2088L76.8635 28.0925L76.3048 31.4425Z" fill="white"></path>
<path d="M3.64389 53.7325L5.90389 53.3562C11.4189 67.8125 25.4314 77.5 40.9376 77.5C56.5989 77.5 70.7489 67.6262 76.1464 52.9312L73.8001 52.07C68.7614 65.785 55.5551 75 40.9376 75C26.6339 75 13.7026 66.165 8.43139 52.935L11.1426 52.4825C11.5801 52.41 11.9464 52.11 12.1051 51.6962C12.2626 51.2812 12.1901 50.815 11.9139 50.4687L6.91389 44.2187C6.62764 43.86 6.16764 43.685 5.71764 43.7687C5.26764 43.8487 4.89639 44.17 4.75139 44.6037L2.25139 52.1037C2.11264 52.52 2.20139 52.9775 2.48639 53.3112C2.72764 53.5925 3.07514 53.75 3.43764 53.75C3.50639 53.75 3.57389 53.745 3.64389 53.7325ZM6.39639 47.575L8.63014 50.3675L5.28014 50.9262L6.39639 47.575Z" fill="white"></path>
</svg>