<svg width="24" height="24" viewBox="0 0 24 24" fill="none" xmlns="http://www.w3.org/2000/svg">
<path fillRule="evenodd" clipRule="evenodd" d="M11.9999 4C12.457 4 12.8275 4.37052 12.8275 4.82759V11.1724H19.1724C19.6295 11.1724 20 11.5429 20 12C20 12.4571 19.6295 12.8276 19.1724 12.8276H12.8275V19.1724C12.8275 19.6295 12.457 20 11.9999 20C11.5428 20 11.1723 19.6295 11.1723 19.1724V12.8276H4.82759C4.37052 12.8276 4 12.4571 4 12C4 11.5429 4.37052 11.1724 4.82759 11.1724H11.1723V4.82759C11.1723 4.37052 11.5428 4 11.9999 4Z" fill="white"/>
</svg>
