<svg width="81" height="80" viewBox="0 0 81 80" fill="none" xmlns="http://www.w3.org/2000/svg">
<path d="M45.9375 78.7497H35.9375C35.6232 78.7508 35.32 78.6334 35.0884 78.421C34.8567 78.2086 34.7136 77.9167 34.6875 77.6034L34.1875 71.5497C32.2748 71.0163 30.4335 70.2536 28.7038 69.2784L24.0688 73.2047C23.8294 73.4076 23.5224 73.5131 23.2088 73.5001C22.8953 73.4871 22.5981 73.3567 22.3763 73.1347L15.3013 66.0597C15.0793 65.8379 14.9488 65.5407 14.9359 65.2271C14.9229 64.9135 15.0283 64.6066 15.2313 64.3672L19.1575 59.7322C18.1832 58.0027 17.4214 56.1619 16.8888 54.2497L10.8338 53.7497C10.5205 53.7236 10.2286 53.5805 10.0162 53.3488C9.80378 53.1172 9.68642 52.814 9.68751 52.4997V42.4997C9.68642 42.1854 9.80378 41.8822 10.0162 41.6505C10.2286 41.4189 10.5205 41.2758 10.8338 41.2497L16.8888 40.7497C17.422 38.8365 18.1846 36.9948 19.16 35.2647L15.2338 30.6297C15.0308 30.3903 14.9254 30.0833 14.9384 29.7698C14.9513 29.4562 15.0818 29.159 15.3038 28.9372L22.3788 21.8622C22.6004 21.6404 22.8972 21.5099 23.2105 21.4967C23.5238 21.4835 23.8305 21.5885 24.07 21.7909L28.045 25.1534C28.1741 25.2582 28.281 25.3877 28.3594 25.5343C28.4378 25.6809 28.4862 25.8416 28.5017 26.0072C28.5172 26.1727 28.4996 26.3396 28.4498 26.4983C28.4 26.6569 28.3191 26.804 28.2117 26.9309C28.1044 27.0579 27.9728 27.1622 27.8247 27.2376C27.6766 27.3131 27.5149 27.3583 27.3491 27.3705C27.1833 27.3827 27.0167 27.3618 26.8591 27.3088C26.7015 27.2559 26.556 27.172 26.4313 27.0622L23.3338 24.4372L17.8863 29.8847L21.6363 34.3184C21.8067 34.5193 21.9094 34.7688 21.9296 35.0314C21.9498 35.2941 21.8865 35.5564 21.7488 35.7809C20.5285 37.7695 19.63 39.9383 19.0863 42.2072C19.0246 42.4628 18.8838 42.6924 18.6841 42.8634C18.4844 43.0344 18.2358 43.1381 17.9738 43.1597L12.1875 43.6497V51.3497L17.9788 51.8297C18.2408 51.8513 18.4894 51.9549 18.6891 52.1259C18.8888 52.297 19.0296 52.5266 19.0913 52.7822C19.635 55.0511 20.5335 57.2199 21.7538 59.2084C21.8915 59.433 21.9548 59.6953 21.9346 59.9579C21.9144 60.2206 21.8117 60.4701 21.6413 60.6709L17.8913 65.1047L23.3375 70.5522L27.7725 66.8022C27.9735 66.6319 28.2231 66.5295 28.4857 66.5095C28.7484 66.4895 29.0106 66.553 29.235 66.6909C31.2235 67.9114 33.3923 68.81 35.6613 69.3534C35.9169 69.4151 36.1465 69.5559 36.3175 69.7556C36.4885 69.9553 36.5922 70.2039 36.6138 70.4659L37.0888 76.2497H44.7863L45.2675 70.4597C45.2891 70.1976 45.3928 69.9491 45.5638 69.7493C45.7348 69.5496 45.9644 69.4089 46.22 69.3472C48.489 68.8037 50.6578 67.9051 52.6463 66.6847C52.8707 66.5468 53.1329 66.4833 53.3955 66.5033C53.6582 66.5232 53.9078 66.6257 54.1088 66.7959L58.5438 70.5459L63.99 65.0984L60.24 60.6647C60.0696 60.4639 59.9669 60.2143 59.9467 59.9517C59.9265 59.689 59.9898 59.4267 60.1275 59.2022C61.3477 57.2136 62.2463 55.0448 62.79 52.7759C62.8517 52.5203 62.9924 52.2907 63.1922 52.1197C63.3919 51.9487 63.6405 51.845 63.9025 51.8234L69.6875 51.3497V43.6497L63.8963 43.1697C63.6342 43.1481 63.3856 43.0444 63.1859 42.8734C62.9862 42.7024 62.8455 42.4728 62.7838 42.2172C62.24 39.9483 61.3415 37.7795 60.1213 35.7909C59.9835 35.5664 59.9202 35.3041 59.9404 35.0414C59.9606 34.7788 60.0633 34.5293 60.2338 34.3284L63.9838 29.8947L58.5363 24.4472L55.4388 27.0722C55.314 27.182 55.1685 27.2659 55.0109 27.3188C54.8533 27.3718 54.6868 27.3927 54.521 27.3805C54.3552 27.3683 54.1935 27.3231 54.0453 27.2476C53.8972 27.1722 53.7656 27.0679 53.6583 26.9409C53.551 26.814 53.47 26.6669 53.4202 26.5083C53.3704 26.3496 53.3528 26.1827 53.3683 26.0172C53.3838 25.8516 53.4322 25.6909 53.5106 25.5443C53.5891 25.3977 53.6959 25.2682 53.825 25.1634L57.8 21.8009C58.0395 21.5985 58.3463 21.4935 58.6595 21.5067C58.9728 21.5199 59.2697 21.6504 59.4913 21.8722L66.5663 28.9472C66.7883 29.169 66.9187 29.4662 66.9317 29.7798C66.9446 30.0933 66.8392 30.4003 66.6363 30.6397L62.71 35.2747C63.6864 37.0014 64.4507 38.8397 64.9863 40.7497L71.0413 41.2497C71.3545 41.2758 71.6464 41.4189 71.8588 41.6505C72.0712 41.8822 72.1886 42.1854 72.1875 42.4997V52.4997C72.1886 52.814 72.0712 53.1172 71.8588 53.3488C71.6464 53.5805 71.3545 53.7236 71.0413 53.7497L64.9863 54.2497C64.453 56.1629 63.6904 58.0046 62.715 59.7347L66.6413 64.3697C66.8442 64.6091 66.9496 64.916 66.9367 65.2296C66.9237 65.5432 66.7933 65.8404 66.5713 66.0622L59.4963 73.1372C59.2744 73.3592 58.9772 73.4896 58.6637 73.5026C58.3501 73.5156 58.0432 73.4101 57.8038 73.2072L53.1688 69.2809C51.4396 70.2547 49.5992 71.016 47.6875 71.5484L47.1875 77.6034C47.1614 77.9167 47.0183 78.2086 46.7866 78.421C46.555 78.6334 46.2518 78.7508 45.9375 78.7497Z" fill="white"></path>
<path d="M40.9375 58.7495C38.5073 58.748 36.1429 57.9595 34.1981 56.5021C32.2534 55.0448 30.8328 52.9968 30.1491 50.6648C29.4653 48.3327 29.5551 45.842 30.4049 43.5652C31.2548 41.2884 32.8191 39.3481 34.8638 38.0345C35.0021 37.946 35.1564 37.8856 35.3181 37.8568C35.4797 37.828 35.6454 37.8313 35.8058 37.8665C35.9661 37.9017 36.118 37.9682 36.2526 38.0621C36.3873 38.156 36.5022 38.2756 36.5906 38.4139C36.6791 38.5522 36.7395 38.7065 36.7683 38.8682C36.7971 39.0298 36.7938 39.1955 36.7586 39.3559C36.7234 39.5162 36.6569 39.6681 36.563 39.8027C36.4691 39.9374 36.3496 40.0523 36.2113 40.1407C34.62 41.1622 33.4025 42.6717 32.741 44.4432C32.0795 46.2146 32.0097 48.1527 32.542 49.9671C33.0742 51.7816 34.18 53.3748 35.6936 54.5082C37.2072 55.6415 39.0472 56.2541 40.9381 56.2541C42.829 56.2541 44.6691 55.6415 46.1827 54.5082C47.6963 53.3748 48.802 51.7816 49.3343 49.9671C49.8666 48.1527 49.7967 46.2146 49.1353 44.4432C48.4738 42.6717 47.2563 41.1622 45.665 40.1407C45.5267 40.0523 45.4072 39.9374 45.3133 39.8027C45.2194 39.6681 45.1529 39.5162 45.1177 39.3559C45.0824 39.1955 45.0791 39.0298 45.108 38.8682C45.1368 38.7065 45.1972 38.5522 45.2856 38.4139C45.3741 38.2756 45.489 38.156 45.6236 38.0621C45.7583 37.9682 45.9101 37.9017 46.0705 37.8665C46.2308 37.8313 46.3966 37.828 46.5582 37.8568C46.7198 37.8856 46.8742 37.946 47.0125 38.0345C49.0572 39.3481 50.6216 41.2886 51.4714 43.5655C52.3213 45.8424 52.411 48.3333 51.727 50.6654C51.0431 52.9975 49.6223 55.0454 47.6774 56.5027C45.7324 57.96 43.3678 58.7482 40.9375 58.7495Z" fill="white"></path>
<path d="M40.9375 43.7498C40.7538 43.7497 40.5725 43.7092 40.4063 43.631C39.8125 43.3548 25.9375 36.7048 25.9375 24.9998C25.9375 13.4998 39.5625 2.02227 40.1375 1.53852C40.362 1.35176 40.6448 1.24951 40.9369 1.24951C41.2289 1.24951 41.5117 1.35176 41.7362 1.53852C42.3125 2.02227 55.9375 13.4998 55.9375 24.9998C55.9375 36.7048 42.0625 43.3548 41.4687 43.631C41.3025 43.7092 41.1212 43.7497 40.9375 43.7498ZM40.9375 4.16602C38.0625 6.77477 28.4375 16.1723 28.4375 24.9998C28.4375 33.9235 38.4888 39.7985 40.9375 41.0973C43.3862 39.7985 53.4375 33.9235 53.4375 24.9998C53.4375 16.1723 43.8125 6.77477 40.9375 4.16602Z" fill="white"></path>
<path d="M40.9375 48.75C40.606 48.75 40.288 48.6183 40.0536 48.3839C39.8192 48.1495 39.6875 47.8315 39.6875 47.5V15C39.6875 14.6685 39.8192 14.3505 40.0536 14.1161C40.288 13.8817 40.606 13.75 40.9375 13.75C41.269 13.75 41.587 13.8817 41.8214 14.1161C42.0558 14.3505 42.1875 14.6685 42.1875 15V47.5C42.1875 47.8315 42.0558 48.1495 41.8214 48.3839C41.587 48.6183 41.269 48.75 40.9375 48.75Z" fill="white"></path>
<path d="M40.9375 32.4998C40.606 32.4997 40.2881 32.368 40.0538 32.1335L33.8038 25.8835C33.5761 25.6478 33.4501 25.332 33.4529 25.0043C33.4558 24.6765 33.5872 24.363 33.819 24.1313C34.0508 23.8995 34.3643 23.768 34.692 23.7652C35.0198 23.7623 35.3355 23.8883 35.5713 24.116L41.8213 30.366C41.996 30.5408 42.115 30.7635 42.1633 31.006C42.2115 31.2484 42.1867 31.4997 42.0921 31.7281C41.9975 31.9565 41.8374 32.1517 41.6319 32.289C41.4263 32.4264 41.1847 32.4997 40.9375 32.4998Z" fill="white"></path>
<path d="M40.9375 26.2498C40.6903 26.2497 40.4487 26.1764 40.2432 26.039C40.0376 25.9017 39.8775 25.7065 39.7829 25.4781C39.6883 25.2497 39.6635 24.9984 39.7117 24.756C39.76 24.5136 39.879 24.2908 40.0537 24.116L46.3037 17.866C46.5395 17.6383 46.8552 17.5123 47.183 17.5152C47.5107 17.518 47.8242 17.6495 48.056 17.8813C48.2878 18.113 48.4192 18.4265 48.4221 18.7543C48.4249 19.082 48.2989 19.3978 48.0712 19.6335L41.8212 25.8835C41.5869 26.118 41.269 26.2497 40.9375 26.2498Z" fill="white"></path>
<path d="M40.9374 63.75C37.5472 63.7515 34.2414 62.6926 31.4829 60.7216C28.7245 58.7506 26.6516 55.9663 25.5545 52.7584C24.4574 49.5506 24.3911 46.0799 25.3649 42.8325C26.3387 39.5852 28.3038 36.7236 30.9849 34.6488C31.1147 34.5482 31.263 34.4742 31.4214 34.431C31.5797 34.3878 31.745 34.3761 31.9079 34.3968C32.0707 34.4175 32.2279 34.47 32.3705 34.5514C32.513 34.6328 32.6381 34.7415 32.7387 34.8713C32.8392 35.001 32.9132 35.1493 32.9565 35.3077C32.9997 35.466 33.0113 35.6314 32.9906 35.7942C32.97 35.9571 32.9175 36.1143 32.836 36.2568C32.7546 36.3994 32.6459 36.5245 32.5162 36.625C30.2496 38.3813 28.5887 40.8023 27.7661 43.5492C26.9434 46.2961 27.0001 49.2314 27.9282 51.9445C28.8564 54.6576 30.6094 57.0126 32.9422 58.68C35.2749 60.3475 38.0706 61.244 40.9381 61.244C43.8055 61.244 46.6012 60.3475 48.9339 58.68C51.2667 57.0126 53.0198 54.6576 53.9479 51.9445C54.876 49.2314 54.9327 46.2961 54.11 43.5492C53.2874 40.8023 51.6266 38.3813 49.3599 36.625C49.2301 36.5245 49.1213 36.3993 49.0398 36.2568C48.9584 36.1142 48.9057 35.9569 48.885 35.794C48.8643 35.6311 48.8759 35.4657 48.9191 35.3073C48.9623 35.1489 49.0363 35.0005 49.1368 34.8706C49.2374 34.7408 49.3625 34.632 49.5051 34.5505C49.6476 34.4691 49.8049 34.4165 49.9678 34.3957C50.1307 34.375 50.2961 34.3866 50.4545 34.4298C50.613 34.473 50.7613 34.547 50.8912 34.6475C53.5729 36.7223 55.5385 39.584 56.5126 42.8318C57.4866 46.0795 57.4204 49.5506 56.3231 52.7588C55.2258 55.967 53.1525 58.7516 50.3935 60.7226C47.6345 62.6935 44.3281 63.7521 40.9374 63.75Z" fill="white"></path>
</svg>