   <svg width="20" height="20" viewBox="0 0 20 20" fill="none" xmlns="http://www.w3.org/2000/svg">
        <g opacity="0.6" clipPath="url(#clip0)">
          <path d="M5.29352 19.3386C5.1222 19.3392 4.95775 19.2713 4.83693 19.1498L2.34184 16.6543C2.13364 16.4425 2.09518 16.1166 2.24834 15.8622C2.38644 15.6182 2.34484 15.312 2.14665 15.1137C1.94845 14.9154 1.64232 14.8736 1.39824 15.0116C1.14365 15.1651 0.817378 15.1266 0.605483 14.9181L0.352533 14.6653C0.101265 14.4132 0.101119 14.0054 0.352205 13.7531L13.5828 0.522559C13.8349 0.271126 14.2429 0.271126 14.495 0.522559L14.7482 0.775837C14.9565 0.987926 14.9947 1.31415 14.8411 1.56862C14.7036 1.81271 14.7455 2.11853 14.9437 2.31655C15.1419 2.51458 15.4477 2.55629 15.6917 2.41856C15.9464 2.26546 16.2724 2.3039 16.4845 2.51203L18.9795 5.00754C19.2311 5.2597 19.231 5.66796 18.9792 5.91994L5.74945 19.1501C5.62881 19.2714 5.46459 19.3393 5.29352 19.3386ZM1.71322 14.2782C2.04968 14.2781 2.37234 14.4119 2.61004 14.65C3.01642 15.0575 3.10152 15.6857 2.81817 16.1866L5.30089 18.6865L18.5162 5.45597L16.0207 2.97551C15.5228 3.27022 14.8885 3.18981 14.4799 2.7802C14.0737 2.37283 13.9885 1.74481 14.2715 1.24394L14.0314 0.986198L0.816074 14.2167L1.06932 14.4546C1.26425 14.3391 1.48665 14.2782 1.71322 14.2782Z" fill="black" stroke="black" strokeWidth="0.1" />
          <path d="M6.86306 20.0113C6.69185 20.0119 6.52753 19.944 6.4068 19.8226L5.50998 18.9257C5.42475 18.8434 5.39057 18.7215 5.42058 18.6069C5.45058 18.4922 5.5401 18.4027 5.65474 18.3727C5.76937 18.3427 5.89127 18.3769 5.97359 18.4621L6.87077 19.3591L9.77066 16.444L8.87381 15.562C8.74909 15.4334 8.75066 15.2285 8.87733 15.1019C9.004 14.9752 9.20888 14.9737 9.33745 15.0984L10.2343 15.9952C10.4857 16.2473 10.4857 16.6553 10.2343 16.9074L7.319 19.8227C7.19837 19.9441 7.03415 20.012 6.86306 20.0113Z" fill="black" stroke="black" strokeWidth="0.1" />
          <path d="M11.7967 15.0783C11.6254 15.0789 11.4611 15.0109 11.3404 14.8895L10.4435 13.9927C10.3197 13.864 10.3216 13.6599 10.4479 13.5335C10.5741 13.4072 10.7783 13.4052 10.907 13.529L11.8042 14.426L19.1889 7.02596L18.2921 6.14415C18.1668 6.01566 18.1681 5.81033 18.295 5.68343C18.4219 5.55654 18.6272 5.55524 18.7557 5.68051L19.6524 6.5775C19.904 6.82965 19.9038 7.2379 19.6521 7.48989L12.2524 14.8896C12.1318 15.0109 11.9677 15.0789 11.7967 15.0783Z" fill="black" stroke="black" strokeWidth="0.1" />
          <path d="M7.98438 19.0219C7.89741 19.022 7.81399 18.9874 7.75258 18.9258L6.63127 17.8047C6.50654 17.6761 6.50809 17.4712 6.63475 17.3446C6.76141 17.2179 6.96629 17.2163 7.09487 17.3411L8.21618 18.4624C8.30993 18.5561 8.33796 18.6971 8.28722 18.8197C8.23648 18.9422 8.11694 19.022 7.98435 19.022L7.98438 19.0219Z" fill="black" stroke="black" strokeWidth="0.1" />
          <path d="M9.1057 17.9006C9.01872 17.9007 8.93528 17.8661 8.87386 17.8045L7.75256 16.6832C7.62454 16.5552 7.62458 16.3475 7.75266 16.2195C7.88073 16.0915 8.08834 16.0915 8.21636 16.2196L9.33767 17.3409C9.43143 17.4347 9.45948 17.5757 9.40874 17.6982C9.35801 17.8207 9.23847 17.9006 9.10586 17.9006L9.1057 17.9006Z" fill="black" stroke="black" strokeWidth="0.1" />
          <path d="M12.9178 14.0882C12.8309 14.0884 12.7474 14.0538 12.686 13.9922L11.5647 12.8711C11.4405 12.7424 11.4422 12.5379 11.5687 12.4115C11.6952 12.285 11.8997 12.2832 12.0283 12.4075L13.1496 13.5286C13.2434 13.6223 13.2714 13.7633 13.2207 13.8858C13.1699 14.0083 13.0504 14.0882 12.9178 14.0882Z" fill="black" stroke="black" strokeWidth="0.1" />
          <path d="M14.0391 12.9674C13.9521 12.9675 13.8687 12.9329 13.8073 12.8713L12.686 11.75C12.5612 11.6214 12.5628 11.4166 12.6894 11.2899C12.8161 11.1632 13.021 11.1617 13.1496 11.2864L14.2709 12.4077C14.3646 12.5014 14.3927 12.6424 14.3419 12.7649C14.2912 12.8874 14.1716 12.9673 14.039 12.9673L14.0391 12.9674Z" fill="black" stroke="black" strokeWidth="0.1" />
          <path d="M15.1603 11.8457C15.0734 11.8458 14.9899 11.8112 14.9285 11.7496L13.8072 10.6285C13.6819 10.5 13.6832 10.2947 13.8101 10.1678C13.937 10.0409 14.1423 10.0396 14.2708 10.1649L15.3922 11.286C15.4859 11.3798 15.514 11.5208 15.4632 11.6433C15.4125 11.7658 15.293 11.8457 15.1603 11.8457Z" fill="black" stroke="black" strokeWidth="0.1" />
          <path d="M16.2814 10.7249C16.1944 10.725 16.111 10.6904 16.0496 10.6289L14.9286 9.50754C14.8436 9.42515 14.8097 9.3034 14.8398 9.18895C14.8698 9.0745 14.9592 8.98513 15.0736 8.95509C15.1881 8.92505 15.3098 8.959 15.3922 9.04394L16.5132 10.1652C16.6069 10.259 16.6349 10.4 16.5842 10.5225C16.5335 10.645 16.4139 10.7249 16.2814 10.7249V10.7249Z" fill="black" stroke="black" strokeWidth="0.1" />
          <path d="M17.4026 9.60335C17.3156 9.60346 17.2322 9.56889 17.1708 9.50728L16.0495 8.38597C15.9642 8.30365 15.9301 8.18175 15.9601 8.06712C15.9901 7.95249 16.0796 7.86296 16.1942 7.83296C16.3089 7.80295 16.4308 7.83714 16.5131 7.92237L17.6344 9.04368C17.7281 9.13745 17.7562 9.27846 17.7054 9.40096C17.6547 9.52346 17.5351 9.60333 17.4026 9.60335H17.4026Z" fill="black" stroke="black" strokeWidth="0.1" />
          <path d="M18.5238 8.48243C18.4368 8.48253 18.3534 8.44795 18.292 8.38637L17.1707 7.26525C17.0454 7.13676 17.0467 6.93142 17.1736 6.80453C17.3005 6.67763 17.5058 6.67633 17.6343 6.80161L18.7556 7.92292C18.8494 8.0167 18.8774 8.1577 18.8267 8.2802C18.7759 8.4027 18.6564 8.48258 18.5238 8.4826V8.48243Z" fill="black" stroke="black" strokeWidth="0.1" />
          <path d="M5.74172 16.6432C5.5678 16.6435 5.40094 16.5744 5.27808 16.4513L3.0509 14.2241C2.79507 13.9679 2.79507 13.5529 3.0509 13.2967L4.60539 11.7422C4.86153 11.4863 5.27649 11.4863 5.53263 11.7422L7.75985 13.9693C8.01566 14.2256 8.01566 14.6405 7.75985 14.8968L6.20535 16.4512C6.08251 16.5744 5.91564 16.6434 5.74172 16.6432ZM5.06899 12.2058L3.5146 13.7603L5.74181 15.9876L7.29663 14.4328L5.06899 12.2058Z" fill="black" stroke="black" strokeWidth="0.1" />
          <path d="M8.65705 13.7284C8.48321 13.7287 8.31639 13.6598 8.19341 13.5369L5.96623 11.3094C5.7104 11.0532 5.7104 10.6383 5.96623 10.3821L7.52072 8.8276C7.77687 8.57179 8.19182 8.57179 8.44797 8.8276L10.6752 11.0548C10.7982 11.1778 10.8673 11.3445 10.8673 11.5184C10.8673 11.6923 10.7982 11.8591 10.6752 11.9821L9.12069 13.5367C8.99778 13.6597 8.83094 13.7287 8.65705 13.7284ZM7.98433 9.29131L6.42983 10.8458L8.65705 13.0732L10.2115 11.5185V11.5184L10.2119 11.518L7.98433 9.29131Z" fill="black" stroke="black" strokeWidth="0.1" />
          <path d="M11.5723 10.8127C11.3984 10.8131 11.2316 10.744 11.1087 10.6209L8.88117 8.39376C8.62606 8.13742 8.62591 7.72316 8.88085 7.46665L10.436 5.91183C10.5584 5.78848 10.7251 5.71929 10.8989 5.71973H10.8996C11.0736 5.71926 11.2405 5.78843 11.3632 5.91183L13.5904 8.1392C13.7134 8.26214 13.7825 8.42892 13.7825 8.60283C13.7825 8.77673 13.7134 8.94351 13.5904 9.06645L12.036 10.6209C11.9131 10.744 11.7462 10.8131 11.5723 10.8127ZM10.8996 6.37547L9.34481 7.92996L11.5723 10.1573L13.1272 8.60252L10.8996 6.37547Z" fill="black" stroke="black" strokeWidth="0.1" />
          <path d="M14.4872 7.89754C14.3134 7.89778 14.1466 7.82889 14.0236 7.70607L11.7966 5.47856C11.5407 5.2224 11.5407 4.80744 11.7966 4.55128L13.351 2.99679C13.4737 2.87339 13.6407 2.80422 13.8147 2.80469H13.8153C13.9893 2.80428 14.1561 2.87359 14.2786 2.99712L16.5058 5.224C16.6288 5.34694 16.6979 5.51372 16.6979 5.68762C16.6979 5.86153 16.6288 6.02831 16.5058 6.15125L14.9513 7.7059C14.8283 7.82899 14.6613 7.89796 14.4872 7.89754ZM13.8145 3.46043L12.26 5.01492L14.4872 7.2423L16.042 5.68764L16.0424 5.68731L13.8145 3.46043Z" fill="black" stroke="black" strokeWidth="0.1" />
        </g>
        <defs>
          <clipPath id="clip0">
            <rect width="20" height="20" fill="white" transform="translate(0 0.0200195)" />
          </clipPath>
        </defs>
      </svg>