      <svg width="16" height="17" viewBox="0 0 16 17" fill="none" xmlns="http://www.w3.org/2000/svg">
        <g opacity="0.38">
          <path d="M2.77601 5.59594C3.69139 3.6268 5.68688 2.26261 7.99999 2.26261C10.6948 2.26261 12.9582 4.1144 13.5851 6.61554C13.6461 6.85904 13.893 7.00697 14.1365 6.94594C14.38 6.88491 14.528 6.63803 14.4669 6.39452C13.7411 3.4986 11.1216 1.35352 7.99999 1.35352C5.54396 1.35352 3.39894 2.6815 2.2424 4.65751V3.62624C2.2424 3.3752 2.0389 3.1717 1.78786 3.1717C1.53682 3.1717 1.33331 3.3752 1.33331 3.62624V5.89897C1.33331 6.23369 1.60466 6.50503 1.93937 6.50503H4.2121C4.46314 6.50503 4.66665 6.30152 4.66665 6.05049C4.66665 5.79945 4.46314 5.59594 4.2121 5.59594H2.77601Z" fill="black" />
          <path d="M2.41486 9.42483C2.35383 9.18132 2.10696 9.03339 1.86345 9.09443C1.61994 9.15546 1.47202 9.40233 1.53305 9.64584C2.25887 12.5418 4.87836 14.6868 7.99999 14.6868C10.456 14.6868 12.601 13.3589 13.7576 11.3829V12.4141C13.7576 12.6652 13.9611 12.8687 14.2121 12.8687C14.4631 12.8687 14.6666 12.6652 14.6666 12.4141V10.1414C14.6666 9.80668 14.3953 9.53533 14.0606 9.53533H11.7879C11.5368 9.53533 11.3333 9.73884 11.3333 9.98988C11.3333 10.2409 11.5368 10.4444 11.7879 10.4444H13.224C12.3086 12.4136 10.3131 13.7778 7.99999 13.7778C5.30518 13.7778 3.04174 11.926 2.41486 9.42483Z" fill="black" />
          <path d="M2.77601 5.59594C3.69139 3.6268 5.68688 2.26261 7.99999 2.26261C10.6948 2.26261 12.9582 4.1144 13.5851 6.61554C13.6461 6.85904 13.893 7.00697 14.1365 6.94594C14.38 6.88491 14.528 6.63803 14.4669 6.39452C13.7411 3.4986 11.1216 1.35352 7.99999 1.35352C5.54396 1.35352 3.39894 2.6815 2.2424 4.65751V3.62624C2.2424 3.3752 2.0389 3.1717 1.78786 3.1717C1.53682 3.1717 1.33331 3.3752 1.33331 3.62624V5.89897C1.33331 6.23369 1.60466 6.50503 1.93937 6.50503H4.2121C4.46314 6.50503 4.66665 6.30152 4.66665 6.05049C4.66665 5.79945 4.46314 5.59594 4.2121 5.59594H2.77601Z" stroke="black" strokeWidth="0.25" />
          <path d="M2.41486 9.42483C2.35383 9.18132 2.10696 9.03339 1.86345 9.09443C1.61994 9.15546 1.47202 9.40233 1.53305 9.64584C2.25887 12.5418 4.87836 14.6868 7.99999 14.6868C10.456 14.6868 12.601 13.3589 13.7576 11.3829V12.4141C13.7576 12.6652 13.9611 12.8687 14.2121 12.8687C14.4631 12.8687 14.6666 12.6652 14.6666 12.4141V10.1414C14.6666 9.80668 14.3953 9.53533 14.0606 9.53533H11.7879C11.5368 9.53533 11.3333 9.73884 11.3333 9.98988C11.3333 10.2409 11.5368 10.4444 11.7879 10.4444H13.224C12.3086 12.4136 10.3131 13.7778 7.99999 13.7778C5.30518 13.7778 3.04174 11.926 2.41486 9.42483Z" stroke="black" strokeWidth="0.25" />
        </g>
      </svg>
