<svg width="24" height="25" viewBox="0 0 24 25" fill="none" xmlns="http://www.w3.org/2000/svg">
  <path fillRule="evenodd" clipRule="evenodd" d="M19.3972 2.02979C16.9612 2.02979 14.6172 2.96015 12.8443 4.63071L11.6847 5.72331C11.2056 6.17476 10.7482 6.64801 10.314 7.14143H5.83658C5.29017 7.14143 4.78383 7.42812 4.50271 7.89666L2.095 11.9095C1.98408 12.0944 1.96941 12.3215 2.05564 12.5191C2.14186 12.7167 2.31834 12.8604 2.52932 12.9049L6.59408 13.7606C6.62831 13.8041 6.66617 13.8455 6.7076 13.8844L8.48178 15.5494L10.1457 17.3225C10.1846 17.364 10.226 17.4018 10.2696 17.4361L11.1253 21.5008C11.1697 21.7118 11.3134 21.8883 11.5111 21.9745C11.7087 22.0608 11.9358 22.0461 12.1207 21.9352L16.1335 19.5275C16.6021 19.2463 16.8887 18.74 16.8887 18.1936V13.7159C17.3824 13.2814 17.8558 12.8238 18.3075 12.3444L19.3991 11.1856C21.0699 9.41206 22 7.06722 21.9993 4.63061L21.999 3.58487C21.9987 2.72595 21.3024 2.02979 20.4435 2.02979H19.3972ZM15.5554 14.7964C15.2599 15.0167 14.9585 15.2292 14.6515 15.4339L11.6341 17.4455L12.2372 20.3103L15.4475 18.3841C15.5145 18.344 15.5554 18.2717 15.5554 18.1936V14.7964ZM6.58466 12.3961L8.59687 9.37775C8.80132 9.07107 9.01365 8.76998 9.23361 8.47475H5.83658C5.75852 8.47475 5.68618 8.51571 5.64602 8.58264L3.71984 11.7929L6.58466 12.3961ZM13.7586 5.60111C15.2842 4.16365 17.3011 3.3631 19.3972 3.3631H20.4435C20.5662 3.3631 20.6656 3.46256 20.6657 3.58526L20.666 4.631C20.6666 6.72762 19.8662 8.74527 18.4286 10.2714L17.337 11.4301C16.3087 12.5216 15.1596 13.4927 13.9119 14.3245L10.9892 16.2729L9.43956 14.6216C9.4299 14.6113 9.41992 14.6013 9.40963 14.5916L7.7572 13.0409L9.70626 10.1173C10.5377 8.8702 11.5082 7.72161 12.5991 6.69371L13.7586 5.60111ZM16.8891 8.47432C16.8891 9.21078 16.2921 9.8078 15.5556 9.8078C14.8192 9.8078 14.2222 9.21078 14.2222 8.47432C14.2222 7.73787 14.8192 7.14085 15.5556 7.14085C16.2921 7.14085 16.8891 7.73787 16.8891 8.47432ZM7.11177 20.0298C7.91171 19.2299 7.91174 17.7184 7.1118 16.9184C6.31185 16.1185 4.80028 16.1184 4.00034 16.9184C2.92574 17.993 2.71577 20.3865 2.67592 21.135C2.66925 21.2604 2.76976 21.3609 2.89513 21.3542C3.64367 21.3143 6.03735 21.1042 7.11177 20.0298Z" fill="#1D53DA" />
</svg>