<svg width="81" height="80" viewBox="0 0 81 80" fill="none" xmlns="http://www.w3.org/2000/svg">
<path d="M40.9373 77.8374C40.7526 77.8375 40.571 77.7902 40.4097 77.7001C21.6173 67.1802 10.3989 50.2699 10.3989 32.4526V15.485C10.3988 15.3361 10.4295 15.1887 10.489 15.0521C10.5485 14.9156 10.6357 14.7928 10.7449 14.6915C10.8538 14.5895 10.9829 14.5115 11.1239 14.4625C11.2649 14.4136 11.4145 14.3947 11.5633 14.4072C24.1038 15.3801 33.4249 11.5131 40.0703 2.59636C40.1754 2.46867 40.3074 2.36582 40.4569 2.29522C40.6065 2.22461 40.7698 2.18799 40.9351 2.18799C41.1005 2.18799 41.2638 2.22461 41.4134 2.29522C41.5629 2.36582 41.6949 2.46867 41.8 2.59636C48.4508 11.5131 57.7849 15.378 70.3114 14.4072C70.4602 14.3957 70.6098 14.4151 70.7507 14.4643C70.8916 14.5134 71.0208 14.5913 71.1302 14.6928C71.2396 14.7944 71.3267 14.9175 71.3862 15.0544C71.4457 15.1913 71.4761 15.339 71.4757 15.4883V32.4526C71.3897 41.5232 68.6212 50.3655 63.5189 57.8656C57.8306 66.12 50.2744 72.9153 41.4649 77.6991C41.3037 77.7895 41.1221 77.8372 40.9373 77.8374ZM12.5611 16.6407V32.4526C12.5611 49.3056 23.1557 65.365 40.9373 75.5142C49.2276 70.923 56.3407 64.4723 61.7178 56.6688C66.5842 49.5232 69.227 41.0974 69.3135 32.4526V16.6407C57.0973 17.3218 47.7816 13.5056 40.9373 5.00826C34.0951 13.5034 24.7892 17.3218 12.5611 16.6407Z" fill="white"></path>
<path d="M40.9376 70.2867C40.7324 70.2866 40.5314 70.2281 40.3582 70.118C25.4393 60.6326 16.8857 46.904 16.8857 32.4532V22.0542C16.8853 21.7775 16.991 21.5112 17.1811 21.3101C17.3711 21.109 17.6311 20.9884 17.9074 20.9732C26.1571 20.7118 34.0526 17.559 40.2133 12.0661C40.412 11.8868 40.67 11.7876 40.9376 11.7876C41.2052 11.7876 41.4633 11.8868 41.662 12.0661C47.8219 17.5583 55.716 20.711 63.9647 20.9732C64.241 20.9884 64.5009 21.109 64.6909 21.3101C64.881 21.5112 64.9867 21.7775 64.9863 22.0542V32.451C64.8988 40.244 62.5076 47.8368 58.1138 54.2737C53.7358 60.6452 48.0847 66.0401 41.5171 70.118C41.3439 70.2281 41.1429 70.2866 40.9376 70.2867ZM19.0479 23.0694V32.4532C19.0479 45.9667 27.0155 58.8564 40.9376 67.9202C47.01 64.059 52.2405 59.0119 56.316 53.0813C60.4737 46.9989 62.7392 39.8224 62.8274 32.4553V23.0715C54.7731 22.6037 47.0897 19.5278 40.9376 14.3083C34.7853 19.527 27.102 22.6022 19.0479 23.0694Z" fill="white"></path>
<path d="M36.3712 47.6884C36.0845 47.6884 35.8096 47.5744 35.6069 47.3717L29.3626 41.1273C29.1656 40.9234 29.0567 40.6504 29.0591 40.3669C29.0616 40.0834 29.1753 39.8123 29.3757 39.6119C29.5762 39.4114 29.8473 39.2977 30.1308 39.2953C30.4142 39.2928 30.6873 39.4018 30.8912 39.5987L36.3712 45.0809L50.9842 30.4657C51.1876 30.263 51.4633 30.1494 51.7504 30.1499C52.0376 30.1504 52.3128 30.265 52.5156 30.4684C52.7183 30.6718 52.8319 30.9475 52.8314 31.2346C52.8309 31.5218 52.7163 31.797 52.5129 31.9998L37.1355 47.3717C36.9328 47.5744 36.6579 47.6884 36.3712 47.6884Z" fill="white"></path>
</svg>