<svg width="24" height="24" viewBox="0 0 24 24" fill="none" xmlns="http://www.w3.org/2000/svg">
                                    <path fillRule="evenodd" clipRule="evenodd" d="M7.69543 13.3909C7.05067 13.3909 6.52686 12.8671 6.52686 12.2223C6.52686 11.5795 7.05067 11.0557 7.69543 11.0557C8.34019 11.0557 8.864 11.5795 8.864 12.2223C8.864 12.8671 8.34019 13.3909 7.69543 13.3909ZM12.2383 13.3909C11.5935 13.3909 11.0697 12.8671 11.0697 12.2223C11.0697 11.5795 11.5935 11.0557 12.2383 11.0557C12.883 11.0557 13.4069 11.5795 13.4069 12.2223C13.4069 12.8671 12.883 13.3909 12.2383 13.3909ZM15.6127 12.2223C15.6127 12.8671 16.1365 13.3909 16.7812 13.3909C17.426 13.3909 17.9498 12.8671 17.9498 12.2223C17.9498 11.5795 17.426 11.0557 16.7812 11.0557C16.1365 11.0557 15.6127 11.5795 15.6127 12.2223Z" fill="#FBA64B"></path>
                                    <path fillRule="evenodd" clipRule="evenodd" d="M12.02 2C6.21 2 2 6.74612 2 12.015C2 13.6975 2.49 15.4291 3.35 17.0115C3.51 17.2729 3.53 17.6024 3.42 17.9139L2.75 20.1572C2.6 20.698 3.06 21.0976 3.57 20.9374L5.59 20.3375C6.14 20.1572 6.57 20.3866 7.08 20.698C8.54 21.5583 10.36 22 12 22C16.96 22 22 18.1642 22 11.985C22 6.65598 17.7 2 12.02 2Z" stroke="#FBA64B" stroke-width="1.5" stroke-linecap="round" stroke-linejoin="round"></path>
                                </svg>