<svg width="24" height="24" viewBox="0 0 24 24" fill="none" xmlns="http://www.w3.org/2000/svg">
<path d="M15.9583 9.0833C16.5336 9.0833 17 8.61693 17 8.04164C17 7.46635 16.5336 6.99998 15.9583 6.99998C15.383 6.99998 14.9167 7.46635 14.9167 8.04164C14.9167 8.61693 15.383 9.0833 15.9583 9.0833Z" fill="white"/>
<path fillRule="evenodd" clipRule="evenodd" d="M15.125 2C11.328 2 8.25 5.07803 8.25 8.87497C8.25 9.61285 8.36647 10.3246 8.58235 10.9922L2.42714 17.1473C2.15364 17.4208 2 17.7918 2 18.1785V20.5417C2 21.3471 2.65292 22 3.45833 22H4.70833C5.51375 22 6.16667 21.3471 6.16667 20.5417V19.7081C6.16667 19.5931 6.25994 19.4998 6.375 19.4998H8.6544C8.8213 19.5031 8.9862 19.4394 9.10871 19.3169L9.28643 19.1391C9.42318 19.0024 9.5 18.8169 9.5 18.6235V17.4165C9.5 17.3014 9.59327 17.2082 9.70833 17.2082H10.6134C11.0001 17.2082 11.3711 17.0545 11.6446 16.781L13.0079 15.4176C13.6755 15.6335 14.3872 15.7499 15.125 15.7499C18.922 15.7499 22 12.6719 22 8.87497C22 5.07803 18.922 2 15.125 2ZM9.5 8.87497C9.5 5.76838 12.0184 3.24999 15.125 3.24999C18.2316 3.24999 20.75 5.76838 20.75 8.87497C20.75 11.9816 18.2316 14.4999 15.125 14.4999C14.3999 14.4999 13.7083 14.3631 13.0735 14.1143C12.8422 14.0237 12.5792 14.0786 12.4035 14.2543L10.7607 15.8971C10.7216 15.9362 10.6686 15.9582 10.6134 15.9582H9.70833C8.90292 15.9582 8.25 16.6111 8.25 17.4165V18.2498H6.375C5.56958 18.2498 4.91667 18.9027 4.91667 19.7081V20.5417C4.91667 20.6567 4.82339 20.75 4.70833 20.75H3.45833C3.34327 20.75 3.25 20.6567 3.25 20.5417V18.1785C3.25 18.1233 3.27195 18.0703 3.31102 18.0312L9.74572 11.5965C9.92138 11.4209 9.97633 11.1579 9.88568 10.9266C9.6369 10.2917 9.5 9.60009 9.5 8.87497Z" fill="white"/>
</svg>
