<svg width="91" height="91" viewBox="0 0 91 91" fill="none" xmlns="http://www.w3.org/2000/svg">
<circle cx="45.5" cy="45.5" r="45" fill="black" fillOpacity="0.04"/>
<path d="M59.5802 38.2475C60.3613 37.4665 60.3613 36.2001 59.5802 35.4191C58.7992 34.638 57.5328 34.638 56.7518 35.4191L40.8327 51.3382L34.2469 44.7524C33.4658 43.9714 32.1995 43.9714 31.4185 44.7524C30.6374 45.5335 30.6374 46.7998 31.4185 47.5808L39.4185 55.5808C40.1995 56.3619 41.4658 56.3619 42.2469 55.5808L59.5802 38.2475Z" fill="#1D53DA"/>
<path fillRule="evenodd" clipRule="evenodd" d="M45.4993 16.1666C29.299 16.1666 16.166 29.2996 16.166 45.5C16.166 61.7003 29.299 74.8333 45.4993 74.8333C61.6997 74.8333 74.8327 61.7003 74.8327 45.5C74.8327 29.2996 61.6997 16.1666 45.4993 16.1666ZM20.166 45.5C20.166 31.5087 31.5081 20.1666 45.4993 20.1666C59.4906 20.1666 70.8327 31.5087 70.8327 45.5C70.8327 59.4912 59.4906 70.8333 45.4993 70.8333C31.5081 70.8333 20.166 59.4912 20.166 45.5Z" fill="#1D53DA"/>
</svg>
