<svg width="24" height="24" viewBox="0 0 24 24" fill="none" xmlns="http://www.w3.org/2000/svg">
                        <path opacity="0.6" d="M11.3572 7.17285L11.3495 7.15799L11.3409 7.14369L10.0546 5.02397C10.0481 5.0101 10.0426 4.99655 10.0385 4.98386C10.0341 4.97021 10.0316 4.95925 10.0304 4.95127C10.054 4.91232 10.0863 4.8809 10.1615 4.85017C10.9919 4.58492 11.855 4.43555 12.712 4.43555C13.0968 4.43555 13.4859 4.47251 13.9223 4.549L13.9652 4.55651H14.0058C14.0127 4.56582 14.0249 4.58546 14.0375 4.62142C14.5676 6.19717 16.0563 7.25795 17.7313 7.25795C18.0169 7.25795 18.3382 7.21368 18.6168 7.1753L18.6361 7.17263L18.6494 7.1708L18.6626 7.16827C18.6931 7.16237 18.7724 7.17612 18.8337 7.22597C19.6514 8.21001 20.2293 9.37312 20.4608 10.6004L20.4639 10.6169L20.4677 10.6316C20.4677 10.6321 20.4678 10.633 20.4678 10.6343C20.4678 10.6359 20.4677 10.6375 20.4675 10.6392C20.4675 10.6399 20.4674 10.6406 20.4673 10.6413C20.455 10.6499 20.4348 10.6619 20.4069 10.673C20.3651 10.6896 20.3338 10.6931 20.3247 10.6931H17.7324C17.7325 10.6931 17.7326 10.6931 17.7326 10.6931C17.7326 10.6929 17.7126 10.6904 17.6811 10.6662C17.6476 10.6403 17.6274 10.6094 17.6195 10.5895C16.9638 8.52753 14.9717 7.06435 12.712 7.06435C12.3394 7.06435 11.9278 7.10899 11.5197 7.1964L11.5056 7.19942L11.4917 7.20326C11.4013 7.22815 11.3625 7.18295 11.3572 7.17285Z" fill="black" stroke="black"></path>
                        <path opacity="0.6" d="M17.6226 13.4007L17.6345 13.3628L17.64 13.3261C17.6502 13.3198 17.6792 13.3066 17.7313 13.3066H20.3206C20.3291 13.3113 20.3486 13.324 20.3833 13.3562C20.3838 13.3593 20.3841 13.3625 20.3841 13.3655C20.3841 13.3668 20.3841 13.3677 20.384 13.3682L20.3802 13.3829L20.3771 13.3994C20.1455 14.6275 19.5669 15.7914 18.7484 16.7758C18.6894 16.8271 18.6371 16.8406 18.5636 16.8288C18.3109 16.7882 17.9838 16.7418 17.6895 16.7418C16.0266 16.7418 14.4966 17.8293 14.0005 19.3627C13.9871 19.3903 13.9717 19.4085 13.9582 19.42C13.9442 19.4317 13.9238 19.4438 13.8875 19.4496L13.8875 19.4496L13.8805 19.4508C13.4441 19.5273 13.055 19.5642 12.6702 19.5642C11.8213 19.5642 10.9663 19.4177 10.1432 19.1571C10.0929 19.1285 10.0576 19.0935 10.0304 19.0485C10.0316 19.0405 10.0341 19.0295 10.0385 19.0159C10.0426 19.0032 10.0481 18.9897 10.0546 18.9758L11.3311 16.8722C11.3591 16.8352 11.3936 16.8108 11.4239 16.7986C11.4397 16.7923 11.452 16.7902 11.4599 16.7897C11.4675 16.7893 11.4709 16.7903 11.4715 16.7905L11.4953 16.7982L11.5197 16.8034C11.9278 16.8908 12.3394 16.9354 12.712 16.9354C14.9752 16.9354 16.9699 15.4677 17.6226 13.4007Z" fill="black" stroke="black"></path>
                        <path opacity="0.6" d="M7.53003 17.6853C6.56075 16.8565 5.82546 15.8462 5.35835 14.7281C5.34543 14.6857 5.34674 14.657 5.34945 14.6427C5.35195 14.6295 5.35607 14.6234 5.36197 14.6177L5.01879 14.2617L5.36197 14.6177C6.08798 13.9179 6.47701 12.9812 6.47701 11.9998C6.47701 11.0184 6.08798 10.0817 5.36197 9.38189C5.35607 9.37619 5.35195 9.37012 5.34945 9.35687C5.34674 9.34253 5.34543 9.31383 5.35835 9.27144C5.82801 8.1469 6.56373 7.10391 7.52042 6.32128C7.544 6.30828 7.57411 6.29501 7.60351 6.28667C7.61662 6.28296 7.62627 6.28117 7.63231 6.28037L7.67439 6.29051H7.73379C7.73749 6.29051 7.73896 6.29099 7.73905 6.29102C7.73928 6.29109 7.73973 6.29123 7.74058 6.29178C7.74286 6.29325 7.74696 6.29701 7.75005 6.30297L7.75775 6.31782L7.76643 6.33213L9.05255 8.4517C9.07465 8.49849 9.07716 8.53156 9.07593 8.54636C9.07534 8.55349 9.07397 8.55702 9.07308 8.55891C9.07231 8.56056 9.06949 8.56624 9.0599 8.57549L9.0598 8.57538L9.05122 8.58406C8.12759 9.51891 7.61024 10.7318 7.61024 11.9998C7.61024 13.2584 8.11998 14.4628 9.03085 15.3948C9.06084 15.4373 9.08042 15.5044 9.04349 15.6031L7.7856 17.6762C7.75742 17.7065 7.71975 17.7308 7.66512 17.7494H7.66501H7.66477H7.66453H7.66428H7.66404H7.6638H7.66356H7.66331H7.66307H7.66283H7.66259H7.66234H7.6621H7.66186H7.66162H7.66137H7.66113H7.66089H7.66064H7.6604H7.66016H7.65991H7.65967H7.65943H7.65918H7.65894H7.65869H7.65845H7.65821H7.65796H7.65772H7.65747H7.65723H7.65698H7.65674H7.6565H7.65625H7.65601H7.65576H7.65552H7.65527H7.65503H7.65478H7.65454H7.65429H7.65405H7.6538H7.65356H7.65331H7.65307H7.65282H7.65258H7.65233H7.65209H7.65184H7.6516H7.65135H7.65111H7.65086H7.65062H7.65037H7.65013C7.6492 17.7494 7.64864 17.7494 7.64703 17.749C7.64498 17.7485 7.63927 17.7469 7.62855 17.7422C7.60536 17.7318 7.57945 17.7167 7.53003 17.6853Z" fill="black" stroke="black"></path>
                        <path opacity="0.6" d="M3.84624 12C3.84624 12.5974 3.33848 13.1128 2.67312 13.1128C2.00776 13.1128 1.5 12.5974 1.5 12C1.5 11.4026 2.00776 10.8872 2.67312 10.8872C3.33848 10.8872 3.84624 11.4026 3.84624 12Z" fill="black" stroke="black"></path>
                        <path opacity="0.6" d="M18.9039 20.4668C18.9039 21.0642 18.3961 21.5796 17.7307 21.5796C17.0654 21.5796 16.5576 21.0642 16.5576 20.4668C16.5576 19.8694 17.0654 19.354 17.7307 19.354C18.3961 19.354 18.9039 19.8694 18.9039 20.4668Z" fill="black" stroke="black"></path>
                        <path opacity="0.6" d="M18.9039 3.53272C18.9039 4.13016 18.3961 4.64552 17.7307 4.64552C17.0654 4.64552 16.5576 4.13016 16.5576 3.53272C16.5576 2.93528 17.0654 2.41992 17.7307 2.41992C18.3961 2.41992 18.9039 2.93528 18.9039 3.53272Z" fill="black" stroke="black"></path>
                    </svg>