<svg width="24" height="24" viewBox="0 0 24 24" fill="none" xmlns="http://www.w3.org/2000/svg">
                        <path opacity="0.6" d="M20.5714 9H3.42857M20.5714 9C21.3604 9 22 8.32843 22 7.5V4.5C22 3.67157 21.3604 3 20.5714 3H3.42857C2.63959 3 2 3.67157 2 4.5V7.5C2 8.32843 2.63959 9 3.42857 9M20.5714 9C21.3604 9 22 9.67157 22 10.5V13.5C22 14.3284 21.3604 15 20.5714 15M3.42857 9C2.63959 9 2 9.67157 2 10.5V13.5C2 14.3284 2.63959 15 3.42857 15M20.5714 15H3.42857M20.5714 15C21.3604 15 22 15.6716 22 16.5V19.5C22 20.3284 21.3604 21 20.5714 21H3.42857C2.63959 21 2 20.3284 2 19.5V16.5C2 15.6716 2.63959 15 3.42857 15M4.14286 6H8.42857M4.14286 12H8.42857M4.14286 18H8.42857" stroke="black" stroke-width="1.5" stroke-linecap="round"></path>
                    </svg>