<svg width="24" height="24" viewBox="0 0 24 24" fill="none" xmlns="http://www.w3.org/2000/svg">
<path fillRule="evenodd" clipRule="evenodd" d="M12 2C6.47779 2 2 6.47779 2 12C2 17.5222 6.47779 22 12 22C17.5229 22 22 17.5225 22 12C22 6.47745 17.5229 2 12 2ZM12 3.5C16.6944 3.5 20.5 7.30586 20.5 12C20.5 16.6941 16.6944 20.5 12 20.5C7.30621 20.5 3.5 16.6938 3.5 12C3.5 7.30621 7.30621 3.5 12 3.5ZM11.2857 12.6506C11.2857 13.0648 11.6215 13.4006 12.0357 13.4006H12.5614C12.7899 13.4006 12.9752 13.2154 12.9752 12.9868C12.9752 12.8144 13.029 12.6635 13.1366 12.5342C13.2526 12.4049 13.4348 12.2325 13.6832 12.017C13.9565 11.7929 14.1801 11.5903 14.354 11.4092C14.528 11.2196 14.677 10.9782 14.8012 10.6851C14.9337 10.392 15 10.0472 15 9.65062C15 9.17648 14.8882 8.73682 14.6646 8.33165C14.4493 7.92648 14.1304 7.6032 13.7081 7.36182C13.2857 7.12045 12.7847 6.99976 12.205 6.99976H11.9317C11.3602 6.99976 10.8509 7.12907 10.4037 7.38769C9.95652 7.63769 9.6087 7.96958 9.36025 8.38338C9.12008 8.79717 9 9.2282 9 9.67648C9 9.94947 9.24433 10.1549 9.51733 10.1549H10.3748C10.6014 10.1549 10.7832 9.96763 10.7764 9.74114C10.7764 9.41355 10.8592 9.12045 11.0248 8.86182C11.1988 8.6032 11.5052 8.47389 11.9441 8.47389C12.3168 8.47389 12.5942 8.58165 12.7764 8.79717C12.9669 9.00407 13.0621 9.27993 13.0621 9.62476C13.0621 9.9351 12.9834 10.2023 12.8261 10.4265C12.677 10.6506 12.4534 10.9049 12.1553 11.1894C11.8571 11.4825 11.6377 11.7282 11.4969 11.9265C11.3561 12.1248 11.2857 12.3661 11.2857 12.6506ZM12.1242 15.0989C11.62 15.0989 11.2112 15.5077 11.2112 16.0119V16.0867C11.2112 16.591 11.62 16.9998 12.1242 16.9998C12.6285 16.9998 13.0373 16.591 13.0373 16.0867V16.0119C13.0373 15.5077 12.6285 15.0989 12.1242 15.0989Z" fill="#1D53DA"/>
</svg>
