<svg width="24" height="24" viewBox="0 0 24 24" fill="none" xmlns="http://www.w3.org/2000/svg">
                        <path opacity="0.6" d="M14.25 10.125H17.25" stroke="black" stroke-width="1.5" stroke-linecap="round" stroke-linejoin="round"></path>
                        <path opacity="0.6" d="M6.75 10.125H9.75" stroke="black" stroke-width="1.5" stroke-linecap="round" stroke-linejoin="round"></path>
                        <path opacity="0.6" d="M8.25 8.625V11.625" stroke="black" stroke-width="1.5" stroke-linecap="round" stroke-linejoin="round"></path>
                        <path opacity="0.6" d="M16.1263 5.22559L7.87495 5.24998C6.72879 5.25006 5.61928 5.65388 4.74119 6.39053C3.8631 7.12718 3.27256 8.1496 3.07322 9.2783L3.07402 9.27844L1.53985 17.1687C1.44295 17.7185 1.52384 18.2849 1.77076 18.7855C2.01769 19.2862 2.4178 19.6952 2.91298 19.9529C3.40816 20.2107 3.97262 20.3039 4.52439 20.219C5.07616 20.1341 5.5865 19.8756 5.98128 19.4809L5.98113 19.4807L10.0345 15L16.1263 14.9756C17.4192 14.9756 18.6592 14.462 19.5734 13.5477C20.4876 12.6335 21.0013 11.3935 21.0013 10.1006C21.0013 8.80766 20.4876 7.56768 19.5734 6.65344C18.6592 5.7392 17.4192 5.22559 16.1263 5.22559V5.22559Z" stroke="black" stroke-width="1.5" stroke-linecap="round" stroke-linejoin="round"></path>
                        <path opacity="0.6" d="M20.9277 9.25391L22.4606 17.1686C22.5575 17.7184 22.4766 18.2847 22.2297 18.7854C21.9827 19.2861 21.5826 19.695 21.0874 19.9528C20.5923 20.2106 20.0278 20.3038 19.476 20.2189C18.9243 20.134 18.4139 19.8754 18.0191 19.4807L18.0193 19.4805L13.9688 14.9841" stroke="black" stroke-width="1.5" stroke-linecap="round" stroke-linejoin="round"></path>
                    </svg>