<svg width="80" height="80" viewBox="0 0 80 80" fill="none" xmlns="http://www.w3.org/2000/svg">
<path d="M15.8248 38.7298C10.707 38.7298 6.5437 34.6043 6.5437 29.535C6.5437 24.4651 10.707 20.3396 15.8248 20.3396C20.942 20.3396 25.1047 24.4645 25.1047 29.535C25.1047 34.605 20.942 38.7298 15.8248 38.7298ZM15.8248 22.9202C12.1296 22.9202 9.12435 25.8877 9.12435 29.535C9.12435 33.1817 12.1296 36.1492 15.8248 36.1492C19.5188 36.1492 22.524 33.1817 22.524 29.535C22.524 25.8877 19.5188 22.9202 15.8248 22.9202Z" fill="white"></path>
<path d="M19.5583 64.1885H3.37261C1.51273 64.1885 0 62.6852 0 60.8373V56.6167C0 47.9763 7.09866 40.9463 15.8247 40.9463C19.2566 40.9463 22.5233 42.0174 25.269 44.0429C25.8424 44.4663 25.9646 45.274 25.5412 45.848C25.1178 46.4207 24.3107 46.5429 23.7368 46.1202C21.4378 44.4241 18.7021 43.5269 15.8247 43.5269C8.52193 43.5269 2.58065 49.3995 2.58065 56.6167V60.8373C2.58065 61.2619 2.93599 61.6078 3.37261 61.6078H19.559C20.2709 61.6078 20.8493 62.1856 20.8493 62.8982C20.8493 63.6101 20.2709 64.1885 19.5583 64.1885V64.1885Z" fill="white"></path>
<path d="M76.6272 63.212H60.4415C59.7296 63.212 59.1512 62.6343 59.1512 61.9217C59.1512 61.2097 59.7296 60.6314 60.4415 60.6314H76.6279C77.0645 60.6314 77.4198 60.2861 77.4198 59.8615V55.6408C77.4198 48.4224 71.4786 42.5511 64.1758 42.5511C61.1257 42.5511 58.1482 43.6014 55.7912 45.5091C55.238 45.9571 54.4259 45.872 53.9767 45.3182C53.5287 44.7644 53.6131 43.9517 54.1682 43.5031C56.9826 41.2255 60.5367 39.9705 64.1758 39.9705C72.9012 39.9705 79.9999 46.9998 79.9999 55.6408V59.8615C79.9999 61.7087 78.4871 63.212 76.6272 63.212V63.212Z" fill="white"></path>
<path d="M64.1754 38.0921C59.0582 38.0921 54.8955 33.9673 54.8955 28.8973C54.8955 23.8274 59.0582 19.7019 64.1754 19.7019C69.2932 19.7019 73.4565 23.8268 73.4565 28.8973C73.4565 33.9679 69.2926 38.0921 64.1754 38.0921V38.0921ZM64.1754 22.2825C60.4814 22.2825 57.4762 25.25 57.4762 28.8973C57.4762 32.5446 60.4814 35.5115 64.1754 35.5115C67.8706 35.5115 70.8759 32.5446 70.8759 28.8973C70.8759 25.25 67.8699 22.2825 64.1754 22.2825V22.2825Z" fill="white"></path>
<path d="M57.5127 68.3871H22.4874C20.1607 68.3871 18.2681 66.5083 18.2681 64.1986V58.2623C18.2681 46.3987 28.0161 36.7471 40 36.7471C51.984 36.7471 61.732 46.3987 61.732 58.2623V64.1986C61.732 66.5083 59.8394 68.3871 57.5127 68.3871ZM40 39.3283C29.4399 39.3283 20.8487 47.8226 20.8487 58.263V64.1992C20.8487 65.0857 21.584 65.8071 22.4874 65.8071H57.512C58.4155 65.8071 59.1508 65.0857 59.1508 64.1992V58.263C59.1514 47.8226 50.5602 39.3283 40 39.3283V39.3283Z" fill="white"></path>
<path d="M39.5514 35.2393C32.9763 35.2393 27.626 29.94 27.626 23.4254C27.626 16.9114 32.9756 11.6128 39.5514 11.6128C46.1277 11.6128 51.4774 16.9121 51.4774 23.426C51.4774 29.9407 46.1271 35.2393 39.5514 35.2393V35.2393ZM39.5514 14.1934C34.3989 14.1934 30.2066 18.3353 30.2066 23.426C30.2066 28.5174 34.3989 32.6593 39.5514 32.6593C44.7045 32.6593 48.8968 28.5174 48.8968 23.426C48.8968 18.3353 44.7045 14.1934 39.5514 14.1934V14.1934Z" fill="white"></path>
</svg>