<svg width="40" height="40" viewBox="0 0 40 40" fill="none" xmlns="http://www.w3.org/2000/svg">
    <g clip-path="url(#clip0)">
        <path d="M38.8568 13.3315C38.8546 13.3251 38.8527 13.3198 38.8505 13.3141C36.2908 6.09688 29.7069 0.786894 21.7964 0.0820312C24.8573 1.76012 25.7513 7.07678 26.5345 13.3315C27.0695 17.6039 27.0729 22.3113 26.5446 26.589C25.7681 32.8776 24.8704 38.2318 21.7965 39.9169C29.7215 39.2107 36.3148 33.8824 38.8645 26.6458C38.8712 26.6266 38.8768 26.6076 38.8837 26.589C39.6037 24.5253 40 22.3091 40 20.0001C39.9997 17.6607 39.5945 15.4173 38.8568 13.3315Z" fill="#E12A28"></path>
        <path d="M27.5639 13.3317C26.7811 7.07683 24.8572 1.76026 21.796 0.082165C21.2039 0.0297246 20.6052 0 19.9995 0C11.2993 0 3.90035 5.55674 1.14913 13.3143C1.14693 13.3199 1.14499 13.3253 1.14279 13.3317C0.405167 15.4175 0 17.6609 0 20.0001C0 22.3095 0.3963 24.5254 1.11628 26.589C1.12295 26.6077 1.12895 26.6266 1.13553 26.6459C3.87594 34.4234 11.285 39.9996 19.9995 39.9996C20.6052 39.9996 21.2039 39.9699 21.7959 39.9168C24.8698 38.2318 26.7974 32.8776 27.5739 26.5889C28.1023 22.3111 28.0988 17.604 27.5639 13.3317Z" fill="#ED3432"></path>
        <path d="M19.8207 9.74951L22.1964 17.0619H29.8855L23.6648 21.5803L26.0407 28.8935L19.8207 24.3739L13.6003 28.8935L15.9763 21.5803L9.75586 17.0619H17.4447L19.8207 9.74951Z" fill="#FDCE0C"></path>
    </g>
    <defs>
        <clipPath id="clip0">
            <rect width="40" height="40" fill="white"></rect>
        </clipPath>
    </defs>
</svg>