<svg width="158" height="189" viewBox="0 0 158 189" fill="none" xmlns="http://www.w3.org/2000/svg">
<g opacity="0.2">
<path opacity="0.09" d="M77.3337 111.113C79.5293 110.169 81.9982 109.699 84.4939 109.75C85.7517 109.755 87.0023 109.902 88.2077 110.188C88.952 110.373 89.6694 110.62 90.3479 110.925L152.728 139.488C153.698 139.903 154.528 140.496 155.149 141.218C155.771 141.94 156.166 142.77 156.3 143.638C156.309 144.651 155.956 145.646 155.282 146.507C154.608 147.367 153.64 148.059 152.492 148.5L80.1033 182.25C79.695 182.434 79.2748 182.601 78.8444 182.75C77.0013 183.384 75.0145 183.712 73.0061 183.713C70.9623 183.758 68.9389 183.379 67.1363 182.613L4.58306 153.863C3.63372 153.443 2.82161 152.853 2.21209 152.138C1.60258 151.424 1.21268 150.606 1.07378 149.75C1.0689 148.737 1.42361 147.744 2.09721 146.884C2.77081 146.024 3.736 145.332 4.88205 144.888L77.3337 111.113Z" fill="white"></path>
<path opacity="0.18" d="M76.4367 111.85C78.6018 110.9 81.0449 110.421 83.5182 110.463C84.7622 110.475 85.9975 110.63 87.1849 110.925C87.9109 111.122 88.6117 111.373 89.2778 111.675L150.966 139.95C151.898 140.372 152.71 140.943 153.349 141.627C153.989 142.312 154.442 143.094 154.679 143.925C154.774 144.914 154.492 145.902 153.868 146.76C153.245 147.619 152.31 148.308 151.186 148.738L80.0561 181.813C79.6534 182.001 79.2384 182.172 78.8129 182.325C77.0038 182.947 75.056 183.275 73.0848 183.288C71.0802 183.346 69.0923 182.979 67.3252 182.225L5.3699 153.813C4.44272 153.386 3.63505 152.813 2.99643 152.13C2.35781 151.446 1.90169 150.667 1.65604 149.838C1.57219 148.848 1.86112 147.86 2.48605 147.001C3.11098 146.142 4.04364 145.45 5.16532 145.013L76.4367 111.85Z" fill="white"></path>
<path opacity="0.27" d="M75.6184 112.575C77.7591 111.638 80.1781 111.176 82.6212 111.238C83.8506 111.264 85.0692 111.428 86.2406 111.725C86.9449 111.935 87.6287 112.186 88.2864 112.475L149.235 140.425C151.039 141.276 152.409 142.603 153.106 144.175C153.293 145.134 153.088 146.115 152.521 146.974C151.955 147.834 151.057 148.526 149.958 148.95L80.0246 181.45L78.8129 181.963C77.0405 182.581 75.1306 182.913 73.1949 182.938C71.2289 182.999 69.2782 182.641 67.5454 181.9L6.17242 153.763C4.3561 152.917 2.974 151.589 2.26973 150.013C2.07774 149.054 2.28029 148.071 2.84729 147.211C3.4143 146.351 4.31551 145.659 5.41706 145.238L75.6184 112.575Z" fill="white"></path>
<path opacity="0.36" d="M74.6586 113.313C76.7764 112.407 79.1642 111.975 81.567 112.063C82.7826 112.096 83.9859 112.268 85.1392 112.575C85.8273 112.792 86.4952 113.047 87.1378 113.338L147.346 140.938C148.731 141.575 151.359 143.438 151.359 144.538C152.256 146.175 151.186 148.025 148.495 149.263L79.7887 181C79.5212 181.125 78.8603 181.4 78.577 181.5C76.8509 182.125 74.9815 182.461 73.0849 182.488C71.1539 182.556 69.2352 182.211 67.5299 181.488L6.77059 153.638C5.38576 153 2.69479 151.138 2.69479 150.013C1.7978 148.375 2.86789 146.525 5.55887 145.3L74.6586 113.313Z" fill="white"></path>
<path opacity="0.45" d="M73.7616 114.05C75.8572 113.145 78.2244 112.713 80.607 112.8C81.7996 112.844 82.9771 113.029 84.1006 113.35C84.5255 113.475 85.6743 113.95 86.0834 114.113L145.537 141.388C146.733 141.925 149.707 143.888 149.707 144.8C150.824 146.363 149.864 148.225 147.157 149.463L79.6471 180.638C79.4268 180.738 78.7186 181.05 78.4669 181.138C76.7771 181.756 74.9452 182.093 73.0849 182.125C71.196 182.197 69.3169 181.869 67.64 181.175L7.463 153.5C6.28275 152.95 3.22984 151 3.22984 150.05C2.11253 148.488 3.07247 146.625 5.77917 145.388L73.7616 114.05Z" fill="white"></path>
<path opacity="0.55" d="M72.8646 114.75C74.9325 113.847 77.274 113.415 79.6314 113.5C80.811 113.556 81.9731 113.754 83.0777 114.088C83.4239 114.188 84.6514 114.713 85.0133 114.85L143.727 141.775C144.718 142.225 148.054 144.275 148.054 145.013C149.392 146.5 148.542 148.375 145.804 149.625L79.5212 180.213L78.3567 180.7C76.7077 181.314 74.9204 181.658 73.1007 181.713C71.2448 181.793 69.3961 181.474 67.7502 180.788L8.15541 153.5C7.17974 153.05 3.76488 151 3.76488 150.225C2.42726 148.738 3.27704 146.863 6.01522 145.613L72.8646 114.75Z" fill="white"></path>
<path opacity="0.64" d="M71.9834 115.513C74.0167 114.609 76.3282 114.176 78.6557 114.263C79.8218 114.327 80.9684 114.533 82.0548 114.875C82.3381 114.95 83.6285 115.525 83.9433 115.638L141.933 142.25C142.72 142.613 146.402 144.663 146.402 145.3C147.976 146.713 147.205 148.6 144.467 149.863L79.3954 179.75L78.2466 180.25C76.6332 180.857 74.8837 181.201 73.1007 181.263C71.2845 181.354 69.4718 181.047 67.8604 180.375L8.86359 153.375C8.07675 153.013 4.29995 150.875 4.29995 150.275C2.72628 148.863 3.48164 146.975 6.23556 145.713L71.9834 115.513Z" fill="white"></path>
<path opacity="0.73" d="M71.0863 116.25C73.1018 115.377 75.3891 114.978 77.68 115.1C78.8268 115.175 79.9522 115.39 81.0162 115.738C81.2365 115.738 82.6843 116.425 82.8731 116.513L140.123 142.763C140.705 143.038 144.734 145.15 144.734 145.638C146.512 146.975 145.883 148.888 143.16 150.15L79.3009 179.4C79.1907 179.4 78.3095 179.85 78.1836 179.888C76.6108 180.499 74.897 180.848 73.1478 180.913C71.3664 181.015 69.5843 180.721 68.002 180.063L9.52446 153.288C8.94221 153.013 4.80346 150.788 4.80346 150.363C3.02522 149.025 3.65469 147.113 6.37713 145.85L71.0863 116.25Z" fill="white"></path>
<path opacity="0.82" d="M70.2052 116.988C72.1917 116.128 74.4484 115.742 76.7044 115.875C77.839 115.952 78.9501 116.176 79.9934 116.538C80.135 116.538 81.6772 117.263 81.8031 117.313L138.314 143.225C139.99 144.006 141.571 144.91 143.035 145.925C145.033 147.175 144.514 149.113 141.728 150.388L79.1279 179L78.0263 179.488C76.4856 180.086 74.8122 180.439 73.1007 180.525C71.3601 180.626 69.6181 180.345 68.065 179.713L10.2642 153.2C8.52979 152.405 6.89147 151.485 5.3701 150.45C3.37154 149.2 3.90658 147.263 6.67624 145.988L70.2052 116.988Z" fill="white"></path>
<path opacity="0.91" d="M69.3239 117.713C71.2953 116.872 73.5294 116.499 75.7602 116.638C76.8487 116.74 77.9105 116.976 78.9075 117.338L80.67 118.125L136.441 143.7C136.645 143.788 141.366 146.05 141.366 146.2C143.585 147.45 143.16 149.338 140.359 150.625L78.9862 178.6L77.9161 179.075C76.4443 179.668 74.8402 180.024 73.1951 180.125C71.4891 180.24 69.7771 179.971 68.2538 179.35L11.0352 153.1C10.8464 153.013 5.98378 150.688 5.98378 150.538C3.76491 149.288 4.1898 147.4 6.99092 146.113L69.3239 117.713Z" fill="white"></path>
<path opacity="0.2" d="M68.2695 178.988L6.45584 150.638C4.00092 149.513 4.31565 147.563 7.13251 146.263L68.4111 118.5C69.8594 117.86 71.4765 117.498 73.1326 117.444C74.7887 117.389 76.4378 117.644 77.9476 118.188L139.761 146.538C142.216 147.663 141.901 149.613 139.085 150.913L77.8059 178.675C76.3576 179.315 74.7406 179.677 73.0845 179.732C71.4283 179.786 69.7793 179.531 68.2695 178.988Z" fill="white"></path>
</g>
<path d="M76.2561 117.525V177.6L142.109 144.863V84.7876L76.2561 117.525Z" fill="url(#paint0_linear)"></path>
<path d="M76.2852 117.525V177.6L10.2119 144.775V84.7378L76.2852 117.525Z" fill="url(#paint1_linear)"></path>
<path style="mix-blend-mode:color-dodge" d="M76.2852 117.525V177.6L10.2119 144.775V84.7378L76.2852 117.525Z" fill="url(#paint2_linear)"></path>
<path d="M19.1587 133.363V97.9878L67.3534 121.913V157.313L19.1587 133.363Z" fill="#25054D"></path>
<path d="M133.911 133.363V97.9878L85.7161 121.913V157.313L133.911 133.363Z" fill="#25054D"></path>
<path d="M10.2119 84.7374L76.2852 117.525L142.109 84.7874L75.9626 51.9624L10.2119 84.7374Z" fill="url(#paint3_linear)"></path>
<path d="M22.4734 83.9249L75.7867 110.387L129.819 83.8874L76.4467 57.3999L22.4734 83.9249Z" fill="url(#paint4_linear)"></path>
<g style="mix-blend-mode:color-dodge">
<path style="mix-blend-mode:color-dodge" d="M49.4453 97.2251L75.9626 110.388L102.847 97.2126L76.3 84.0376L49.4453 97.2251Z" fill="url(#paint5_radial)"></path>
</g>
<path d="M57.3947 143.662L29.2347 129.8C28.3857 129.285 27.6909 128.607 27.2067 127.821C26.7226 127.035 26.4626 126.163 26.448 125.275V110.875C26.448 109.137 27.6947 108.375 29.2347 109.087L57.3947 122.937C58.2368 123.457 58.9256 124.136 59.4067 124.921C59.8878 125.707 60.148 126.577 60.1667 127.462V141.862C60.1667 143.612 58.92 144.412 57.3947 143.662Z" fill="url(#paint6_linear)"></path>
<path d="M56.4855 143.838L28.3255 129.975C27.4809 129.458 26.7902 128.779 26.3088 127.993C25.8274 127.208 25.5687 126.337 25.5535 125.45V111.05C25.5535 109.313 26.8001 108.55 28.3255 109.263L56.4855 123.125C57.3333 123.638 58.0275 124.314 58.5117 125.098C58.9958 125.882 59.2564 126.752 59.2721 127.638V142C59.2721 143.788 58.0255 144.588 56.4855 143.838Z" fill="url(#paint7_linear)"></path>
<path d="M26.5508 126.112V111.387C26.5508 110.275 27.3428 109.762 28.3254 110.25L56.4854 124.1C57.0408 124.424 57.4978 124.856 57.8191 125.36C58.1404 125.864 58.3167 126.426 58.3334 127V141.725C58.3334 142.837 57.5414 143.35 56.5588 142.862L28.3254 129C27.7857 128.67 27.344 128.237 27.0358 127.736C26.7276 127.234 26.5615 126.678 26.5508 126.112Z" fill="url(#paint8_linear)"></path>
<path d="M56.1775 135.75C56.1505 135.629 56.0859 135.517 55.9904 135.424C55.895 135.332 55.7722 135.263 55.6349 135.225H55.4149C55.1699 134.314 54.8614 133.417 54.4909 132.537C54.6011 132.502 54.6976 132.442 54.7695 132.362C54.8247 132.276 54.8537 132.179 54.8537 132.081C54.8537 131.983 54.8247 131.886 54.7695 131.8C54.7233 131.674 54.6317 131.565 54.508 131.486C54.3842 131.408 54.2345 131.364 54.0802 131.362H53.9335C53.5009 130.437 53.0113 129.531 52.4669 128.65C52.5245 128.622 52.575 128.584 52.6153 128.539C52.6556 128.494 52.6849 128.442 52.7015 128.387C52.7232 128.295 52.7227 128.2 52.7 128.107C52.6773 128.015 52.6329 127.927 52.5695 127.85C52.5135 127.757 52.4298 127.678 52.3269 127.621C52.224 127.564 52.1054 127.531 51.9829 127.525H51.8215H51.7335C51.1206 126.659 50.4497 125.825 49.7242 125.025V124.95C49.804 124.826 49.8343 124.683 49.8105 124.544C49.7867 124.404 49.7101 124.274 49.5922 124.175C49.5457 124.119 49.4865 124.072 49.4182 124.036C49.35 124 49.274 123.976 49.1947 123.966C49.1154 123.955 49.0345 123.959 48.9567 123.975C48.8788 123.992 48.8057 124.021 48.7415 124.062C48.024 123.351 47.2602 122.675 46.4535 122.037V121.837C46.4801 121.708 46.4655 121.575 46.4113 121.452C46.3572 121.329 46.2654 121.22 46.1455 121.137C46.0871 121.089 46.0168 121.052 45.9398 121.029C45.8627 121.006 45.7808 120.998 45.6996 121.005C45.6185 121.013 45.5402 121.035 45.4703 121.071C45.4003 121.106 45.3405 121.155 45.2949 121.212C44.5498 120.691 43.7659 120.211 42.9482 119.775V119.537C42.9423 119.404 42.8978 119.273 42.8184 119.158C42.7391 119.042 42.6275 118.945 42.4935 118.875H42.3175H42.2002C42.0795 118.878 41.9635 118.915 41.8705 118.981C41.7776 119.047 41.7129 119.137 41.6869 119.237C40.9786 118.921 40.2372 118.661 39.4722 118.462L39.3989 118.15C39.3707 118.022 39.3006 117.904 39.1968 117.809C39.0929 117.714 38.9596 117.646 38.8122 117.612H38.6655C38.5874 117.613 38.5103 117.627 38.4394 117.655C38.3685 117.683 38.3056 117.724 38.2549 117.775C38.2014 117.835 38.1644 117.904 38.1466 117.977C38.1289 118.051 38.1308 118.127 38.1522 118.2C37.5725 118.102 36.9831 118.052 36.3922 118.05H36.3335L36.2015 117.775C36.1552 117.654 36.0676 117.548 35.95 117.47C35.8324 117.392 35.6902 117.346 35.5415 117.337H35.4535C35.3725 117.344 35.2943 117.366 35.2255 117.403C35.1566 117.44 35.0991 117.49 35.0575 117.55C35.0134 117.628 34.9904 117.713 34.9904 117.8C34.9904 117.886 35.0134 117.972 35.0575 118.05V118.162C34.4908 118.243 33.9387 118.386 33.4149 118.587L33.2829 118.387C33.2233 118.294 33.1368 118.215 33.0316 118.159C32.9264 118.102 32.8059 118.069 32.6815 118.062C32.5771 118.061 32.4748 118.088 32.3882 118.137C32.3268 118.166 32.273 118.206 32.2301 118.253C32.1872 118.3 32.1562 118.354 32.1389 118.412C32.1022 118.58 32.1388 118.753 32.2415 118.9L32.3735 119.1C31.9092 119.376 31.4857 119.699 31.1122 120.062L31.0242 119.975C30.972 119.908 30.9012 119.853 30.818 119.815C30.7349 119.777 30.6419 119.757 30.5475 119.757C30.4532 119.757 30.3602 119.777 30.2771 119.815C30.1939 119.853 30.1231 119.908 30.0709 119.975C29.989 120.089 29.9532 120.223 29.9691 120.356C29.985 120.489 30.0517 120.615 30.1589 120.712L30.3789 120.937C30.0391 121.411 29.7589 121.914 29.5429 122.437C29.4716 122.38 29.3839 122.34 29.2887 122.321C29.1935 122.302 29.0941 122.305 29.0005 122.329C28.9068 122.353 28.8223 122.398 28.7553 122.458C28.6883 122.519 28.6413 122.594 28.6189 122.675C28.5929 122.798 28.6048 122.925 28.6537 123.044C28.7025 123.162 28.7866 123.268 28.8975 123.35L29.3229 123.675C29.3934 123.803 29.4875 123.922 29.6015 124.025L29.7482 124.112C29.8288 124.154 29.9195 124.179 30.0133 124.186C30.1071 124.193 30.2015 124.182 30.2893 124.153C30.3771 124.124 30.456 124.078 30.5198 124.019C30.5837 123.96 30.6308 123.889 30.6575 123.812C30.9009 122.585 31.6481 121.471 32.7656 120.67C33.8832 119.869 35.2984 119.432 36.7589 119.437C38.6745 119.471 40.5479 119.923 42.2002 120.75C47.7882 123.5 52.7015 129.612 54.1389 135.6C54.1743 135.751 54.2552 135.891 54.3734 136.007C54.4917 136.123 54.6434 136.211 54.8135 136.262H54.9162H55.0629L55.4735 136.35H55.6202C55.6984 136.35 55.7755 136.335 55.8464 136.307C55.9173 136.279 55.9802 136.238 56.0309 136.187C56.0882 136.126 56.1307 136.056 56.1559 135.981C56.1811 135.906 56.1885 135.827 56.1775 135.75Z" fill="#25054D"></path>
<path d="M37.4773 119.925L41.188 132.325C41.1992 132.627 41.2973 132.922 41.4738 133.183C41.6503 133.445 41.8997 133.665 42.2 133.825C42.3704 133.92 42.5686 133.972 42.772 133.975C42.8935 133.971 43.0127 133.945 43.1222 133.9C43.2317 133.855 43.3292 133.791 43.4088 133.713C43.4884 133.634 43.5485 133.543 43.5852 133.444C43.622 133.345 43.6347 133.241 43.6226 133.138C43.6038 132.734 43.4284 132.347 43.124 132.038L37.4773 119.925Z" fill="#25054D"></path>
<path d="M95 143.662L123.16 129.8C124.005 129.283 124.695 128.604 125.177 127.818C125.658 127.032 125.917 126.161 125.932 125.275V110.875C125.932 109.137 124.685 108.375 123.16 109.087L95 122.937C94.1536 123.454 93.4607 124.132 92.9768 124.918C92.4929 125.704 92.2315 126.575 92.2134 127.462V141.862C92.2574 143.612 93.5334 144.412 95 143.662Z" fill="url(#paint9_linear)"></path>
<path d="M95.9387 143.838L124.099 129.975C124.948 129.461 125.643 128.783 126.127 127.997C126.611 127.21 126.871 126.338 126.885 125.45V111.05C126.885 109.313 125.639 108.55 124.099 109.263L95.9387 123.125C95.0936 123.639 94.4023 124.316 93.9207 125.099C93.4391 125.883 93.1808 126.753 93.1667 127.638V142C93.1667 143.788 94.3987 144.588 95.9387 143.838Z" fill="url(#paint10_linear)"></path>
<path d="M125.873 126.112V111.387C125.873 110.275 125.081 109.762 124.099 110.25L95.9387 124.1C95.397 124.431 94.9541 124.866 94.6458 125.37C94.3375 125.873 94.1725 126.432 94.1641 127V141.725C94.1641 142.837 94.9561 143.35 95.9387 142.862L124.099 129.012C124.64 128.681 125.083 128.246 125.392 127.743C125.7 127.239 125.865 126.681 125.873 126.112Z" fill="url(#paint11_linear)"></path>
<path d="M96.3495 136.238C96.3965 136.289 96.4567 136.33 96.5253 136.358C96.594 136.386 96.6693 136.401 96.7455 136.4H96.8921L97.3175 136.313H97.4495H97.5521C97.7231 136.263 97.8755 136.175 97.9939 136.059C98.1124 135.942 98.1927 135.801 98.2268 135.65C99.6935 129.663 104.577 123.55 110.165 120.8C111.807 119.938 113.681 119.452 115.607 119.388C117.068 119.384 118.484 119.821 119.603 120.622C120.723 121.423 121.473 122.535 121.723 123.763C121.748 123.839 121.793 123.91 121.855 123.969C121.918 124.028 121.995 124.074 122.082 124.103C122.169 124.132 122.263 124.144 122.355 124.137C122.448 124.13 122.538 124.104 122.617 124.063L122.764 123.975C122.883 123.875 122.978 123.756 123.043 123.625L123.483 123.3C123.592 123.217 123.674 123.111 123.721 122.993C123.767 122.874 123.776 122.747 123.747 122.625C123.724 122.544 123.677 122.469 123.61 122.409C123.543 122.348 123.459 122.303 123.365 122.279C123.272 122.255 123.172 122.252 123.077 122.271C122.982 122.29 122.894 122.331 122.823 122.388C122.612 121.864 122.336 121.362 122.001 120.888L122.221 120.663C122.327 120.564 122.392 120.439 122.408 120.306C122.423 120.173 122.389 120.04 122.309 119.925C122.256 119.858 122.183 119.803 122.099 119.765C122.015 119.727 121.921 119.708 121.825 119.708C121.73 119.708 121.636 119.727 121.552 119.765C121.468 119.803 121.395 119.858 121.341 119.925L121.253 120.013C120.884 119.647 120.46 119.323 119.992 119.05L120.124 118.85C120.179 118.779 120.216 118.699 120.233 118.615C120.251 118.531 120.249 118.446 120.227 118.363C120.209 118.305 120.178 118.25 120.136 118.203C120.093 118.156 120.039 118.116 119.977 118.088C119.891 118.038 119.789 118.012 119.684 118.013C119.56 118.019 119.439 118.052 119.334 118.109C119.229 118.166 119.142 118.244 119.083 118.338L118.951 118.538C118.431 118.338 117.884 118.195 117.323 118.113V118C117.37 117.923 117.395 117.837 117.395 117.75C117.395 117.663 117.37 117.577 117.323 117.5C117.281 117.44 117.224 117.39 117.155 117.353C117.086 117.316 117.008 117.294 116.927 117.288H116.839C116.69 117.296 116.548 117.342 116.43 117.42C116.313 117.498 116.225 117.604 116.179 117.725L116.061 118H115.871C115.28 118.002 114.69 118.052 114.111 118.15C114.126 118.076 114.124 118 114.104 117.927C114.084 117.854 114.046 117.785 113.993 117.725C113.944 117.676 113.884 117.636 113.816 117.608C113.747 117.58 113.673 117.565 113.597 117.563H113.451C113.302 117.595 113.166 117.663 113.06 117.758C112.953 117.853 112.88 117.971 112.849 118.1V118.413C112.085 118.614 111.344 118.873 110.635 119.188C110.611 119.086 110.547 118.995 110.454 118.929C110.36 118.863 110.243 118.826 110.121 118.825H110.019H109.843C109.705 118.893 109.59 118.989 109.508 119.105C109.426 119.221 109.38 119.352 109.373 119.488V119.725C108.556 120.161 107.772 120.641 107.027 121.163C106.983 121.105 106.924 121.057 106.856 121.021C106.787 120.986 106.71 120.963 106.63 120.956C106.55 120.949 106.469 120.957 106.393 120.98C106.317 121.002 106.248 121.039 106.191 121.088C106.067 121.168 105.972 121.276 105.915 121.399C105.858 121.523 105.842 121.657 105.868 121.788V121.988C105.062 122.625 104.298 123.302 103.58 124.013C103.516 123.972 103.443 123.942 103.365 123.925C103.287 123.909 103.206 123.906 103.127 123.916C103.048 123.927 102.972 123.95 102.903 123.986C102.835 124.022 102.776 124.069 102.729 124.125C102.612 124.225 102.536 124.355 102.515 124.495C102.494 124.636 102.528 124.778 102.612 124.9V124.975C101.892 125.778 101.221 126.612 100.603 127.475H100.529H100.368C100.244 127.481 100.123 127.514 100.018 127.571C99.9129 127.628 99.8264 127.707 99.7668 127.8C99.646 127.959 99.599 128.151 99.6348 128.338C99.6737 128.446 99.757 128.539 99.8695 128.6C99.325 129.482 98.8355 130.387 98.4028 131.313H98.2855C98.1317 131.316 97.9831 131.36 97.8597 131.439C97.7364 131.517 97.6443 131.626 97.5961 131.75C97.5446 131.837 97.5177 131.934 97.5177 132.031C97.5177 132.129 97.5446 132.225 97.5961 132.313C97.6681 132.392 97.7646 132.453 97.8748 132.488C97.5109 133.369 97.2025 134.266 96.9508 135.175H96.7308C96.5935 135.213 96.4707 135.282 96.3753 135.374C96.2798 135.467 96.2152 135.579 96.1881 135.7C96.1567 135.794 96.1551 135.893 96.1835 135.987C96.2118 136.082 96.2691 136.168 96.3495 136.238Z" fill="#25054D"></path>
<path d="M114.947 119.925L111.236 132.325C111.229 132.628 111.132 132.924 110.955 133.186C110.778 133.448 110.527 133.668 110.224 133.825C110.054 133.92 109.855 133.972 109.652 133.975C109.53 133.971 109.411 133.945 109.302 133.9C109.192 133.855 109.095 133.791 109.015 133.713C108.935 133.634 108.875 133.543 108.839 133.444C108.802 133.345 108.789 133.241 108.801 133.138C108.82 132.734 108.995 132.347 109.3 132.038L114.947 119.925Z" fill="#25054D"></path>
<path opacity="0.2" d="M76.7253 180.288V188.513L142.872 155.625V147.413L76.7253 180.288Z" fill="url(#paint12_linear)"></path>
<path opacity="0.5" d="M76.7548 180.288V188.513L10.3882 155.538V147.35L76.7548 180.288Z" fill="url(#paint13_linear)"></path>
<path style="mix-blend-mode:screen" opacity="0.7" d="M130.215 27.5626L76.388 0.850098L22.884 27.5126V84.0501L76.1974 110.513L130.215 84.0251V27.5626Z" fill="url(#paint14_linear)"></path>
<defs>
<linearGradient id="paint0_linear" x1="95.9974" y1="134.563" x2="264.201" y2="75.4584" gradientUnits="userSpaceOnUse">
<stop stop-color="#25054D"></stop>
<stop offset="1" stop-color="#45108A"></stop>
</linearGradient>
<linearGradient id="paint1_linear" x1="-1407.06" y1="13123.6" x2="9130.86" y2="11442.6" gradientUnits="userSpaceOnUse">
<stop stop-color="#25054D"></stop>
<stop offset="1" stop-color="#45108A"></stop>
</linearGradient>
<linearGradient id="paint2_linear" x1="106.836" y1="189" x2="40.5655" y2="105.997" gradientUnits="userSpaceOnUse">
<stop stop-color="#4B61B8"></stop>
<stop offset="0.13" stop-color="#38498A"></stop>
<stop offset="0.27" stop-color="#273360"></stop>
<stop offset="0.41" stop-color="#19203E"></stop>
<stop offset="0.55" stop-color="#0E1223"></stop>
<stop offset="0.7" stop-color="#06080F"></stop>
<stop offset="0.84" stop-color="#020204"></stop>
<stop offset="1"></stop>
</linearGradient>
<linearGradient id="paint3_linear" x1="135.069" y1="-10.9126" x2="78.0507" y2="116.594" gradientUnits="userSpaceOnUse">
<stop offset="0.74" stop-color="#45108A"></stop>
<stop offset="1" stop-color="#3746A3"></stop>
</linearGradient>
<linearGradient id="paint4_linear" x1="76.1387" y1="49.9124" x2="76.1387" y2="103.062" gradientUnits="userSpaceOnUse">
<stop offset="0.03" stop-color="#7C1DC9"></stop>
<stop offset="0.21" stop-color="#6E41D2"></stop>
<stop offset="0.62" stop-color="#4C9BE8"></stop>
<stop offset="1" stop-color="#2AF6FF"></stop>
</linearGradient>
<radialGradient id="paint5_radial" cx="0" cy="0" r="1" gradientUnits="userSpaceOnUse" gradientTransform="translate(75.8013 109.8) scale(30.624 26.1)">
<stop stop-color="white"></stop>
<stop offset="1"></stop>
</radialGradient>
<linearGradient id="paint6_linear" x1="28.8973" y1="108.562" x2="51.7745" y2="147.483" gradientUnits="userSpaceOnUse">
<stop offset="0.17" stop-color="#DC48C1"></stop>
<stop offset="0.31" stop-color="#DF4AC2"></stop>
<stop offset="0.41" stop-color="#E851C5"></stop>
<stop offset="0.49" stop-color="#F75DCB"></stop>
<stop offset="0.52" stop-color="#FF63CE"></stop>
<stop offset="0.91" stop-color="#9F19AB"></stop>
</linearGradient>
<linearGradient id="paint7_linear" x1="20.7538" y1="107.216" x2="49.6522" y2="95.4425" gradientUnits="userSpaceOnUse">
<stop offset="0.04" stop-color="#9F19AB"></stop>
<stop offset="0.24" stop-color="#AE25B1"></stop>
<stop offset="0.65" stop-color="#D744BF"></stop>
<stop offset="1" stop-color="#FF63CE"></stop>
</linearGradient>
<linearGradient id="paint8_linear" x1="22.8983" y1="101.048" x2="97.358" y2="91.4671" gradientUnits="userSpaceOnUse">
<stop offset="0.04" stop-color="#9D9EB3"></stop>
<stop offset="0.58" stop-color="#D4D1D8"></stop>
<stop offset="1" stop-color="#EEEBF2"></stop>
</linearGradient>
<linearGradient id="paint9_linear" x1="123.541" y1="108.562" x2="100.651" y2="147.485" gradientUnits="userSpaceOnUse">
<stop stop-color="#4EC1DE"></stop>
<stop offset="0.24" stop-color="#4DC4DE"></stop>
<stop offset="0.45" stop-color="#49CFDE"></stop>
<stop offset="0.64" stop-color="#43E1DE"></stop>
<stop offset="0.65" stop-color="#43E2DE"></stop>
<stop offset="0.77" stop-color="#3DABC8"></stop>
<stop offset="0.84" stop-color="#3A91BD"></stop>
<stop offset="0.88" stop-color="#3B96BF"></stop>
<stop offset="1" stop-color="#3CA0C3"></stop>
</linearGradient>
<linearGradient id="paint10_linear" x1="65.6258" y1="130.529" x2="16.0277" y2="102.687" gradientUnits="userSpaceOnUse">
<stop offset="0.04" stop-color="#138BBD"></stop>
<stop offset="0.23" stop-color="#169AC7"></stop>
<stop offset="0.59" stop-color="#1FC3DF"></stop>
<stop offset="1" stop-color="#2AF6FF"></stop>
</linearGradient>
<linearGradient id="paint11_linear" x1="2937.54" y1="4396.67" x2="4419.23" y2="3004.43" gradientUnits="userSpaceOnUse">
<stop offset="0.04" stop-color="#9D9EB3"></stop>
<stop offset="0.58" stop-color="#D4D1D8"></stop>
<stop offset="1" stop-color="#EEEBF2"></stop>
</linearGradient>
<linearGradient id="paint12_linear" x1="6210.51" y1="6516.68" x2="11870.7" y2="3788.6" gradientUnits="userSpaceOnUse">
<stop stop-color="#25054D"></stop>
<stop offset="1" stop-color="#45108A"></stop>
</linearGradient>
<linearGradient id="paint13_linear" x1="-474.752" y1="7009.14" x2="7370.55" y2="4173.4" gradientUnits="userSpaceOnUse">
<stop stop-color="#25054D"></stop>
<stop offset="1" stop-color="#45108A"></stop>
</linearGradient>
<linearGradient id="paint14_linear" x1="76.5494" y1="110.513" x2="76.5494" y2="2.96259" gradientUnits="userSpaceOnUse">
<stop stop-color="#1BB0D4"></stop>
<stop offset="0.05" stop-color="#189DBD" stop-opacity="0.89"></stop>
<stop offset="0.18" stop-color="#12738B" stop-opacity="0.66"></stop>
<stop offset="0.31" stop-color="#0C5060" stop-opacity="0.45"></stop>
<stop offset="0.45" stop-color="#08333E" stop-opacity="0.29"></stop>
<stop offset="0.58" stop-color="#041D23" stop-opacity="0.16"></stop>
<stop offset="0.72" stop-color="#020D0F" stop-opacity="0.07"></stop>
<stop offset="0.85" stop-color="#000304" stop-opacity="0.02"></stop>
<stop offset="1" stop-opacity="0"></stop>
</linearGradient>
</defs>
</svg>